<?xml version="1.0" encoding="UTF-8" standalone="no"?>
<svg
   xmlns:svg="http://www.w3.org/2000/svg"
   xmlns="http://www.w3.org/2000/svg"
   width="800.0"
   height="300.0"

>
    <g transform="scale(0.5070422535211268, -0.5070422535211268)   translate(111.31111111111112,-355.4861111111111)" stroke-width="1.9722222222222223"  fill="none">
       <!-- hidden lines -->
       <g  stroke="rgb(160,160,160)" fill="none" stroke-dasharray="1.9722222222222223,1.9722222222222223" >
			<path d="M0.0,-186.875 L20.0,-186.875 " />
			<path d="M0.0,-186.875 L0.0,-66.57499999999999 " />
			<path d="M0.0,-66.575 L20.0,-66.575 " />
			<path d="M20.0,-186.875 L20.0,-66.57499999999999 " />
			<path d="M20.0,-181.10000000000002 L20.0,-167.60000000000002 " />
			<path d="M20.0,-167.60000000000002 L20.0,-181.10000000000002 " />
			<path d="M20.0,-181.10000000000002 L18.0,-181.10000000000002 " />
			<path d="M20.0,-167.60000000000002 L18.0,-167.60000000000002 " />
			<path d="M18.0,-181.10000000000002 L18.0,-167.60000000000002 " />
			<path d="M20.0,-167.60000000000002 L18.0,-167.60000000000002 " />
			<path d="M20.0,-181.10000000000002 L18.0,-181.10000000000002 " />
			<path d="M18.0,-167.60000000000002 L18.0,-181.10000000000002 " />
			<path d="M0.0,-31.575000000000003 L20.0,-31.575000000000003 " />
			<path d="M20.0,-31.575000000000003 L20.0,31.575000000000003 " />
			<path d="M20.0,-6.750000000000007 L20.0,6.749999999999993 " />
			<path d="M20.0,6.749999999999993 L20.0,-6.750000000000007 " />
			<path d="M20.0,-25.8 L20.0,-12.3 " />
			<path d="M20.0,-12.3 L20.0,-25.8 " />
			<path d="M20.0,-31.35 L18.0,-31.35 " />
			<path d="M18.0,-31.575000000000003 L18.0,-31.35 " />
			<path d="M0.0,-31.575000000000003 L0.0,31.575000000000003 " />
			<path d="M0.0,31.575000000000003 L20.0,31.575000000000003 " />
			<path d="M20.0,-6.750000000000007 L18.0,-6.750000000000007 " />
			<path d="M20.0,6.749999999999993 L18.0,6.749999999999993 " />
			<path d="M18.0,-6.750000000000007 L18.0,6.749999999999993 " />
			<path d="M20.0,6.749999999999993 L18.0,6.749999999999993 " />
			<path d="M20.0,-6.750000000000007 L18.0,-6.750000000000007 " />
			<path d="M18.0,6.749999999999993 L18.0,-6.750000000000007 " />
			<path d="M20.0,-25.8 L18.0,-25.8 " />
			<path d="M20.0,-12.3 L18.0,-12.3 " />
			<path d="M18.0,-25.8 L18.0,-12.3 " />
			<path d="M20.0,-25.8 L18.0,-25.8 " />
			<path d="M20.0,-12.3 L18.0,-12.3 " />
			<path d="M18.0,-12.3 L18.0,-25.8 " />
			<path d="M0.0,66.57500000000002 L20.0,66.57500000000002 " />
			<path d="M0.0,66.57500000000002 L0.0,256.875 " />
			<path d="M0.0,256.875 L20.0,256.875 " />
			<path d="M20.0,66.57500000000002 L20.0,256.875 " />
			<path d="M20.0,249.32950782658472 L20.0,248.64116599535177 L20.0,246.61065683533616 L20.0,243.33979855448888 L20.0,238.99260564492636 L20.0,233.78706451143086 L20.0,227.9842027228826 L20.0,221.87500000000003 L20.0,215.76579727711746 L20.0,209.9629354885692 L20.0,204.7573943550737 L20.0,200.4102014455112 L20.0,197.13934316466393 L20.0,195.1088340046483 L20.0,194.42049217341534 " />
			<path d="M20.0,194.42049217341534 L20.0,195.1088340046483 L20.0,197.1393431646639 L20.0,200.41020144551118 L20.0,204.7573943550737 L20.0,209.9629354885692 L20.0,215.76579727711746 L20.0,221.87500000000003 L20.0,227.9842027228826 L20.0,233.78706451143086 L20.0,238.99260564492636 L20.0,243.33979855448885 L20.0,246.61065683533613 L20.0,248.64116599535177 L20.0,249.3295078265847 " />
			<path d="M20.0,72.35000000000002 L20.0,85.85000000000002 " />
			<path d="M20.0,85.85000000000002 L20.0,72.35000000000002 " />
			<path d="M0.0,245.828079134007 L0.0,245.22752543044345 L0.0,243.45597859014333 L0.0,240.60227136901472 L0.0,236.8095005631686 L0.0,232.26785153804173 L0.0,227.20506154002877 L0.0,221.87500000000003 L0.0,216.5449384599713 L0.0,211.48214846195833 L0.0,206.94049943683146 L0.0,203.14772863098534 L0.0,200.29402140985673 L0.0,198.5224745695566 L0.0,197.92192086599306 " />
			<path d="M0.0,197.92192086599306 L0.0,198.5224745695566 L0.0,200.29402140985673 L0.0,203.1477286309853 L0.0,206.94049943683146 L0.0,211.48214846195833 L0.0,216.5449384599713 L0.0,221.87500000000003 L0.0,227.20506154002877 L0.0,232.26785153804173 L0.0,236.8095005631686 L0.0,240.60227136901472 L0.0,243.45597859014333 L0.0,245.22752543044345 L0.0,245.82807913400697 " />
			<path d="M-3.552713678800501e-15,245.828079134007 L0.40601067427502713,246.06920312567354 L0.816029963995927,246.30344579693403 L1.229941251388988,246.530740524438 L1.647626811717691,246.75102266097062 L2.0689678467660038,246.96422955383971 L2.493844518627,247.1703005626954 L2.9221359837871717,247.36917707677748 L3.3537204274967802,247.5608025315854 L3.7884750984164217,247.74512242496652 L4.226276343529996,247.92208433261754 L4.6669996433141225,248.09163792299495 L5.110519647154009,248.25373497163048 L5.556710208995694,248.40832937484703 L6.005444423224549,248.55537716287148 L6.456594660759791,248.69483651234071 L6.910032605354764,248.82666775819678 L7.365629290092694,248.95083340496868 L7.8232551340674705,249.06729813743672 L8.28277997923908,249.1760288306769 L8.744073127453188,249.27699455948226 L9.207003377614328,249.3701666071587 L9.67143906300215,249.45551847369262 L10.1372480887201,249.53302588328793 L10.604297969265867,249.60266679127068 L11.072455866212954,249.66442139035902 L11.541588625992595,249.7182721162967 L12.011562817765341,249.76420365284878 L12.482244771371462,249.80220293615784 L12.95350061534947,249.83225915845966 L13.425196315011844,249.85436377115707 L13.897197710567221,249.86851048725143 L14.36937055527815,249.87469528313073 L14.841580553643569,249.872916399714 L15.313693399595168,249.86317434295165 L15.785574814696748,249.84547188368154 L16.25709058633572,249.8198140568409 L16.72810660589589,249.78620816003428 L17.198488906900646,249.74466375145806 L17.668103703115758,249.69519264718176 L18.136817426600864,249.63780891778737 L18.604496765698894,249.57252888436744 L19.071008702952618,249.499371113883 L19.536220552937483,249.41835641388266 L20.00000000000002,249.32950782658472 " />
			<path d="M20.0,72.35000000000002 L18.0,72.35000000000002 " />
			<path d="M20.0,85.85000000000002 L18.0,85.85000000000002 " />
			<path d="M18.0,72.35000000000002 L18.0,85.85000000000002 " />
			<path d="M20.0,72.35000000000002 L18.0,72.35000000000002 " />
			<path d="M20.0,85.85000000000002 L18.0,85.85000000000002 " />
			<path d="M18.0,85.85000000000002 L18.0,72.35000000000002 " />
			<path d="M-8.881784197001252e-15,244.8878225126776 L0.39373689456242467,245.13125380838824 L0.7915595325145457,245.3679491539357 L1.1933526883567875,245.59783999279048 L1.5989999865672857,245.82085973928292 L2.008383935308915,246.03694379788914 L2.421385960459679,246.24602958194055 L2.837886439956554,246.44805653175143 L3.2577647384428765,246.64296613215956 L3.6808992422092164,246.8307019294744 L4.107167394417603,247.0112095478285 L4.5364457305989525,247.1844367049269 L4.968609914413349,247.35033322719022 L5.40353477366288,247.50885106428686 L5.841094336546547,247.65994430305048 L6.2811618681468016,247.80356918077814 L6.723609907137081,247.93968409790583 L7.168310302699758,248.0682496300574 L7.615134251643801,248.18922853946344 L8.063952335711367,248.3025857857468 L8.514634559062564,248.4082885360717 L8.96705038592749,248.50630617465347 L9.421068778414663,248.5966103116262 L9.87655823446489,248.67917479126538 L10.333386825939568,248.7539756995639 L10.791422236832407,248.82099137115836 L11.250531801593475,248.8802023956042 L11.710582543554516,248.93159162299787 L12.171441213444346,248.97514416894413 L12.632974327983234,249.010847418867 L13.095048208545045,249.03869103166375 L13.557529019875965,249.05866694269972 L14.020282808858601,249.07076936614453 L14.483175543310209,249.07499479664764 L14.946073150803826,249.07134201035376 L15.40884155750106,249.05981206525735 L15.871346726985287,249.040408300896 L16.333454699084005,249.01313633738337 L16.795031628669122,248.9780040737814 L17.25594382442389,248.9350216858121 L17.71605778756533,248.8842016229107 L18.17524025051085,248.82555860461943 L18.633358215477934,248.75910961632434 L19.090278993005658,248.68487390433555 L19.545870240386932,248.60287297031283 L20.00000000000027,248.51313056503776 " />
			<path d="M-1.7763568394002505e-15,197.92192086599306 L0.4060106742750289,197.68079687432652 L0.8160299639959305,197.44655420306603 L1.2299412513889934,197.21925947556207 L1.6476268117176964,196.99897733902944 L2.068967846766009,196.78577044616034 L2.4938445186270037,196.57969943730464 L2.922135983787177,196.38082292322258 L3.3537204274967856,196.18919746841465 L3.788475098416427,196.00487757503353 L4.226276343530001,195.8279156673825 L4.66699964331413,195.6583620770051 L5.110519647154012,195.49626502836958 L5.5567102089957,195.34167062515303 L6.0054444232245565,195.19462283712858 L6.456594660759796,195.05516348765934 L6.910032605354768,194.92333224180328 L7.3656292900926985,194.79916659503138 L7.823255134067476,194.68270186256333 L8.282779979239086,194.57397116932316 L8.744073127453193,194.4730054405178 L9.207003377614333,194.37983339284136 L9.671439063002156,194.29448152630744 L10.137248088720103,194.21697411671212 L10.604297969265872,194.14733320872938 L11.072455866212959,194.08557860964103 L11.5415886259926,194.03172788370335 L12.011562817765345,193.98579634715128 L12.482244771371468,193.94779706384222 L12.953500615349475,193.9177408415404 L13.42519631501185,193.895636228843 L13.897197710567227,193.88148951274863 L14.369370555278156,193.87530471686932 L14.841580553643574,193.87708360028606 L15.313693399595174,193.8868256570484 L15.785574814696753,193.90452811631852 L16.257090586335725,193.93018594315916 L16.728106605895892,193.96379183996578 L17.19848890690065,194.005336248542 L17.66810370311576,194.0548073528183 L18.136817426600867,194.1121910822127 L18.6044967656989,194.1774711156326 L19.071008702952625,194.25062888611706 L19.536220552937486,194.3316435861174 L20.00000000000003,194.42049217341534 " />
			<path d="M-5.329070518200751e-15,198.86217748732244 L0.39373689456242467,198.61874619161182 L0.7915595325145386,198.38205084606435 L1.1933526883567769,198.15216000720957 L1.5989999865672697,197.92914026071716 L2.0083839353088937,197.71305620211095 L2.4213859604596504,197.50397041805954 L2.8378864399565185,197.30194346824862 L3.2577647384428374,197.10703386784053 L3.68089924220917,196.91929807052568 L4.1071673944175515,196.73879045217157 L4.536445730598896,196.56556329507316 L4.968609914413285,196.39966677280987 L5.403534773662809,196.24114893571323 L5.8410943365464725,196.0900556969496 L6.28116186814672,195.94643081922197 L6.723609907136994,195.81031590209426 L7.168310302699664,195.68175036994268 L7.6151342516437,195.5607714605366 L8.06395233571126,195.44741421425329 L8.51463455906245,195.3417114639284 L8.96705038592737,195.2436938253466 L9.421068778414536,195.1533896883739 L9.876558234464756,195.07082520873468 L10.333386825939431,194.99602430043615 L10.791422236832261,194.92900862884173 L11.250531801593324,194.8697976043959 L11.710582543554358,194.81840837700219 L12.171441213444183,194.77485583105596 L12.632974327983064,194.73915258113306 L13.095048208544869,194.7113089683363 L13.557529019875782,194.69133305730034 L14.020282808858413,194.67923063385552 L14.483175543310015,194.6750052033524 L14.946073150803626,194.67865798964627 L15.408841557500853,194.6901879347427 L15.871346726985074,194.70959169910407 L16.333454699083788,194.73686366261666 L16.795031628668898,194.77199592621866 L17.25594382442366,194.81497831418793 L17.716057787565095,194.86579837708933 L18.17524025051061,194.9244413953806 L18.633358215477685,194.9908903836757 L19.09027899300541,195.06512609566445 L19.545870240386677,195.14712702968717 L20.000000000000007,195.23686943496224 " />

       </g>

       <!-- solid lines -->
       <g  stroke="rgb(0,0,0)" fill="none">
			<path d="M0.0,-186.875 L20.0,-186.875 " />
			<path d="M20.0,-186.875 L20.0,-66.57499999999999 " />
			<path d="M0.0,-186.875 L0.0,-66.57499999999999 " />
			<path d="M0.0,-66.575 L20.0,-66.575 " />
			<path d="M20.0,-31.575000000000003 L18.0,-31.575000000000003 " />
			<path d="M0.0,-31.575000000000003 L18.0,-31.575000000000003 " />
			<path d="M20.0,-31.575000000000003 L20.0,-31.35 " />
			<path d="M20.0,-31.35 L20.0,31.575000000000003 " />
			<path d="M18.0,-31.575000000000003 L18.0,-31.35 " />
			<path d="M0.0,31.575000000000003 L20.0,31.575000000000003 " />
			<path d="M20.0,-31.35 L18.0,-31.35 " />
			<path d="M0.0,-31.575000000000003 L0.0,31.575000000000003 " />
			<path d="M0.0,66.57500000000002 L20.0,66.57500000000002 " />
			<path d="M20.0,66.57500000000002 L20.0,256.875 " />
			<path d="M0.0,66.57500000000002 L0.0,256.875 " />
			<path d="M0.0,256.875 L20.0,256.875 " />
			<path d="M-12.7,221.87500000000003 L-12.696026081034777,222.3399359092134 L-12.684105485317932,222.8047359641895 L-12.66424169604663,223.2692643503876 L-12.636440517418578,223.7333853326486 L-12.600710072936057,224.1969632948568 L-12.557060803032229,224.6598627795669 L-12.505505462020437,225.12194852758472 L-12.4460591143674,225.58308551748982 L-12.378739130291386,226.04313900508885 L-12.303565180686611,226.50197456278772 L-12.220559231375436,226.9594581188714 L-12.129745536689931,227.4154559966796 L-12.031150632384772,227.86983495366712 L-11.924803327883502,228.32246222033734 L-11.8107346978604,228.77320553903732 L-11.68897807316048,229.22193320260365 L-11.559569031060214,229.6685140928472 L-11.42254538487186,230.11281771886578 L-11.277947172894404,230.5547142551737 L-11.125816646714387,230.9940745796367 L-10.96619825885999,231.43077031120134 L-10.799138649811987,231.8646738474081 L-10.624686634375436,232.29565840167677 L-10.44289318741598,232.72359804035332 L-10.25381142896498,233.14836771950792 L-10.057496608697871,233.56984332147263 L-9.8540060897902,233.98790169110865 L-9.643399332156111,234.40242067179213 L-9.425737875074155,234.81327914110847 L-9.201085319205532,235.22035704624423 L-8.969507308009977,235.62353543906647 L-8.731071508564735,236.0226965108795 L-8.485847591792268,236.41772362684853 L-8.233907212102395,236.80850136008027 L-7.975323986454892,237.19491552535086 L-7.7101734728486235,237.57685321247055 L-7.438533148243486,237.9542028192763 L-7.160482385921664,238.32685408424163 L-6.876102432294747,238.69469811869533 L-6.585476383163556,239.05762743863852 L-6.288689159437521,239.41553599615148 L-5.985827482320847,239.76831921038098 L-5.676979847972532,240.11587399809864 L-5.362236501647846,240.45809880382197 L-5.041689411328626,240.7948936294887 L-4.7154322408502765,241.12616006367648 L-4.383560322533192,241.4518013103584 L-4.0461706293266495,241.771722217187 L-3.7033617464733375,242.08582930329757 L-3.355233842702738,242.39403078662352 L-3.0018886409618446,242.69623661071483 L-2.643429388691729,242.9923584710527 L-2.2799608276586163,243.28230984085212 L-1.911589163348399,243.5660059963448 L-1.538422033933351,243.84336404153578 L-1.1605684788203021,244.11430293242532 L-0.7781389067892999,244.37874350069012 L-0.3912450637321978,244.63660847681624 L-5.009326287108706e-13,244.8878225126773 " />
			<path d="M20.000000000000014,248.5131305650378 L20.454415850568893,248.4152511645707 L20.907092682839608,248.3096205449124 L21.35789829017523,248.196269556038 L21.80670101243986,248.07523130269678 L22.253369774450668,247.94654113474377 L22.697774124259077,247.81023663681574 L23.13978427124993,247.66635761735438 L23.579271124047537,247.51494609697997 L24.016106328217482,247.3560462962191 L24.45016230375319,247.18970462258983 L24.881312282336353,247.01596965704812 L25.309430344360273,246.8348921397995 L25.73439145570535,246.64652495548015 L26.15607150425594,246.45092311771165 L26.574347336147945,246.24814375303396 L26.98909679173657,246.03824608422133 L27.40019874127364,245.82129141298591 L27.807533120284234,245.59734310207446 L28.21098096463208,245.36646655676265 L28.610424445263714,245.12872920575333 L29.005746902621027,244.88420048148353 L29.396832880712317,244.63295179984635 L29.783568160831813,244.37505653933363 L30.16583979491786,244.11059001960527 L30.54353613853996,243.83962947949186 L30.916546883505138,243.56225405443666 L31.284763090074012,243.2785447533835 L31.648077218777228,242.98858443511796 L32.00638316182291,242.69245778406778 L32.35957627408601,242.39025128557057 L32.70755340367046,242.08205320061512 L33.050212922035186,241.76795354006438 L33.38745475367534,241.44804403836736 L33.71918040534979,241.12241812676754 L34.04529299484661,240.79117090601585 L34.36569727927809,240.45439911859597 L34.68029968289682,240.11220112047008 L34.989008324425086,239.76467685235372 L35.29173304388918,239.41192781052735 L35.58838542895117,239.05405701719394 L35.87887884073013,238.69116899039082 L36.16312843910551,238.3233697134646 L36.44105120749512,237.95076660411806 L36.71256597710058,237.57346848303854 L36.977593450613064,237.19158554211603 L37.2360562253725,236.80522931226113 L37.487878815973446,236.4145126308319 L37.73298767631097,236.01954960867909 L37.971311221060176,235.62045559681945 L38.20277984658311,235.21734715274692 L38.427325951256805,234.81034200639138 L38.64488395521674,234.3995590257349 L38.855390319509766,233.98511818209596 L39.058783564650966,233.5671405150909 L39.2550042885791,233.145748097284 L39.44399518400528,232.72106399853521 L39.625701055149825,232.29321225005728 L39.800068833862525,231.86231780819148 L39.96704759512144,231.4285065179137 L40.126588571905856,230.99190507608063 L40.27864516943889,230.55264099442732 L40.42317297879578,230.11084256232672 L40.56012978987377,229.6666388093221 L40.6894756037197,229.22015946744327 L40.81117264421201,228.7715349333176 L40.9251853690934,228.32089623008721 L41.03148048035113,227.8683749691428 L41.13002693394191,227.4141033116858 L41.22079594885845,226.95821393013023 L41.3037610155351,226.50083996935481 L41.37889790359014,226.04211500781747 L41.44618466890235,225.58217301854287 L41.50560166001991,225.1211483299951 L41.557131523899756,224.65917558684615 L41.600759210975575,224.19638971065237 L41.63647197955312,223.73292586044982 L41.664259399531524,223.26891939328047 L41.6841133554494,222.80450582466037 L41.69602804885507,222.33982078900172 L41.7,221.87500000000003 " />
			<path d="M-12.7,221.87500000000003 L-12.696026081034777,221.41006409078662 L-12.684105485317932,220.94526403581054 L-12.664241696046627,220.48073564961243 L-12.636440517418574,220.0166146673514 L-12.600710072936053,219.5530367051432 L-12.557060803032222,219.0901372204331 L-12.505505462020427,218.62805147241528 L-12.44605911436739,218.16691448251018 L-12.378739130291368,217.70686099491112 L-12.303565180686594,217.24802543721225 L-12.220559231375415,216.79054188112855 L-12.129745536689907,216.33454400332033 L-12.031150632384747,215.8801650463328 L-11.92480332788347,215.42753777966257 L-11.810734697860362,214.9767944609626 L-11.688978073160438,214.52806679739624 L-11.559569031060164,214.0814859071527 L-11.422545384871803,213.6371822811341 L-11.277947172894343,213.19528574482615 L-11.125816646714323,212.75592542036318 L-10.966198258859915,212.31922968879852 L-10.799138649811905,211.88532615259174 L-10.624686634375355,211.45434159832308 L-10.442893187415883,211.0264019596465 L-10.25381142896488,210.6016322804919 L-10.057496608697765,210.1801566785272 L-9.854006089790087,209.76209830889118 L-9.643399332155983,209.3475793282077 L-9.42573787507402,208.93672085889133 L-9.20108531920539,208.52964295375557 L-8.969507308009824,208.1264645609333 L-8.731071508564575,207.7273034891203 L-8.485847591792098,207.33227637315127 L-8.233907212102217,206.9414986399195 L-7.975323986454708,206.55508447464894 L-7.710173472848428,206.17314678752922 L-7.43853314824328,205.79579718072347 L-7.160482385921444,205.42314591575814 L-6.87610243229452,205.05530188130444 L-6.585476383163314,204.69237256136125 L-6.2886891594372685,204.33446400384827 L-5.985827482320584,203.9816807896188 L-5.676979847972262,203.6341260019011 L-5.362236501647558,203.2919011961778 L-5.041689411328328,202.95510637051103 L-4.715432240849971,202.62383993632326 L-4.3835603225328725,202.29819868964134 L-4.046170629326323,201.97827778281277 L-3.7033617464729964,201.66417069670217 L-3.3552338427023827,201.35596921337623 L-3.0018886409614787,201.0537633892849 L-2.6434293886913487,200.75764152894703 L-2.2799608276582255,200.46769015914765 L-1.911589163347994,200.18399400365493 L-1.5384220339329353,199.90663595846397 L-1.1605684788198722,199.63569706757443 L-0.7781389067888593,199.37125649930965 L-0.39124506373174484,199.1133915231835 L-3.019806626980426e-14,198.86217748732247 " />
			<path d="M20.000000000000014,195.23686943496224 L20.454415850568893,195.33474883542937 L20.907092682839604,195.44037945508765 L21.35789829017523,195.55373044396205 L21.80670101243986,195.67476869730328 L22.253369774450668,195.8034588652563 L22.697774124259073,195.9397633631843 L23.139784271249926,196.08364238264568 L23.579271124047537,196.2350539030201 L24.01610632821748,196.39395370378097 L24.45016230375319,196.56029537741023 L24.88131228233635,196.73403034295194 L25.309430344360273,196.91510786020055 L25.73439145570535,197.1034750445199 L26.156071504255937,197.2990768822884 L26.574347336147945,197.5018562469661 L26.989096791736564,197.71175391577873 L27.40019874127364,197.92870858701414 L27.807533120284234,198.1526568979256 L28.21098096463208,198.3835334432374 L28.61042444526371,198.62127079424673 L29.005746902621027,198.86579951851652 L29.396832880712317,199.1170482001537 L29.783568160831813,199.37494346066643 L30.165839794917858,199.6394099803948 L30.543536138539956,199.9103705205082 L30.916546883505134,200.1877459455634 L31.28476309007401,200.47145524661656 L31.648077218777225,200.7614155648821 L32.00638316182291,201.05754221593227 L32.35957627408601,201.3597487144295 L32.70755340367046,201.66794679938494 L33.050212922035186,201.98204645993567 L33.38745475367534,202.3019559616327 L33.71918040534979,202.62758187323251 L34.04529299484661,202.9588290939842 L34.36569727927809,203.29560088140408 L34.68029968289682,203.63779887952998 L34.989008324425086,203.98532314764634 L35.29173304388918,204.3380721894727 L35.58838542895117,204.69594298280612 L35.87887884073013,205.0588310096092 L36.16312843910551,205.42663028653547 L36.44105120749512,205.799233395882 L36.71256597710058,206.17653151696152 L36.977593450613064,206.55841445788403 L37.2360562253725,206.94477068773892 L37.487878815973446,207.33548736916816 L37.73298767631097,207.73045039132097 L37.971311221060176,208.1295444031806 L38.20277984658311,208.53265284725313 L38.427325951256805,208.93965799360868 L38.64488395521674,209.35044097426515 L38.855390319509766,209.7648818179041 L39.058783564650966,210.18285948490913 L39.2550042885791,210.60425190271604 L39.443995184005274,211.0289360014648 L39.625701055149825,211.45678774994278 L39.800068833862525,211.88768219180858 L39.96704759512144,212.32149348208637 L40.126588571905856,212.75809492391943 L40.27864516943889,213.19735900557274 L40.42317297879578,213.63915743767333 L40.56012978987377,214.08336119067795 L40.6894756037197,214.5298405325568 L40.81117264421201,214.97846506668245 L40.9251853690934,215.42910376991284 L41.03148048035113,215.88162503085726 L41.13002693394191,216.33589668831425 L41.22079594885845,216.79178606986983 L41.3037610155351,217.24916003064524 L41.37889790359014,217.70788499218258 L41.44618466890235,218.16782698145718 L41.505601660019906,218.62885167000496 L41.557131523899756,219.0908244131539 L41.600759210975575,219.5536102893477 L41.63647197955312,220.01707413955023 L41.664259399531524,220.4810806067196 L41.6841133554494,220.9454941753397 L41.69602804885507,221.41017921099834 L41.7,221.87500000000003 " />

       </g>
    </g>
    
</svg>
