<?xml version="1.0" encoding="UTF-8" standalone="no"?>
<svg
   xmlns:svg="http://www.w3.org/2000/svg"
   xmlns="http://www.w3.org/2000/svg"
   width="800.0"
   height="600.0"

>
    <g transform="scale(1.5891527997450265, -1.5891527997450265)   translate(244.9918757333541,-102.63949556748233)" stroke-width="0.6292661096909284"  fill="none">
       <!-- hidden lines -->
       <g  stroke="rgb(160,160,160)" fill="none" stroke-dasharray="0.6292661096909284,0.6292661096909284" >
			<path d="M100.25006390272277,-54.67703185524979 L100.25006390272277,-73.53321268689106 " />
			<path d="M164.03109556574935,-33.416687967574255 L100.25006390272277,-54.67703185524979 " />
			<path d="M100.25006390272277,-54.67703185524979 L15.185118125981106,-26.322049929669227 " />
			<path d="M15.18511812598111,-26.32204992966923 L15.18511812598111,-28.67907253362439 " />
			<path d="M51.38898532273234,-14.254094197418821 L15.185118125981102,-26.322049929669234 " />
			<path d="M109.79600544874117,-67.62887106398338 L109.79600544874117,-65.74325298081925 " />
			<path d="M100.25006390272279,-64.44689054864392 L100.25006390272279,-62.561272465479796 " />
			<path d="M109.79600544874117,-65.74325298081926 L100.25006390272277,-62.5612724654798 " />
			<path d="M90.70412235670439,-67.62887106398338 L90.70412235670439,-65.74325298081925 " />
			<path d="M100.25006390272279,-62.5612724654798 L90.70412235670439,-65.74325298081926 " />
			<path d="M90.70412235670439,-65.74325298081926 L93.53254948145057,-66.68606202240133 " />
			<path d="M106.967578323995,-66.68606202240132 L109.79600544874118,-65.74325298081926 " />
			<path d="M0.15909902576697277,-33.687745567029104 L0.15909902576697274,-31.80212748386498 " />
			<path d="M-6.735192090801865,-34.100224522721255 L0.15909902576697316,-31.802127483864975 " />
			<path d="M-6.735192090801864,-17.129661774244116 L-6.735192090801864,-34.100224522721255 " />
			<path d="M51.38898532273234,2.2450640302672884 L-6.7351920908018625,-17.129661774244113 " />
			<path d="M-1.4418520011400683e-15,-33.634712558440114 L-1.461413963531087e-15,-31.74909447527599 " />
			<path d="M0.15909902576697155,-31.80212748386498 L-2.4226210424371823e-15,-31.749094475275985 " />
			<path d="M-6.735192090801865,-34.100224522721255 L-6.894291116568839,-34.047191514132265 " />
			<path d="M-1.461413963531087e-15,-31.749094475275985 L-6.894291116568839,-34.047191514132265 " />
			<path d="M-51.38898532273234,-2.2450640302672884 L-51.38898532273234,-4.602086634222441 " />
			<path d="M-6.894291116568839,-35.93280959729639 L-6.894291116568839,-34.047191514132265 " />
			<path d="M-6.735192090801864,-17.129661774244116 L-51.388985322732346,-2.2450640302672884 " />
			<path d="M-15.18511812598112,9.82289170198312 L-51.38898532273234,-2.245064030267286 " />
			<path d="M9.545941546018396,-18.856180831641268 L9.545941546018396,-16.970562748477143 " />
			<path d="M5.108893189235753e-15,-15.674200316301805 L5.089331226844734e-15,-13.788582233137678 " />
			<path d="M9.545941546018396,-16.970562748477143 L4.6828063151638195e-15,-13.788582233137678 " />
			<path d="M-9.545941546018385,-18.856180831641268 L-9.545941546018385,-16.970562748477143 " />
			<path d="M5.089331226844734e-15,-13.788582233137678 L-9.545941546018385,-16.970562748477143 " />
			<path d="M-9.545941546018385,-16.970562748477143 L-6.717514421272196,-17.913371790059205 " />
			<path d="M6.717514421272209,-17.913371790059205 L9.545941546018396,-16.970562748477143 " />
			<path d="M2.810749455216525,-30.08150098297771 L2.810749455216525,-28.195882899813583 " />
			<path d="M-6.735192090801866,-26.899520467638247 L-6.735192090801866,-25.01390238447412 " />
			<path d="M2.810749455216525,-28.195882899813583 L-6.735192090801866,-25.013902384474118 " />
			<path d="M-0.017677669529664094,-29.138691941395646 L2.810749455216523,-28.195882899813583 " />
			<path d="M-16.281133636820257,-30.08150098297771 L-16.281133636820257,-28.195882899813583 " />
			<path d="M-6.735192090801866,-25.013902384474118 L-16.281133636820257,-28.195882899813583 " />
			<path d="M-16.281133636820257,-28.195882899813583 L-13.452706512074066,-29.138691941395646 " />
			<path d="M-78.9661497890077,5.061706041993707 L-78.9661497890077,-13.79447478964756 " />
			<path d="M-15.185118125981118,26.322049929669234 L-78.9661497890077,5.061706041993703 " />
			<path d="M-153.55142626256156,11.067284034870402 L-184.69310251802347,21.447842786691034 " />
			<path d="M-188.20319929966905,28.651271773626085 L-188.0245365724284,28.484708554050787 L-187.8362491460204,28.31932752255774 L-187.63840736690713,28.15519046750246 L-187.43108515117234,27.99235871247582 L-187.21435995690578,27.83089309339279 L-186.98831275526373,27.67085393576341 L-186.75302800021737,27.512301032154465 L-186.5085935969996,27.35529361985023 L-186.25510086926263,27.199890358720726 L-185.99264452495845,27.046149309305676 L-185.72132262095468,26.894127911122375 L-185.44123652639936,26.74388296120561 L-185.1524908848482,26.59547059288758 L-184.85519357516856,26.44894625482582 L-184.5494556712345,26.304364690286903 L-184.2353914004283,26.16177991669369 L-183.91311810096371,26.02124520544377 L-183.58275617804694,25.882813062006626 L-183.24442905889185,25.74653520630696 L-182.89826314660607,25.61246255340147 L-182.54438777296525,25.480645194456418 L-182.18293515009304,25.35113237803293 L-181.81404032106528,25.223972491687142 L-181.43784110945603,25.099213043892036 L-181.05447806784514,24.976900646287685 L-180.66409442530608,24.857080996266586 L-180.26683603389378,24.739798859900564 L-179.86285131415266,24.62509805521562 L-179.45229119966473,24.513021435820992 L-179.0353090806592,24.40361087489852 L-178.6120607467038,24.296907249558323 L-178.1827043285001,24.19295042556662 L-177.7474002388039,24.091779242451388 L-177.30631111249298,23.993431498991452 L-176.85960174580492,23.897943939094397 L-176.40743903476715,23.8053522380686 L-175.94999191284253,23.715690989294515 L-175.4874312878138,23.62899369130015 L-175.0199299779304,23.54529273524562 L-174.5476626473414,23.464619392821422 L-174.07080574083895,23.38700380456494 L-173.5895374179363,23.312474968599588 L-173.1040374863053,23.24106072980075 L-172.61448733459798,23.172787769392613 L-172.12106986467768,23.10768159497971 L-171.62396942328468,23.045766531017 L-171.1233717331619,22.987065709721954 L-170.6194638236668,22.931601062432044 L-170.11243396089478,22.879393311410983 L-169.6024715773409,22.83046196210659 L-169.08976720112543,22.784825295863342 L-168.57451238481028,22.742500363092248 L-168.05689963383261,22.70350297690058 L-167.53712233458265,22.667847707183945 L-167.01537468215196,22.63554787518276 L-166.49185160777995,22.60661554850528 L-165.96674870602513,22.58106153661904 L-165.44026216168865,22.558895386812228 L-164.91258867651732,22.54012538062677 L-164.38392539571336,22.52475853076421 L-163.85446983427866,22.512800578465686 L-163.32441980322076,22.504255991366957 L-162.7939733356482,22.4991279618292 L-162.263328612783,22.49741840574633 L-161.7326838899178,22.4991279618292 L-161.20223742234523,22.504255991366957 L-160.6721873912873,22.512800578465686 L-160.14273182985264,22.52475853076421 L-159.61406854904868,22.54012538062677 L-159.08639506387735,22.558895386812228 L-158.5599085195409,22.58106153661904 L-158.03480561778605,22.606615548505285 L-157.51128254341404,22.63554787518276 L-156.98953489098335,22.667847707183945 L-156.46975759173338,22.70350297690058 L-155.95214484075572,22.742500363092248 L-155.43689002444057,22.784825295863342 L-154.9241856482251,22.83046196210659 L-154.41422326467122,22.87939331141098 L-153.9071934018992,22.931601062432044 L-153.4032854924041,22.987065709721954 L-152.90268780228132,23.045766531017 L-152.40558736088832,23.10768159497971 L-151.91216989096802,23.172787769392613 L-151.4226197392607,23.24106072980075 L-150.9371198076297,23.312474968599588 L-150.45585148472705,23.38700380456494 L-149.9789945782246,23.464619392821422 L-149.5067272476356,23.54529273524562 L-149.0392259377522,23.62899369130015 L-148.57666531272346,23.715690989294515 L-148.11921819079885,23.8053522380686 L-147.66705547976107,23.897943939094397 L-147.22034611307302,23.993431498991452 L-146.7792569867621,24.09177924245139 L-146.34395289706586,24.19295042556662 L-145.91459647886217,24.296907249558327 L-145.4913481449068,24.403610874898522 L-145.07436602590124,24.513021435820995 L-144.66380591141333,24.625098055215624 L-144.2598211916722,24.739798859900567 L-143.86256280025992,24.85708099626659 L-143.47217915772086,24.976900646287685 L-143.08881611610997,25.09921304389204 L-142.7126169045007,25.223972491687146 L-142.34372207547295,25.35113237803293 L-141.98226945260075,25.480645194456418 L-141.62839407895993,25.61246255340147 L-141.28222816667414,25.74653520630696 L-140.94390104751906,25.88281306200663 L-140.61353912460228,26.02124520544377 L-140.29126582513769,26.161779916693693 L-139.9772015543315,26.304364690286906 L-139.6714636503974,26.448946254825824 L-139.37416634071778,26.595470592887587 L-139.08542069916663,26.743882961205614 L-138.8053346046113,26.89412791112238 L-138.53401270060752,27.04614930930568 L-138.27155635630336,27.19989035872073 L-138.0180636285664,27.355293619850233 L-137.77362922534863,27.51230103215447 L-137.53834447030226,27.670853935763414 L-137.31229726866022,27.830893093392792 L-137.09557207439366,27.992358712475824 L-136.88824985865887,28.155190467502464 L-136.6904080795456,28.319327522557742 L-136.5021206531376,28.48470855405079 L-136.32345792589697,28.651271773626053 " />
			<path d="M-78.9661497890077,5.061706041993707 L-213.52857024880768,49.91584619526037 " />
			<path d="M-179.20071329873733,56.15089674156727 L-179.49955477758672,56.04949348300683 L-179.79293324192534,55.946332931888506 L-180.08075570557432,55.84144778490487 L-180.36293094332694,55.734871285358395 L-180.63936951986233,55.62663721262501 L-180.9099838180918,55.516779871447795 L-181.17468806692935,55.40533408106404 L-181.4333983684765,55.29233516416934 L-181.68603272461382,55.17781893572207 L-181.93251106299022,55.061821691591874 L-182.1727552624017,54.94438019705565 L-182.4066891775521,54.825531675144866 L-182.634238663187,54.705313794847704 L-182.85533159759427,54.583764659169915 L-183.06989790546294,54.46092279305805 L-183.2778695800935,54.33682713118905 L-183.4791807049526,54.21151700562985 L-183.67376747456532,54.085032133371165 L-183.8615682147383,53.95741260373915 L-184.04252340210724,53.828698865689134 L-184.21657568300287,53.69893171498535 L-184.38366989162924,53.568152281270706 L-184.5437530675484,53.43640201503077 L-184.6967744724662,53.3037226744561 L-184.84268560631378,53.17015631220693 L-184.9814402226197,53.03574526208463 L-185.11299434316766,52.900532125614085 L-185.23730627193544,52.76455975854104 L-185.35433660831035,52.62787125724908 L-185.46404825957734,52.49050994510024 L-185.5664064526755,52.35251935870366 L-185.6613787452192,52.21394323411672 " />
			<path d="M-185.66137874521925,52.213943234116655 L-185.73064813021642,52.10492526243149 L-185.7953462445262,51.995595656267504 L-185.8554604854057,51.885975712271865 L-185.91097914301872,51.77608678364752 L-185.9618914027168,51.665950275993794 L-186.00818734714568,51.555587643136654 L-186.04985795817723,51.4450203829497 L-186.08689511866618,51.3342700331665 L-186.1192916140311,51.223358167185204 L-186.14704113366003,51.11230638986621 L-186.17013827213935,51.001136333323664 L-186.18857853030715,50.88986965271167 L-186.20235831612933,50.77852802200604 L-186.21147494539943,50.66713312978235 L-186.2159266422614,50.55570667499114 L-186.21571253955565,50.44427036273111 L-186.21083267898794,50.33284590002114 L-186.20128801112114,50.22145499157191 L-186.1870803951902,50.11011933555794 L-186.16821259873996,49.99886061939097 L-186.14468829708596,49.88770051549538 L-186.11651207259862,49.7766606770866 L-186.0836894138106,49.66576273395315 L-186.04622671434757,49.55502828824333 L-186.00413127168298,49.4444789102573 L-185.95741128571638,49.33413613424532 L-185.90607585717623,49.224021454212995 L-185.85013498584712,49.11415631973443 L-185.78959956862184,49.004562131774 L-185.72448139737878,48.89526023851758 L-185.65479315668497,48.78627193121404 L-185.58054842132523,48.67761844002794 L-185.50176165365784,48.569320929903945 L-185.41844820079731,48.46140049644409 L-185.3306242916251,48.35387816179853 L-185.2383070336281,48.24677487057048 L-185.14151440956633,48.14011148573647 L-185.04026527397002,48.033908784582295 L-184.93457934946687,47.92818745465576 L-184.8244772229402,47.822968089736925 L-184.70998034151876,47.71827118582655 L-184.59111100839905,47.61411713715362 L-184.46789237850072,47.51052623220269 L-184.34034845395618,47.40751864976184 L-184.20850407943524,47.30511445499197 L-184.0723849373054,47.20333359551828 L-183.93201754262918,47.10219589754457 L-183.78742923799916,47.00172106199123 L-183.63864818821187,46.90192866065772 L-183.48570337478145,46.80283813240999 L-183.32862459029414,46.70446877939404 L-183.16744243260513,46.60683976327593 L-183.00218829887814,46.50997010150923 L-182.83289437946948,46.4138786636306 L-182.65959365165767,46.318584167584056 L-182.4823198732196,46.22410517607489 L-182.30110757585484,46.13046009295381 L-182.11599205845909,46.03766715963194 L-181.9270093802481,45.94574445152756 L-181.7341963537337,45.85470987454511 L-181.53759053755294,45.76458116158729 L-181.33723022915194,45.67537586910076 L-181.1331544573258,45.58711137365633 L-180.925402974616,45.49980486856403 L-180.71401624956704,45.41347336052407 L-180.4990354588433,45.32813366631402 L-180.2805024792082,45.24380240951297 L-180.0584598793668,45.160496017263455 L-179.83295091167383,45.0782307170715 L-179.60401950370837,44.99702253364564 L-179.37171024971707,44.91688728577542 L-179.1360684019275,44.83784058324997 L-178.8971398617333,44.759897823817404 L-178.65497117075302,44.68307419018535 L-178.40960950176395,44.60738464706354 L-178.16110264951337,44.532843938248746 L-177.65484762808651,44.387266876974216 L-177.13660054709683,44.24645643043564 L-176.60676519059302,44.11052230887411 L-176.06575437144608,43.97957042321894 L-175.51398960971267,43.85370280256881 L-174.95190080421438,43.733017514697444 L-174.37992589758886,43.6176085896456 L-173.79851053507372,43.507565946459096 L-173.2081077172891,43.402975323129745 L-172.6091774472892,43.30391820979399 L-172.00218637215838,43.21047178524116 L-171.38760741943028,43.122708856780775 L-170.76591942861384,43.04069780351594 L-170.13760677811305,42.964502523066784 L-169.5031590078311,42.89418238178571 L-168.86307043775312,42.82979216850296 L-168.21783978280453,42.77138205183882 L-167.56796976428515,42.71899754111549 L-166.9139667181819,42.67267945089924 L-166.256340200665,42.63246386920035 L-165.59560259107525,42.59838212935577 L-164.93226869271197,42.57046078561616 L-164.26685533173188,42.54872159245662 L-163.5998809544723,42.53318148762704 L-162.93186522351172,42.52385257895526 L-162.263328612783,42.520742134913505 L-161.5947920020543,42.52385257895526 L-160.92677627109373,42.53318148762704 L-160.25980189383415,42.54872159245662 L-159.59438853285405,42.570460785616156 L-158.93105463449078,42.59838212935577 L-158.27031702490106,42.63246386920035 L-157.61269050738417,42.67267945089923 L-156.9586874612809,42.718997541115485 L-156.30881744276152,42.77138205183881 L-155.66358678781293,42.829792168502955 L-155.02349821773498,42.894182381785704 L-154.389050447453,42.96450252306678 L-153.76073779695218,43.04069780351593 L-153.13904980613577,43.12270885678077 L-152.52447085340768,43.210471785241154 L-151.91747977827683,43.30391820979399 L-151.3185495082769,43.40297532312974 L-150.72814669049228,43.50756594645909 L-150.14673132797716,43.6176085896456 L-149.57475642135165,43.73301751469744 L-149.01266761585333,43.85370280256881 L-148.46090285411992,43.97957042321893 L-147.919892034973,44.1105223088741 L-147.39005667846916,44.246456430435636 L-146.87180959747948,44.387266876974216 L-146.36555457605263,44.53284393824874 L-146.11704772380207,44.60738464706354 L-145.871686054813,44.683074190185344 L-145.62951736383272,44.7598978238174 L-145.39058882363852,44.83784058324997 L-145.15494697584893,44.91688728577542 L-144.92263772185763,44.99702253364564 L-144.6937063138922,45.07823071707149 L-144.46819734619922,45.16049601726345 L-144.2461547463578,45.243802409512966 L-144.02762176672272,45.328133666314 L-143.81264097599896,45.413473360524065 L-143.60125425095,45.49980486856402 L-143.3935027682402,45.58711137365633 L-143.18942699641406,45.67537586910077 L-142.98906668801308,45.76458116158728 L-142.7924608718323,45.8547098745451 L-142.59964784531792,45.94574445152755 L-142.41066516710694,46.03766715963193 L-142.22554964971116,46.130460092953804 L-142.04433735234642,46.224105176074886 L-141.86706357390835,46.31858416758405 L-141.69376284609652,46.413878663630605 L-141.52446892668786,46.50997010150923 L-141.35921479296087,46.60683976327592 L-141.19803263527186,46.70446877939404 L-141.04095385078458,46.80283813240998 L-140.88800903735412,46.90192866065771 L-140.73922798756684,47.00172106199123 L-140.59463968293682,47.10219589754457 L-140.4542722882606,47.20333359551829 L-140.31815314613078,47.30511445499197 L-140.18630877160982,47.40751864976184 L-140.05876484706528,47.51052623220269 L-139.93554621716697,47.61411713715361 L-139.81667688404724,47.718271185826545 L-139.7021800026258,47.822968089736925 L-139.59207787609913,47.928187454655756 L-139.48639195159598,48.033908784582295 L-139.38514281599967,48.14011148573647 L-139.2883501919379,48.24677487057048 L-139.1960329339409,48.35387816179853 L-139.10820902476868,48.461400496444085 L-139.02489557190816,48.56932092990394 L-138.94610880424074,48.67761844002794 L-138.87186406888102,48.78627193121405 L-138.80217582818722,48.89526023851759 L-138.73705765694416,49.00456213177401 L-138.67652223971888,49.11415631973444 L-138.62058136838976,49.22402145421301 L-138.56924593984962,49.33413613424533 L-138.52252595388302,49.44447891025731 L-138.48043051121843,49.55502828824334 L-138.4429678117554,49.66576273395316 L-138.41014515296737,49.77666067708662 L-138.38196892848003,49.88770051549539 L-138.35844462682604,49.998860619390975 L-138.3395768303758,50.110119335557954 L-138.32536921444486,50.22145499157192 L-138.31582454657806,50.332845900021155 L-138.31094468601034,50.44427036273112 L-138.3107305833046,50.55570667499115 L-138.31518228016657,50.66713312978237 L-138.32429890943666,50.77852802200605 L-138.33807869525884,50.88986965271168 L-138.35651895342664,51.00113633332368 L-138.37961609190597,51.11230638986621 L-138.40736561153489,51.22335816718521 L-138.43976210689985,51.334270033166504 L-138.47679926738877,51.4450203829497 L-138.51846987842035,51.55558764313666 L-138.5647658228492,51.6659502759938 L-138.61567808254728,51.776086783647514 L-138.6711967401603,51.88597571227186 L-138.7313109810398,51.99559565626751 L-138.79600909534955,52.104925262431486 L-138.86527848034666,52.213943234116506 " />
			<path d="M-138.86527848034675,52.21394323411665 L-138.95427521043703,52.344124215957336 L-139.04979011510707,52.47379093114571 L-139.15179648444234,52.60290711950971 L-139.2602657932466,52.73143667482734 L-139.37516770901857,52.859343654923435 L-139.49647010043427,52.986592291720605 L-139.62413904633226,53.11314700124143 L-139.7581388451993,53.23897239355925 L-139.8984320251541,53.36403328269463 L-140.0449793544259,53.48829469645481 L-140.19773985232536,53.61172188621339 L-140.35667080070445,53.734280336627485 L-140.52172775590213,53.85593577528961 L-140.6928645611728,53.976654182311705 L-140.87003335959338,54.09640179983846 L-141.05318460744635,54.21514514148744 L-141.2422670880741,54.33285100171324 L-141.4372279262012,54.44948646509314 L-141.63801260272047,54.5650189155316 L-141.84456496993897,54.67941604538111 L-142.05682726727903,54.792645864476675 L-142.27474013743054,54.90467670908165 L-142.49824264294978,55.0154772507422 L-142.72727228329987,55.12501650504804 L-142.96176501232875,55.233263840296935 L-143.20165525617898,55.34018898606063 L-143.44687593162485,55.44576204164969 L-143.69735846483172,55.549953484474926 L-143.95303281053216,55.652734178303234 L-144.21382747161334,55.75407538140519 L-144.47966951911064,55.85394875459247 L-144.7504846126016,55.95232636914266 L-145.02619702099472,56.04918071460927 L-145.3067296437067,56.144484706514795 L-145.5920040322232,56.23821169392465 L-145.88194041203622,56.33033546689987 L-146.17645770495233,56.420830263826524 L-146.47547355176548,56.50967077861968 L-146.77890433528802,56.596832167800066 L-147.08666520373362,56.682290057441314 L-147.3986700944452,56.766020549985925 L-147.7148317579617,56.848000230928015 L-148.03506178241653,56.92820617536097 L-148.35927061826143,57.00661595438822 L-148.68736760330785,57.08320764139525 L-149.0192609880802,57.15795981818122 L-149.35485796147253,57.230851580948354 L-149.69406467670254,57.30186254614754 L-150.0367862775549,57.370972856178355 L-150.38292692490703,57.43816318494214 L-150.7323898235296,57.503414743246324 L-151.08507724915458,57.566709284058675 L-151.44089057580297,57.62802910760993 L-151.7997303033646,57.68735706634338 L-152.16149608542256,57.74467656971004 L-152.52608675731418,57.79997158880801 L-152.8934003644209,57.85322666086491 L-153.26333419067885,57.904426893561805 L-153.6357847873027,57.95355796919778 L-154.0106480017141,58.00060614869375 L-154.38781900666703,58.045558275434445 L-154.76719232956188,58.08840177894759 L-155.14866188193994,58.12912467841909 L-155.5321209891501,58.167715586043364 L-155.9174624201795,58.20416371020789 L-156.3045784176398,58.2384588585109 L-156.69336072790045,58.27059144061171 L-157.0837006313611,58.300552470912464 L-157.4754889728539,58.32833357107096 L-157.86861619216785,58.353926972343515 L-158.2629723546864,58.37732551775751 L-158.6584471821298,58.39852266411269 L-159.0549300833932,58.41751248381096 L-159.45231018547275,58.43428966651397 L-159.85047636447013,58.44884952062813 L-160.24931727666745,58.461187974616536 L-160.64872138966354,58.47130157813757 L-161.04857701356295,58.47918750300973 L-161.44877233220922,58.48484354400256 L-161.84919543445315,58.48826811945323 L-162.24973434544782,58.48946027170894 L-162.65027705796143,58.48841966739466 L-163.0507115636991,58.48514659750635 L-163.450925884625,58.479641977329614 L-163.85080810427618,58.47190734618373 L-164.2502463990588,58.461944866991196 L-164.64912906951884,58.449757325672905 L-165.04734457157778,58.43534813036905 L-165.444781547725,58.41872131048611 L-165.84132885815777,58.39988151557002 L-166.23687561186082,58.378834014006 L-166.6313111976158,58.35558469154528 L-167.0245253149328,58.33014004965919 L-167.41640800489506,58.302507203721106 L-167.8068496809079,58.272693881016686 L-168.19574115934364,58.240708418583 L-168.58297369007394,58.206559760877134 L-168.9684389868808,58.170257457274985 L-169.35202925773785,58.13181165940084 L-169.73363723495348,58.09123311828855 L-170.11315620516723,58.04853318137513 L-170.49048003919143,58.003723789327516 L-170.8655032216891,57.95681747270348 L-171.2381208806806,57.90782734844755 L-171.60822881687,57.856767116223 L-171.97572353278358,57.80365105458081 L-172.34050226171206,57.74849401696686 L-172.70246299644833,57.69131142756822 L-173.06150451781286,57.63211927699997 L-173.41752642295887,57.57093411783353 L-173.77042915344907,57.507773059967874 L-174.12011402309625,57.44265376584493 L-174.46648324556014,57.37559444551039 L-174.80943996169236,57.30661385152145 L-175.1488882666224,57.23573127370282 L-175.48473323657646,57.16296653375248 L-175.81688095542214,57.08833997969873 L-176.1452385409312,57.011872480210045 L-176.4697141707533,56.933585418759286 L-176.7902171080934,56.85350068764407 L-177.1066577270854,56.771640681864724 L-177.41894753785533,56.68802829286172 L-177.72699921126664,56.60268690211433 L-178.03072660334124,56.515640374602135 L-178.3300447793487,56.42691305213144 L-178.62487003755768,56.336529746528264 L-178.9151199326423,56.24451573269996 L-179.20071329873718,56.15089674156732 " />
			<path d="M-69.42020824298932,-7.890133166739887 L-69.42020824298932,-6.004515083575761 " />
			<path d="M-78.9661497890077,-4.708152651400424 L-78.9661497890077,-2.8225345682362977 " />
			<path d="M-69.42020824298932,-6.004515083575761 L-78.96614978900772,-2.822534568236297 " />
			<path d="M-72.2486353677355,-6.9473241251578255 L-69.4202082429893,-6.00451508357576 " />
			<path d="M-88.5120913350261,-7.890133166739887 L-88.5120913350261,-6.004515083575761 " />
			<path d="M-78.9661497890077,-2.8225345682362977 L-88.5120913350261,-6.004515083575762 " />
			<path d="M-88.5120913350261,-6.004515083575761 L-85.6836642102799,-6.9473241251578255 " />
			<path d="M-134.8777712877987,31.000739798520225 L-134.78343286619116,31.462655025175636 L-134.696885044604,31.926093142928202 L-134.61815235950078,32.390922766235455 L-134.5472571317398,32.8570121150606 L-134.484219460246,33.32422905223236 L-134.42905721631303,33.79244112090617 L-134.3817860385365,34.26151558211584 L-134.3424193283806,34.73131945240538 L-134.3109682463787,35.20171954152998 L-134.2874417089693,35.672582490215746 L-134.2718463859682,36.143774807967226 L-134.26418669867758,36.61516291091228 L-134.26446481863258,37.086613159673284 L-134.27268066698576,37.55799189725419 L-134.28883191452925,38.02916548693246 L-134.3129139823552,38.500000350145406 L-134.34492004315405,38.97036300435987 L-134.3848410231497,39.44012010091479 L-134.43266560467234,39.90913846282583 L-134.48838022936684,40.37728512254122 L-134.5519691020366,40.84442735963835 L-134.62341419512146,41.31043273845025 L-134.70269525380866,41.7751691456113 L-134.78978980177502,42.23850482751165 L-134.88467314755908,42.700308427649574 L-134.9873183915611,43.1604490238713 L-135.09769643366928,43.618796165487666 L-135.2157759815095,44.075219910257125 L-135.34152355931693,44.5295908612246 L-135.4749035174264,44.98178020340577 L-135.61587804237922,45.43165974030633 L-135.76440716764313,45.879101930265946 L-135.92044878494323,46.32397992261654 L-136.08395865619948,46.76616759364468 L-136.25489042606839,47.20553958234788 L-136.43319563508484,47.64197132597468 L-136.61882373340038,48.07533909533839 L-136.81172209511425,48.505520029894576 L-137.01183603319288,48.9323921725722 L-137.21910881497385,49.355834504348685 L-137.43348167824954,49.775726978559064 L-137.65489384792647,50.19195055492935 L-137.88328255325513,50.60438723332475 L-138.11858304562546,51.01292008720287 L-138.3607286169234,51.417433296762596 L-138.60965061844266,51.817812181779246 L-138.86527848034672,52.21394323411659 " />
			<path d="M-185.66137874521925,52.213943234116655 L-185.91700660712328,51.8178121817793 L-186.16592860864256,51.41743329676265 L-186.4080741799405,51.01292008720293 L-186.64337467231084,50.604387233324815 L-186.8717633776395,50.191950554929406 L-187.09317554731643,49.77572697855912 L-187.30754841059212,49.35583450434875 L-187.5148211923731,48.932392172572264 L-187.71493513045172,48.50552002989464 L-187.9078334921656,48.07533909533846 L-188.09346159048113,47.641971325974744 L-188.27176679949758,47.20553958234794 L-188.44269856936648,46.76616759364474 L-188.60620844062274,46.3239799226166 L-188.76225005792284,45.87910193026601 L-188.91077918318678,45.431659740306394 L-189.05175370813956,44.98178020340583 L-189.18513366624904,44.52959086122467 L-189.31088124405647,44.075219910257196 L-189.4289607918967,43.61879616548774 L-189.53933883400487,43.160449023871365 L-189.6419840780069,42.700308427649645 L-189.73686742379095,42.23850482751172 L-189.82396197175734,41.77516914561137 L-189.90324303044451,41.31043273845032 L-189.9746881235294,40.84442735963842 L-190.03827699619913,40.37728512254129 L-190.09399162089366,39.909138462825894 L-190.1418162024163,39.44012010091487 L-190.18173718241195,38.97036300435994 L-190.21374324321076,38.500000350145484 L-190.23782531103674,38.02916548693254 L-190.25397655858023,37.55799189725426 L-190.26219240693342,37.08661315967336 L-190.26247052688842,36.61516291091235 L-190.2548108395978,36.143774807967304 L-190.2392155165967,35.67258249021582 L-190.2156889791873,35.20171954153005 L-190.1842378971854,34.73131945240545 L-190.1448711870295,34.26151558211591 L-190.09760000925297,33.79244112090624 L-190.04243776532,33.32422905223244 L-189.9794000938262,32.85701211506067 L-189.90850486606524,32.39092276623553 L-189.829772180962,31.926093142928273 L-189.74322435937486,31.462655025175707 L-189.6488859377673,31.0007397985203 " />
			<path d="M-170.86472384844097,62.63855645028322 L-171.3022871176799,62.48855615518214 L-171.73723632042316,62.33113667052276 L-172.16944566937605,62.16634352201474 L-172.5987901696093,61.9942243678311 L-173.02514565470793,61.81482898482543 L-173.44838882268,61.628209254136465 L-173.86839727161552,61.43441914618404 L-174.28504953508525,61.23351470506087 L-174.69822511726852,61.02555403232455 L-175.10780452780094,60.81059727019466 L-175.51366931633072,60.588706584159574 L-175.91570210677466,60.35994614499822 L-176.31378663126333,60.12438211022193 L-176.70780776376557,59.882082604941616 L-177.09765155338317,59.633117702166075 L-177.48320525730526,59.3775594025368 L-177.86435737341364,59.11548161350546 L-178.24099767252912,58.84696012795982 L-178.6130172302899,58.57207260230448 L-178.9803084586524,58.29089853400261 L-179.34276513700567,58.0035192385853 L-179.70028244289057,57.71001782613513 L-180.05275698231426,57.41047917725069 L-180.40008681965176,57.10498991849919 L-180.74217150712585,56.79363839736398 L-181.07891211385635,56.47651465669448 L-181.41021125447116,56.153710408665845 L-181.73597311726994,55.82531900825575 L-182.05610349193293,55.49143542624613 L-182.37050979676658,55.15215622175769 L-182.67910110547805,54.80757951432496 L-182.98178817347127,54.45780495552013 L-183.27848346365633,54.10293370013384 L-183.56910117176534,53.74306837692122 L-183.85355725116682,53.37831305892165 L-184.13176943717224,53.008773233360806 L-184.40365727082673,52.63455577114382 L-184.66914212217793,52.25576889594819 L-184.92814721301576,51.87252215292547 L-185.18059763907672,51.484926377020855 L-185.426420391706,51.093093660919706 L-185.66554437897184,50.69713732263034 L-185.8979004462252,50.29717187271247 L-186.1234213960992,49.89331298116076 L-186.34204200794272,49.48567744395307 L-186.5536990566822,49.07438314927305 L-186.75833133110626,48.65954904341688 L-186.95587965156798,48.241295096394026 L-187.14628688709976,47.8197422672319 L-187.3294979719355,47.39501246899453 L-187.50545992143557,46.967228533525265 L-187.67412184741016,46.53651417592386 L-187.8354349728359,46.102993958768046 L-187.98935264596238,45.66679325609005 L-188.13583035380367,45.22803821711842 L-188.27482573501163,44.786855729795654 L-188.40629859212666,44.343373384082255 L-188.5302109032029,43.897719435057695 L-188.6465268328042,43.45002276582904 L-188.75521274236758,43.000412850257966 L-188.85623719993166,42.54901971551695 L-188.94957098922674,42.09597390448536 L-189.03518711812407,41.64140643799652 L-189.11306082644205,41.18544877694645 L-189.18316959310684,40.72823278427539 L-189.2454931426655,40.26989068683304 L-189.30001345114962,39.81055503713857 L-189.34671475128778,39.350358675046415 L-189.38558353706557,38.88943468932902 L-189.4166085676314,38.427916379187565 L-189.43978087054757,37.9659372157018 L-189.45509374438478,37.50363080323027 L-189.46254276066045,37.04113084077193 L-189.46212576511934,36.57857108330035 L-189.4538428783565,36.116085303081846 L-189.43769649578257,35.6538072509885 L-189.41369128693083,35.19187061781742 L-189.38183419410683,34.7304089956274 L-189.34213443038078,34.26955583910405 L-189.294603476923,33.80944442696473 L-189.23925507968363,33.35020782341436 " />
			<path d="M-135.28740214588237,33.35020782341438 L-135.23168798284357,33.81271476457712 L-135.18390299163673,34.27610804592914 L-135.14406118899916,34.740251740650315 L-135.1121742616984,35.2050097018023 L-135.08825156310405,35.67024560226441 L-135.0723001104442,36.13582297472238 L-135.064324582747,36.60160525169821 L-135.06432731946833,37.06745580560938 L-135.07230831980547,37.533237988845755 L-135.08826524269722,37.99881517385234 L-135.11219340751086,38.46405079320611 L-135.14408579541487,38.928808379675246 L-135.18393305143786,39.39295160624897 L-135.23172348721275,39.85634432612626 L-135.2874430844051,40.3188506126517 L-135.35107549882537,40.78033479918671 L-135.4226020652228,41.240661518904595 L-135.50200180276082,41.69969574449755 L-135.58925142117116,42.157302827784164 L-135.68432532758555,42.61334853920566 L-135.787195634043,43.06769910719934 L-135.89783216567,43.52022125743773 L-136.01620246953178,43.97078225192184 L-136.14227182415166,44.41924992791706 L-136.27600324969595,44.86549273672043 L-136.41735751882115,45.30937978224769 L-136.56629316818047,45.750780859428914 L-136.72276651058633,46.189566492401525 L-136.88673164782494,46.625607972489306 L-137.0581404841198,47.05877739595647 L-137.23694274023944,47.488947701525504 L-137.4230859682458,47.91599270764805 L-137.61651556687883,48.339787149517576 L-137.81717479757253,48.760206715813254 L-138.02500480109816,49.17712808516408 L-138.23994461482926,49.59042896232268 L-138.46193119062386,49.999988114038054 L-138.69089941331828,50.40568540461687 L-138.92678211982735,50.807401831162736 L-139.16951011884535,51.205019558483286 L-139.41901221114168,51.59842195365466 L-139.67521521044594,51.98749362023337 L-139.93804396491538,52.37212043210545 L-140.20742137917924,52.752189566962976 L-140.48326843695304,53.12758953939819 L-140.76550422421647,53.498210233605406 L-141.05404595294766,53.86394293568118 L-141.3488089854075,54.224680365513336 L-141.64970685896625,54.580316708249335 L-141.95665131146572,54.93074764533486 L-142.26955230710894,55.27587038511351 L-142.5883180628704,55.61558369297861 L-142.91285507541875,55.9497879210683 L-143.24306814854395,56.27838503749514 L-143.57886042108123,56.60127865510175 L-143.9201333953232,56.918374059733985 L-144.26678696591213,57.229578238023365 L-144.6187194492039,57.53479990467062 L-144.9758276130946,57.833949529222366 L-145.33800670730167,58.12693936233296 L-145.7051504940902,58.41368346150401 L-146.0771512794355,58.69409771629378 L-146.45389994461303,58.96809987298926 L-146.83528597820603,59.23560955873361 L-147.22119750852173,59.49654830510184 L-147.6115213364067,59.75083957111791 L-148.00614296845137,59.99840876570647 L-148.4049466505744,60.239183269572536 L-148.80781540197663,60.47309245650294 L-149.21463104945505,60.70006771408299 L-149.62527426206648,60.92004246382257 L-150.03962458613077,61.13295218068551 L-150.45756048056342,61.33873441201666 L-150.87895935252706,61.53732879586117 L-151.30369759339175,61.728677078670295 L-151.73165061499276,61.91272313238897 L-152.162692886176,62.08941297091975 L-152.59669796962,62.25869476595855 L-153.03353855892385,62.42051886219738 L-153.47308651594952,62.574837791889706 L-153.91521290840888,62.721606288774154 L-154.35978804768308,62.8607813013524 L-154.8066815268642,62.99232200551742 L-155.25576225900727,63.116189816528475 L-155.706898515582,63.23234840032906 L-156.15995796511262,63.34076368420476 L-156.61480771199447,63.44140386677785 L-157.0713143354763,63.53423942733545 L-157.52934392879644,63.61924313448894 L-157.98876213846148,63.696390054161625 L-158.4494342036563,63.76565755690269 L-158.91122499577313,63.827025324525025 L-159.37399905804884,63.88047535606522 L-159.83762064529847,63.92599197306369 L-160.301953763733,63.96356182416372 L-160.76686221085063,63.993173889027716 L-161.2322096153887,64.01481948156984 L-161.69785947732558,64.02849225250392 L-162.1636752079199,64.03418819120583 L-162.6295201697763,64.03190562688991 L-163.09525771692492,64.02164522909914 L-163.56075123490382,64.00341000750865 L-164.02586418083197,63.977205311042994 L-164.4904601234613,63.943038826307045 L-164.95440278319586,63.90092057533137 L-165.41755607206676,63.850862912632415 L-165.87978413365076,63.79288052158863 L-166.34095138292074,63.72699041013335 L-166.80092254601698,63.65321190576587 L-167.2595626999269,63.57156664988219 L-167.71673731206187,63.48207859142687 L-168.17231227971948,63.38477397986816 L-168.62615396942002,63.27968135749824 L-169.07812925610492,63.166831551060945 L-169.52810556218625,63.046257662709365 L-169.97595089643568,62.91799506029602 L-170.4215338927013,62.78208136699844 L-170.86472384844117,62.63855645028316 " />

       </g>

       <!-- solid lines -->
       <g  stroke="rgb(0,0,0)" fill="none">
			<path d="M164.03109556574935,-33.416687967574255 L164.03109556574935,-52.27286879921552 " />
			<path d="M164.03109556574935,-52.27286879921552 L100.25006390272277,-73.53321268689105 " />
			<path d="M164.03109556574935,-33.416687967574255 L78.96614978900769,-5.061706041993697 " />
			<path d="M78.96614978900769,-5.061706041993704 L78.96614978900769,-23.91788687363497 " />
			<path d="M164.03109556574935,-52.27286879921552 L78.96614978900769,-23.917886873634963 " />
			<path d="M100.25006390272277,-73.53321268689105 L15.185118125981106,-45.17823076131049 " />
			<path d="M78.96614978900769,-23.91788687363497 L15.185118125981102,-45.1782307613105 " />
			<path d="M109.79600544874117,-67.62887106398338 L100.25006390272277,-64.44689054864392 " />
			<path d="M100.25006390272279,-64.44689054864392 L90.70412235670439,-67.62887106398338 " />
			<path d="M90.70412235670439,-67.62887106398338 L100.25006390272279,-70.81085157932284 " />
			<path d="M100.25006390272279,-70.81085157932284 L109.79600544874118,-67.62887106398338 " />
			<path d="M15.18511812598111,-28.67907253362439 L15.18511812598111,-45.1782307613105 " />
			<path d="M78.96614978900769,-5.061706041993704 L51.38898532273234,-14.254094197418821 " />
			<path d="M100.25006390272279,-70.81085157932284 L100.25006390272279,-68.92523349615871 " />
			<path d="M93.53254948145057,-66.68606202240133 L100.25006390272279,-68.92523349615873 " />
			<path d="M100.25006390272279,-68.92523349615873 L106.967578323995,-66.68606202240132 " />
			<path d="M51.38898532273234,-16.611116801373978 L0.15909902576696885,-33.687745567029104 " />
			<path d="M51.38898532273234,2.2450640302672884 L51.38898532273234,-16.61111680137398 " />
			<path d="M51.38898532273234,-16.611116801373978 L6.735192090801859,-1.7265190573971496 " />
			<path d="M0.15909902576697155,-33.687745567029104 L-2.4226210424371823e-15,-33.634712558440114 " />
			<path d="M6.735192090801864,-1.7265190573971507 L-51.38898532273234,-21.101244861908555 " />
			<path d="M-1.4418520011400683e-15,-33.634712558440114 L-6.894291116568839,-35.93280959729639 " />
			<path d="M-6.894291116568838,-35.93280959729639 L-51.388985322732346,-21.10124486190855 " />
			<path d="M9.545941546018396,-18.856180831641268 L4.6828063151638195e-15,-15.674200316301803 " />
			<path d="M5.108893189235753e-15,-15.674200316301805 L-9.545941546018385,-18.856180831641268 " />
			<path d="M-9.545941546018385,-18.856180831641268 L5.975334721237683e-15,-22.038161346980733 " />
			<path d="M5.330937794160784e-15,-22.038161346980733 L9.545941546018396,-18.856180831641268 " />
			<path d="M2.810749455216525,-30.08150098297771 L-6.735192090801866,-26.899520467638244 " />
			<path d="M-6.735192090801868,-33.26348149831718 L2.810749455216523,-30.081500982977712 " />
			<path d="M-6.735192090801866,-26.899520467638247 L-16.281133636820257,-30.081500982977712 " />
			<path d="M-16.281133636820257,-30.08150098297771 L-6.735192090801866,-33.26348149831717 " />
			<path d="M-51.38898532273234,-4.602086634222441 L-51.38898532273234,-21.101244861908555 " />
			<path d="M6.735192090801864,17.129661774244116 L-15.18511812598112,9.82289170198312 " />
			<path d="M51.38898532273234,2.2450640302672884 L6.735192090801859,17.129661774244116 " />
			<path d="M6.735192090801864,17.129661774244116 L6.735192090801864,-1.7265190573971516 " />
			<path d="M5.330937794160784e-15,-22.038161346980733 L5.311375831769765e-15,-20.152543263816607 " />
			<path d="M-6.717514421272196,-17.913371790059205 L5.975334721237683e-15,-20.152543263816607 " />
			<path d="M5.311375831769765e-15,-20.152543263816607 L6.717514421272209,-17.913371790059205 " />
			<path d="M-6.735192090801868,-33.26348149831718 L-6.735192090801868,-31.37786341515305 " />
			<path d="M-6.735192090801868,-31.377863415153048 L-0.017677669529664094,-29.138691941395646 " />
			<path d="M-13.452706512074066,-29.138691941395646 L-6.735192090801866,-31.377863415153048 " />
			<path d="M-15.185118125981118,26.322049929669234 L-15.185118125981118,7.465869098027966 " />
			<path d="M-15.185118125981118,7.465869098027967 L-78.9661497890077,-13.794474789647564 " />
			<path d="M-15.185118125981118,26.322049929669234 L-149.74753858578111,71.1761900829359 " />
			<path d="M-149.7475385857811,71.17619008293589 L-149.7475385857811,52.32000925129462 " />
			<path d="M-15.185118125981118,7.465869098027967 L-149.74753858578111,52.320009251294636 " />
			<path d="M-78.9661497890077,-13.794474789647559 L-153.55142626256156,11.067284034870402 " />
			<path d="M-184.69310251802347,21.447842786691034 L-213.52857024880768,31.059665363619107 " />
			<path d="M-149.7475385857811,52.32000925129462 L-213.52857024880768,31.05966536361909 " />
			<path d="M-181.67659727110018,38.120010567380284 L-181.9345909918854,38.03285428852568 L-182.18906341414623,37.9445552393504 L-182.439968985475,37.85512922602416 L-182.68726279195604,37.764592256451415 L-182.9309005662059,37.67296053740585 L-183.17083869529733,37.58025047162923 L-183.40703422856637,37.48647865489521 L-183.63944488530083,37.39166187303854 L-183.86802906230886,37.29581709895032 L-184.09274584136625,37.198961489539705 L-184.313554996541,37.101112382662706 L-184.5304170013941,37.00228729401855 L-184.74329303605512,36.90250391401431 L-184.95214499417108,36.80178010459814 L-185.15693548972797,36.70013389606186 L-185.35762786374292,36.597583483813445 L-185.55418619082658,36.49414722511987 L-185.74657528561391,36.38984363582105 L-185.93476070906272,36.28469138701537 L-186.1187087746184,36.1787093017174 L-186.29838655424416,36.07191635148846 L-186.47376188431528,35.96433165304059 L-186.64480337137675,35.85597446481447 L-186.81148039776284,35.74686418353207 L-186.97376312707792,35.63702034072446 L-187.13162250953735,35.52646259923556 L-187.28503028716764,35.41521074970228 L-187.4339589988649,35.30328470701196 L-187.57838198531041,35.190704506737376 L-187.71827339374295,35.07749030155024 L-187.85360818258664,34.96366235761375 L-187.98436212593347,34.84924105095479 L-188.11051181788,34.734246863816466 L-188.23203467671718,34.61870038099165 L-188.3489089489726,34.50262228613813 L-188.46111371330448,34.386033358076105 L-188.56862888424692,34.26895446706863 L-188.67143521580513,34.15140657108567 L-188.7695143049007,34.03341071205249 L-188.86284859466593,33.914988012082965 L-188.9514213775865,33.7961596696986 L-189.03521679849246,33.67694695603386 L-189.11421985739614,33.557371211028396 L-189.18841641217747,33.43745383960715 L-189.25779318111546,33.31721630784866 L-189.32233774526566,33.19668013914248 L-189.38203855068332,33.07586691033632 L-189.43688491049167,32.95479824787369 L-189.4868670067948,32.833495823922554 L-189.53197589243524,32.71198135249589 L-189.57220349259555,32.5902765855647 L-189.6075426062438,32.468403309164266 L-189.63798690742254,32.34638333949428 L-189.66353094638117,32.2242385190136 L-189.6841701505517,32.10199071253029 L-189.6999008253669,31.979661803287627 L-189.71072015492206,31.8572736890469 L-189.71662620247875,31.73484827816751 L-189.71761791081164,31.612407485685225 L-189.7136951023978,31.489973229389225 L-189.70485847944832,31.367567425898685 L-189.69110962378275,31.245211986739502 L-189.6724509965459,31.122928814422007 L-189.6488859377673,31.00073979852031 " />
			<path d="M-189.6488859377673,31.000739798520225 L-189.61324967522353,30.85088050614899 L-189.57023337127322,30.701236555240097 L-189.51984863333936,30.551848325381897 L-189.46210905712678,30.40275612715955 L-189.3970302229533,30.254000191277697 L-189.32462969154568,30.1056206577047 L-189.24492699930107,29.957657564841384 L-189.15794365301534,29.810150838717117 L-189.0637031240797,29.66314028221631 L-188.96223084214728,29.516665564338076 L-188.8535541882712,29.370766209492018 L-188.73770248751626,29.225481586833084 L-188.6147070010457,29.080850899638257 L-188.48460091768598,28.936913174728044 L-188.34741934497106,28.793707251935565 L-188.20319929966908,28.651271773626092 " />
			<path d="M-136.32345792589695,28.65127177362609 L-136.17923788059494,28.79370725193557 L-136.04205630788002,28.93691317472805 L-135.9119502245203,29.08085089963826 L-135.78895473804974,29.225481586833087 L-135.6731030372948,29.37076620949202 L-135.56442638341872,29.516665564338076 L-135.4629541014863,29.663140282216315 L-135.36871357255066,29.81015083871712 L-135.28173022626493,29.95765756484138 L-135.20202753402032,30.1056206577047 L-135.1296270026127,30.254000191277697 L-135.06454816843922,30.40275612715955 L-135.00680859222663,30.551848325381897 L-134.95642385429278,30.701236555240097 L-134.91340755034247,30.850880506148986 L-134.87777128779874,31.000739798520183 " />
			<path d="M-134.8777712877987,31.000739798520225 L-134.860566529014,31.08731318580524 L-134.8458248583176,31.17393705302177 L-134.8335476007597,31.260603614012545 L-134.82373585987744,31.347305078782764 L-134.8163905175959,31.434033654200316 L-134.81151223414867,31.520781544696256 L-134.80910144801862,31.607540952965515 L-134.8091583758985,31.69430408066775 L-134.81168301267132,31.7810631291283 L-134.816675131411,31.867810300039157 L-134.82413428340254,31.95453779615994 L-134.83405979818266,32.04123782201871 L-134.84645078359972,32.12790258461269 L-134.86130612589417,32.21452429410875 L-134.87862448979854,32.30109516454353 L-134.89840431865753,32.387607414523366 L-134.92064383456778,32.47405326792365 L-134.9453410385379,32.560424954587816 L-134.97249371066798,32.646714711025744 L-135.0020994103492,32.73291478111158 L-135.0341554764831,32.81901741678093 L-135.068659027721,32.905014878727215 L-135.1056069627227,32.99089943709739 L-135.14499596043547,33.07666337218671 L-135.18682248039244,33.162298975132586 L-135.23108276303088,33.247798548607555 L-135.2777728300301,33.3331544075111 L-135.3268884846691,33.41835887966045 L-135.37842531220372,33.503404306480164 L-135.43237868026344,33.588283043690545 L-135.48874373926787,33.672987461994744 L-135.5475154228626,33.757509947764504 L-135.6086884483745,33.84184290372451 L-135.6722573172867,33.92597874963528 L-135.80655951501,34.09362887961672 L-135.95037373028543,34.26040006236028 L-136.10364825750466,34.42623233852582 L-136.26632798978795,34.59106608633882 L-136.43835443879672,34.75484204302624 L-136.61966575576187,34.91750132612329 L-136.8101967537204,35.07898545464351 L-137.00987893095194,35.239236370104415 L-137.21864049560747,35.39819645740135 L-137.43640639152042,35.55580856552185 L-137.6630983251918,35.71201602809319 L-137.89863479393918,35.86676268375567 L-138.14293111519913,36.019992896354346 L-138.3958994569735,36.17165157494193 L-138.65744886940752,36.321684193585675 L-138.92748531748907,36.4700368109711 L-139.20591171485725,36.61665608979556 L-139.49262795870777,36.76148931594463 L-139.78753096578305,36.90448441744442 L-140.09051470943376,37.04558998318309 L-140.40147025773865,37.18475528139468 L-140.72028581266892,37.32193027789873 L-141.04684675028304,37.457065654089114 L-141.38103566193755,37.59011282466559 L-141.722732396499,37.72102395510168 L-142.07181410354212,37.84975197884267 L-142.42815527751807,37.976250614227446 L-142.79162780287777,38.1004743811282 L-143.16210100013313,38.22237861730191 L-143.5394416728405,38.34191949444777 L-143.92351415548876,38.45905403396483 L-144.31418036227527,38.5737401224041 L-144.71129983675192,38.68593652660962 L-145.11472980232352,38.795602908543074 L-145.5243252135804,38.90269983978648 L-145.9399388084465,39.007188815717996 L-146.3614211611248,39.10903226935543 L-146.78862073582044,39.20819358486279 L-147.22138394122226,39.304637110714744 L-147.65955518572383,39.398328172514454 L-148.10297693336327,39.48923308546008 L-148.55148976046218,39.5773191664555 L-149.00493241294353,39.66255474586089 L-149.46314186430723,39.7449091788789 L-149.92595337424322,39.8243528565724 L-150.3932005478607,39.90085721650987 L-150.86471539551204,39.97439475303434 L-151.3403283931904,40.04493902715262 L-151.81986854347858,40.112464676040894 L-152.30316343702802,40.17694742216341 L-152.79003931454506,40.23836408200102 L-153.28032112926283,40.29669257438636 L-153.77383260987585,40.35191192844272 L-154.27039632391504,40.40400229112365 L-154.76983374154,40.452944934350846 L-155.27196529972605,40.49872226174736 L-155.7766104668226,40.5413178149641 L-156.28358780745978,40.5807162795971 L-156.79271504777995,40.61690349069349 L-157.3038091409709,40.64986643784426 L-157.81668633307663,40.67959326986188 L-158.33116222906247,40.70607329904119 L-158.8470518591109,40.729297005001925 L-159.36416974512377,40.7492560381116 L-159.88232996740732,40.76594322248744 L-160.40134623151602,40.77935255857637 L-160.92103193523116,40.78947922531201 L-161.44120023564997,40.79631958184797 L-161.9616641163615,40.799871168866915 L-162.48223645468454,40.80013270946469 L-163.00273008894408,40.79710410960945 L-163.52295788576168,40.79078645817547 L-164.04273280733554,40.78118202655163 L-164.5618679786864,40.76829426782481 L-165.08017675484467,40.75212781553838 L-165.59747278795524,40.73268848202632 L-166.11357009427502,40.7099832563235 L-166.62828312103986,40.684020301652886 L-167.14142681317642,40.65480895249064 L-167.65281667983524,40.6223597112101 L-168.16226886072067,40.58668424430581 L-168.66960019219437,40.54779537819909 L-169.17462827312823,40.50570709462656 L-169.67717153048312,40.46043452561324 L-170.17704928459003,40.41199394803214 L-170.6740818141098,40.360402777752256 L-171.16809042064858,40.30567956337697 L-171.65889749300533,40.24784397957532 L-172.1463265710283,40.18691682000833 L-172.63020240905823,40.12291998985304 L-173.11035103893408,40.055876497926945 L-173.5865998325403,39.985810448415634 L-174.05877756387162,39.91274703220654 L-174.52671447059416,39.83671251783211 L-174.99024231508028,39.75773424202545 L-175.44919444489489,39.6758405998919 L-175.90340585271238,39.591061034700154 L-176.35271323564163,39.503426027296506 L-176.7969550539384,39.41296708514603 L-177.2359715890839,39.31971673100472 L-177.66960500120837,39.22370849122653 L-178.09769938583943,39.12497688370964 L-178.52010082995446,39.023557405486216 L-178.93665746731705,38.91948651996014 L-179.34721953307758,38.8128016437973 L-179.75163941761815,38.703541133473145 L-180.14977171962298,38.59174427148239 L-180.54147329835433,38.47745125221572 L-180.92660332511628,38.3607031675087 L-181.3050233338867,38.24154199186801 L-181.6765972711,38.12001056738034 " />
			<path d="M-69.42020824298932,-7.890133166739887 L-78.96614978900772,-4.7081526514004235 " />
			<path d="M-78.9661497890077,-11.072113682079351 L-69.4202082429893,-7.890133166739887 " />
			<path d="M-78.9661497890077,-4.708152651400424 L-88.5120913350261,-7.890133166739888 " />
			<path d="M-88.5120913350261,-7.890133166739887 L-78.9661497890077,-11.072113682079351 " />
			<path d="M-213.52857024880768,49.915846195260364 L-213.52857024880768,31.059665363619096 " />
			<path d="M-149.7475385857811,71.17619008293589 L-213.52857024880768,49.91584619526036 " />
			<path d="M-78.9661497890077,-11.072113682079351 L-78.9661497890077,-9.186495598915224 " />
			<path d="M-78.9661497890077,-9.186495598915224 L-72.2486353677355,-6.9473241251578255 " />
			<path d="M-85.6836642102799,-6.9473241251578255 L-78.9661497890077,-9.186495598915226 " />
			<path d="M-189.23925507968363,33.35020782341439 L-189.17585628518876,32.89027968426988 L-189.10461649242433,32.43150066094034 L-189.0255564571922,31.97400441926241 L-188.93869921373155,31.51792425133275 L-188.84407006800785,31.063393036673155 L-188.7416965903399,30.61054320351596 L-188.6316086073672,30.159506690220937 L-188.51383819335996,29.710414906834856 L-188.38841966087415,29.263398696805027 L-188.25538955075453,28.818588298857886 L-188.11478662148846,28.376113309053792 L-187.96665183791356,27.936102643029045 L-187.81102835928243,27.498684498436162 L-187.64796152668836,27.063986317593333 L-187.47749884985498,26.632134750353927 L-187.29968999329432,26.203255617206935 L-187.11458676183693,25.777473872618977 L-186.92224308553858,25.35491356862869 L-186.72271500396758,24.935697818703993 L-186.51606064987763,24.519948761872847 L-186.30234023227072,24.107787527137873 L-186.08161601885521,23.699334198185305 L-185.8539523179041,23.294707778398397 L-185.6194154595186,22.894026156185717 L-185.3780737763029,22.497406070634142 L-185.1299975834553,22.104963077496834 L-184.87525915828184,21.7168115155259 L-184.61393271913818,21.333064473159666 L-184.3460944038061,20.9538337555742 L-184.0718222473104,20.579229852108767 L-183.79119615918364,20.2093619040746 L-183.50429790018416,19.844337672956463 L-183.21121105847502,19.484263509016184 L-182.91202102527058,19.12924432030739 L-182.60681496995755,18.77938354211042 L-182.29568181469816,18.434783106796313 L-181.97871220852255,18.095543414128702 L-181.6559985009181,17.76176330201221 L-181.32763471492314,17.433540017695897 L-180.99371651973343,17.11096918944017 L-180.65434120282873,16.794144798655353 L-180.30960764162796,16.4831591525201 L-179.9596162746811,16.178102857087584 L-179.60446907240646,15.879064790887302 L-179.2442695073812,15.586132079030207 L-178.87912252419477,15.299390067824717 L-178.50913450887293,15.018922299910937 L-178.13441325788222,14.744810489920408 L-177.75506794672322,14.477134500668477 L-177.37120909812214,14.21597231988613 L-176.98294854982996,13.961400037498212 L-176.59039942203833,13.713491823454486 L-176.19367608442178,13.472319906120159 L-175.79289412281608,13.237954551232047 L-175.3881703055422,13.010464041426562 L-174.97962254938545,12.789914656345502 L-174.56736988524068,12.576370653325363 L-174.15153242343214,12.369894248675905 L-173.73223131871939,12.170545599553353 L-173.30958873499856,11.978382786433539 L-172.88372780970994,11.793461796190051 L-172.45477261796148,11.615836505782443 L-172.02284813637965,11.445558666559059 L-171.58808020669704,11.282677889179258 L-171.15059549908852,11.127241629159265 L-170.71052147526544,10.979295173045951 L-170.2679863513397,10.838881625222538 L-169.82311906046775,10.706041895350094 L-169.37604921528578,10.580814686448441 L-168.92690707014688,10.463236483619994 L-168.47582348317135,10.353341543419777 L-168.02292987812092,10.251161883874722 L-167.56835820610831,10.156727275155191 L-167.11224090715325,10.070065230901395 L-166.65471087159563,9.991201000207258 L-166.19590140137802,9.92015756026408 L-165.7359461712078,9.85695560966607 L-165.27497918961097,9.80161356237981 L-164.81313475988853,9.754147542379325 L-164.3505474409871,9.714571378948332 L-163.88735200829498,9.682896602651063 L-163.42368341437515,9.659132441972819 L-162.95967674964675,9.643285820631252 L-162.49546720302618,9.635361355559105 L-162.03119002253987,9.635361355559105 L-161.56698047591934,9.643285820631249 L-161.1029738111909,9.659132441972819 L-160.6393052172711,9.68289660265106 L-160.17610978457895,9.714571378948332 L-159.71352246567753,9.754147542379322 L-159.2516780359551,9.801613562379803 L-158.79071105435827,9.856955609666059 L-158.33075582418806,9.92015756026407 L-157.87194635397043,9.991201000207248 L-157.4144163184128,10.070065230901381 L-156.95829901945774,10.156727275155177 L-156.50372734744514,10.251161883874708 L-156.0508337423947,10.353341543419763 L-155.59975015541917,10.463236483619983 L-155.15060801028028,10.580814686448424 L-154.7035381650983,10.706041895350072 L-154.25867087422637,10.83888162522252 L-153.81613575030062,10.97929517304593 L-153.37606172647753,11.127241629159247 L-152.938577018869,11.28267788917924 L-152.5038090891864,11.445558666559037 L-152.07188460760457,11.615836505782418 L-151.64292941585614,11.79346179619003 L-151.2170684905675,11.97838278643351 L-150.79442590684667,12.170545599553332 L-150.3751248021339,12.369894248675877 L-149.95928734032537,12.57637065332533 L-149.5470346761806,12.789914656345474 L-149.13848692002387,13.010464041426534 L-148.73376310274995,13.237954551232015 L-148.33298114114427,13.472319906120127 L-147.93625780352772,13.713491823454454 L-147.54370867573607,13.961400037498176 L-147.15544812744392,14.215972319886099 L-146.77158927884284,14.477134500668438 L-146.39224396768384,14.744810489920368 L-146.01752271669312,15.018922299910898 L-145.64753470137128,15.299390067824682 L-145.28238771818485,15.586132079030172 L-144.9221881531596,15.879064790887263 L-144.56704095088492,16.17810285708754 L-144.2170495839381,16.483159152520056 L-143.8723160227373,16.794144798655307 L-143.53294070583263,17.110969189440127 L-143.19902251064292,17.433540017695854 L-142.87065872464797,17.761763302012167 L-142.54794501704347,18.095543414128656 L-142.23097541086787,18.434783106796267 L-141.9198422556085,18.779383542110374 L-141.61463620029548,19.129244320307343 L-141.315446167091,19.484263509016134 L-141.0223593253819,19.844337672956417 L-140.73546106638238,20.209361904074555 L-140.45483497825563,20.579229852108718 L-140.18056282175996,20.95383375557415 L-139.91272450642785,21.333064473159613 L-139.65139806728422,21.716811515525855 L-139.39665964211076,22.104963077496784 L-139.14858344926313,22.497406070634092 L-138.90724176604743,22.89402615618566 L-138.67270490766194,23.294707778398344 L-138.4450412067108,23.699334198185248 L-138.2243169932953,24.107787527137823 L-138.0105965756884,24.51994876187279 L-137.80394222159842,24.93569781870394 L-137.60441414002742,25.354913568628632 L-137.4120704637291,25.777473872618923 L-137.2269672322717,26.203255617206878 L-137.04915837571102,26.63213475035387 L-136.87869569887766,27.063986317593272 L-136.71562886628357,27.498684498436106 L-136.56000538765247,27.936102643028985 L-136.41187060407754,28.376113309053736 L-136.2712676748115,28.818588298857826 L-136.13823756469188,29.26339869680497 L-136.01281903220607,29.7104149068348 L-135.8950486181988,30.159506690220876 L-135.7849606352261,30.6105432035159 L-135.68258715755815,31.063393036673094 L-135.58795801183444,31.51792425133269 L-135.50110076837382,31.97400441926235 L-135.42204073314167,32.43150066094027 L-135.35080094037724,32.89027968426982 L-135.28740214588237,33.35020782341432 " />

       </g>
    </g>
    
</svg>
