<?xml version="1.0" encoding="UTF-8" standalone="no"?>
<svg
   xmlns:svg="http://www.w3.org/2000/svg"
   xmlns="http://www.w3.org/2000/svg"
   width="800.0"
   height="400.0"

>
    <g transform="scale(1.352112676056338, -1.352112676056338)   translate(223.85416666666666,-82.07916666666667)" stroke-width="0.7395833333333334"  fill="none">
       <!-- hidden lines -->
       <g  stroke="rgb(160,160,160)" fill="none" stroke-dasharray="0.7395833333333334,0.7395833333333334" >
			<path d="M-186.875,-45.1 L-186.875,45.1 " />
			<path d="M-186.875,-45.1 L-66.57499999999999,-45.1 " />
			<path d="M-186.875,45.1 L-66.57499999999999,45.1 " />
			<path d="M-66.575,-45.1 L-66.575,45.1 " />
			<path d="M-181.10000000000002,25.825000000000003 L-167.60000000000002,25.825000000000003 " />
			<path d="M-167.60000000000002,25.825000000000003 L-167.60000000000002,39.325 " />
			<path d="M-167.60000000000002,39.325 L-181.10000000000002,39.325 " />
			<path d="M-181.10000000000002,39.325 L-181.10000000000002,25.825000000000003 " />
			<path d="M-31.575000000000003,-41.1 L-31.575000000000003,41.1 " />
			<path d="M-31.575000000000003,31.35 L-31.35,31.35 " />
			<path d="M-31.35,31.35 L-31.35,41.1 " />
			<path d="M-31.575000000000003,41.1 L31.575000000000003,41.1 " />
			<path d="M31.575000000000003,-41.1 L31.575000000000003,41.1 " />
			<path d="M-31.575000000000003,-41.1 L31.575000000000003,-41.1 " />
			<path d="M-6.750000000000007,-6.75 L6.749999999999993,-6.75 " />
			<path d="M6.749999999999993,-6.75 L6.749999999999993,6.75 " />
			<path d="M6.749999999999993,6.75 L-6.750000000000007,6.75 " />
			<path d="M-6.750000000000007,6.75 L-6.750000000000007,-6.75 " />
			<path d="M-25.8,21.825000000000003 L-12.3,21.825000000000003 " />
			<path d="M-25.8,35.325 L-25.8,21.825000000000003 " />
			<path d="M-12.3,21.825000000000003 L-12.3,35.325 " />
			<path d="M-12.3,35.325 L-25.8,35.325 " />
			<path d="M66.57500000000002,-45.1 L66.57500000000002,45.1 " />
			<path d="M66.57500000000002,-45.1 L256.875,-45.1 " />
			<path d="M66.57500000000002,45.1 L256.875,45.1 " />
			<path d="M256.875,-45.1 L256.875,45.1 " />
			<path d="M245.828079134007,7.600000000000001 L245.82408371684005,8.037480426747965 L245.81209879822495,8.47481490843413 L245.79212837637414,8.911857548684505 L245.76417911349296,9.34846254848446 L245.72826033355722,9.784484254817809 L245.68438401920255,10.219777209257193 L245.63256480772705,10.654196196489535 L245.57281998620812,11.087596292760395 L245.50516948573562,11.519832914221068 L245.42963587476254,11.950761865162274 L245.34624435157633,12.380239386118378 L245.25502273589245,12.808122201826066 L245.15600145957373,13.234267569021497 L245.04921355647815,13.658533324059974 L244.9346946514387,14.080777930342256 L244.81248294837863,14.500860525531674 L244.68261921756667,14.918640968546324 L244.54514678201585,15.333979886310653 L244.40011150303073,15.746738720250796 L244.247561764908,16.156779772518256 L244.08754845879523,16.563966251926374 L243.9201249657134,16.96816231958438 L243.74534713874888,17.369233134213758 L243.56327328442052,17.76704489713176 L243.37396414322842,18.161464896887146 L243.17748286939081,18.552361553533203 L242.97389500977536,18.939604462523295 L242.7632684820326,19.323064438214306 L242.54567355193842,19.702613556963417 L242.32118280995306,20.07812519980392 L242.08987114700466,20.44947409468576 L241.8518157295054,20.816536358266728 L241.6070959736086,21.179189537240426 L241.35579351871505,21.537312649187115 L241.09799220023783,21.890786222933897 L240.8337780216346,22.239492338410727 L240.56323912571648,22.583314665988986 L240.28646576524332,22.92213850528946 L240.003550272815,23.255850823446814 L239.71458703006894,23.58434029281775 L239.4196724361941,23.907497328120336 L239.11890487577182,24.225214122992035 L238.81238468595436,24.53738468595431 L238.50021412299208,24.843904875771774 L238.18249732812038,25.144672436194057 L237.8593402928178,25.439587030068896 L237.53085082344685,25.728550272814957 L237.1971385052895,26.011465765243283 L236.85831466598904,26.28823912571644 L236.51449233841078,26.558778021634545 L236.16578622293395,26.82299220023777 L235.81231264918716,27.080793518714998 L235.45418953724047,27.33209597360857 L235.09153635826678,27.576815729505366 L234.7244740946858,27.8148711470046 L234.35312519980397,28.046182809953006 L233.97761355696346,28.270673551938383 L233.59806443821435,28.48826848203256 L233.21460446252334,28.69889500977531 L232.82736155353325,28.902482869390777 L232.4364648968872,29.0989641432284 L232.0420448971318,29.288273284420477 L231.6442331342138,29.47034713874885 L231.24316231958443,29.64512496571338 L230.8389662519264,29.812548458795202 L230.4317797725183,29.972561764907983 L230.02173872025082,30.125111503030713 L229.6089798863107,30.270146782015825 L229.19364096854636,30.407619217566648 L228.7758605255317,30.5374829483786 L228.35577793034227,30.659694651438667 L227.93353332406,30.774213556478138 L227.50926756902152,30.881001459573703 L227.0831222018261,30.980022735892426 L226.65523938611838,31.071244351576315 L226.22576186516227,31.154635874762533 L225.79483291422108,31.230169485735594 L225.3625962927604,31.297819986208104 L224.92919619648953,31.357564807727016 L224.4947772092572,31.40938401920253 L224.05948425481782,31.4532603335572 L223.62346254848444,31.489179113492945 L223.1868575486845,31.51712837637411 L222.74981490843413,31.537098798224935 L222.31248042674795,31.549083716840038 L221.875,31.55307913400697 L221.43751957325202,31.549083716840038 L221.00018509156587,31.537098798224932 L220.56314245131549,31.517128376374107 L220.12653745151553,31.489179113492938 L219.69051574518218,31.453260333557193 L219.25522279074278,31.409384019202523 L218.82080380351044,31.357564807727005 L218.38740370723957,31.29781998620809 L217.9551670857789,31.23016948573558 L217.5242381348377,31.154635874762516 L217.0947606138816,31.071244351576293 L216.6668777981739,30.98002273589241 L216.24073243097845,30.881001459573685 L215.81646667593998,30.774213556478117 L215.3942220696577,30.659694651438645 L214.97413947446827,30.537482948378575 L214.55635903145364,30.407619217566623 L214.1410201136893,30.2701467820158 L213.72826127974915,30.125111503030684 L213.3182202274817,29.972561764907955 L212.91103374807358,29.812548458795174 L212.50683768041557,29.645124965713347 L212.1057668657862,29.470347138748817 L211.70795510286817,29.288273284420438 L211.3135351031128,29.098964143228365 L210.92263844646675,28.902482869390745 L210.53539553747666,28.69889500977528 L210.15193556178565,28.48826848203253 L209.77238644303654,28.27067355193835 L209.39687480019603,28.04618280995298 L209.0255259053142,27.814871147004574 L208.65846364173325,27.576815729505345 L208.29581046275953,27.33209597360855 L207.93768735081287,27.080793518714977 L207.58421377706608,26.822992200237753 L207.23550766158925,26.558778021634527 L206.891685334011,26.288239125716423 L206.55286149471053,26.011465765243265 L206.21914917655317,25.72855027281494 L205.89065970718224,25.439587030068882 L205.56750267187965,25.144672436194046 L205.24978587700795,24.843904875771763 L204.93761531404567,24.537384685954304 L204.63109512422824,24.22521412299203 L204.33032756380595,23.90749732812033 L204.03541296993112,23.584340292817746 L203.74644972718505,23.25585082344681 L203.46353423475674,22.92213850528946 L203.18676087428358,22.583314665988986 L202.91622197836546,22.23949233841073 L202.65200779976226,21.890786222933905 L202.394206481285,21.537312649187122 L202.14290402639145,21.179189537240436 L201.89818427049465,20.816536358266738 L201.66012885299543,20.449474094685776 L201.42881719004703,20.078125199803942 L201.20432644806164,19.70261355696344 L200.98673151796748,19.32306443821433 L200.77610499022472,18.93960446252332 L200.57251713060924,18.55236155353323 L200.37603585677164,18.16146489688718 L200.18672671557957,17.767044897131797 L200.0046528612512,17.369233134213797 L199.82987503428666,16.968162319584422 L199.66245154120483,16.563966251926413 L199.50243823509206,16.1567797725183 L199.34988849696933,15.746738720250844 L199.20485321798424,15.333979886310704 L199.0673807824334,14.918640968546377 L198.93751705162146,14.500860525531728 L198.81530534856137,14.080777930342315 L198.7007864435219,13.658533324060038 L198.59399854042636,13.234267569021561 L198.49497726410763,12.808122201826134 L198.40375564842373,12.38023938611845 L198.32036412523752,11.950761865162349 L198.24483051426446,11.519832914221148 L198.17718001379194,11.087596292760477 L198.11743519227304,10.65419619648962 L198.0656159807975,10.219777209257282 L198.02173966644284,9.784484254817901 L197.9858208865071,9.348462548484555 L197.95787162362592,8.911857548684605 L197.9379012017751,8.474814908434233 L197.92591628316,8.03748042674807 L197.92192086599306,7.600000000000111 L197.92591628315998,7.16251957325215 L197.9379012017751,6.725185091565987 L197.95787162362592,6.2881424513156166 L197.98582088650707,5.851537451515666 L198.0217396664428,5.4155157451823195 L198.06561598079747,4.980222790742937 L198.117435192273,4.5458038035106 L198.1771800137919,4.112403707239741 L198.2448305142644,3.680167085779072 L198.3203641252375,3.249238134837868 L198.4037556484237,2.8197606138817672 L198.49497726410758,2.3918777981740824 L198.5939985404263,1.9657324309786528 L198.70078644352185,1.5414666759401765 L198.8153053485613,1.1192220696578987 L198.9375170516214,0.6991394744684829 L199.06738078243333,0.2813590314538317 L199.20485321798415,-0.13397988631049262 L199.34988849696924,-0.5467387202506355 L199.50243823509197,-0.9567797725180931 L199.66245154120475,-1.3639662519262075 L199.82987503428657,-1.768162319584217 L200.00465286125112,-2.169233134213595 L200.18672671557948,-2.567044897131595 L200.37603585677155,-2.9614648968869783 L200.57251713060916,-3.352361553533031 L200.7761049902246,-3.7396044625231255 L200.98673151796737,-4.123064438214135 L201.20432644806152,-4.502613556963247 L201.4288171900469,-4.878125199803751 L201.6601288529953,-5.2494740946855885 L201.89818427049454,-5.616536358266554 L202.14290402639134,-5.979189537240252 L202.3942064812849,-6.337312649186945 L202.65200779976212,-6.690786222933724 L202.91622197836534,-7.039492338410556 L203.18676087428344,-7.383314665988815 L203.4635342347566,-7.722138505289289 L203.7464497271849,-8.055850823446642 L204.03541296993097,-8.38434029281758 L204.33032756380578,-8.707497328120166 L204.63109512422807,-9.02521412299187 L204.93761531404553,-9.337384685954145 L205.2497858770078,-9.643904875771607 L205.56750267187948,-9.944672436193894 L205.89065970718207,-10.239587030068733 L206.219149176553,-10.528550272814797 L206.55286149471038,-10.811465765243138 L206.89168533401084,-11.088239125716303 L207.2355076615891,-11.358778021634414 L207.58421377706594,-11.622992200237647 L207.93768735081272,-11.880793518714881 L208.29581046275942,-12.132095973608465 L208.65846364173314,-12.376815729505267 L209.0255259053141,-12.614871147004507 L209.39687480019595,-12.846182809952918 L209.77238644303645,-13.070673551938299 L210.15193556178556,-13.288268482032482 L210.53539553747657,-13.498895009775236 L210.9226384464667,-13.70248286939071 L211.31353510311274,-13.898964143228337 L211.70795510286814,-14.088273284420417 L212.10576686578614,-14.270347138748793 L212.50683768041552,-14.445124965713333 L212.91103374807355,-14.612548458795157 L213.31822022748167,-14.772561764907941 L213.72826127974912,-14.925111503030678 L214.14102011368928,-15.07014678201579 L214.5563590314536,-15.20761921756662 L214.97413947446827,-15.337482948378568 L215.3942220696577,-15.459694651438642 L215.81646667593998,-15.574213556478114 L216.24073243097848,-15.681001459573686 L216.6668777981739,-15.780022735892409 L217.09476061388162,-15.871244351576298 L217.52423813483773,-15.95463587476252 L217.95516708577892,-16.03016948573558 L218.3874037072396,-16.097819986208094 L218.82080380351047,-16.157564807727006 L219.25522279074283,-16.209384019202524 L219.6905157451822,-16.253260333557193 L220.1265374515156,-16.28917911349294 L220.56314245131554,-16.317128376374107 L221.00018509156592,-16.337098798224932 L221.4375195732521,-16.349083716840035 L221.87500000000006,-16.35307913400697 L222.31248042674804,-16.349083716840035 L222.74981490843422,-16.33709879822493 L223.1868575486846,-16.317128376374104 L223.62346254848455,-16.28917911349293 L224.0594842548179,-16.253260333557186 L224.4947772092573,-16.209384019202517 L224.92919619648964,-16.157564807727 L225.36259629276051,-16.097819986208084 L225.7948329142212,-16.03016948573557 L226.2257618651624,-15.954635874762506 L226.65523938611852,-15.87124435157628 L227.08312220182623,-15.780022735892391 L227.50926756902166,-15.681001459573665 L227.93353332406014,-15.574213556478096 L228.3557779303424,-15.459694651438621 L228.77586052553184,-15.33748294837855 L229.1936409685465,-15.207619217566595 L229.60897988631083,-15.070146782015765 L230.021738720251,-14.92511150303065 L230.43177977251847,-14.772561764907913 L230.8389662519266,-14.612548458795128 L231.2431623195846,-14.445124965713301 L231.64423313421398,-14.270347138748761 L232.042044897132,-14.088273284420382 L232.43646489688737,-13.898964143228305 L232.82736155353345,-13.702482869390678 L233.21460446252354,-13.498895009775204 L233.59806443821455,-13.288268482032443 L233.97761355696366,-13.07067355193826 L234.35312519980417,-12.846182809952879 L234.72447409468603,-12.614871147004465 L235.091536358267,-12.376815729505225 L235.4541895372407,-12.132095973608422 L235.8123126491874,-11.880793518714839 L236.16578622293417,-11.6229922002376 L236.514492338411,-11.358778021634368 L236.85831466598927,-11.088239125716257 L237.19713850528973,-10.811465765243089 L237.5308508234471,-10.528550272814751 L237.85934029281805,-10.239587030068684 L238.18249732812063,-9.944672436193834 L238.50021412299233,-9.64390487577154 L238.8123846859546,-9.33738468595407 L239.11890487577207,-9.025214122991784 L239.41967243619436,-8.70749732812007 L239.7145870300692,-8.384340292817477 L240.00355027281523,-8.055850823446528 L240.28646576524358,-7.7221385052891645 L240.56323912571673,-7.38331466598868 L240.83377802163483,-7.039492338410412 L241.09799220023805,-6.6907862229335695 L241.35579351871527,-6.337312649186778 L241.60709597360886,-5.979189537240078 L241.85181572950566,-5.616536358266368 L242.08987114700489,-5.249474094685388 L242.32118280995329,-4.8781251998035415 L242.54567355193865,-4.502613556963027 L242.76326848203283,-4.123064438213902 L242.97389500977556,-3.7396044625228804 L243.17748286939104,-3.3523615535327753 L243.37396414322865,-2.96146489688671 L243.56327328442072,-2.5670448971313142 L243.74534713874908,-2.169233134213302 L243.92012496571363,-1.7681623195839116 L244.08754845879542,-1.3639662519258895 L244.2475617649082,-0.9567797725177627 L244.40011150303093,-0.5467387202502945 L244.54514678201602,-0.13397988631013913 L244.68261921756684,0.2813590314541985 L244.81248294837877,0.6991394744688613 L244.93469465143883,1.1192220696582895 L245.04921355647832,1.5414666759405797 L245.15600145957387,1.9657324309790685 L245.25502273589257,2.3918777981745096 L245.34624435157644,2.819760613882207 L245.42963587476265,3.24923813483832 L245.5051694857357,3.680167085779535 L245.57281998620823,4.112403707240217 L245.6325648077271,4.545803803511086 L245.68438401920264,4.980222790743436 L245.72826033355727,5.41551574518283 L245.76417911349301,5.8515374515161875 L245.79212837637417,6.2881424513161495 L245.81209879822498,6.725185091566532 L245.82408371684008,7.162519573252705 L245.828079134007,7.600000000000676 " />
			<path d="M72.35000000000002,25.825000000000003 L85.85000000000002,25.825000000000003 " />
			<path d="M72.35000000000002,39.325 L72.35000000000002,25.825000000000003 " />
			<path d="M85.85000000000002,25.825000000000003 L85.85000000000002,39.325 " />
			<path d="M85.85000000000002,39.325 L72.35000000000002,39.325 " />
			<path d="M249.87500000000003,7.599999999999996 L249.8710061516719,8.072905440390064 L249.85902574603213,8.5456759727371 L249.8390622007895,9.018176727483945 L249.811121211042,9.490272912034216 L249.77521074765215,9.961829849205241 L249.7313410549731,10.432713015648083 L249.67952464792617,10.902788080223669 L249.61977630843072,11.371920942324087 L249.55211308118714,11.839977770128122 L249.47655426881454,12.306825038780124 L249.39312142634407,12.772329568481274 L249.3018383550699,13.236358562482454 L249.20273109575928,13.698779644967813 L249.09582792122376,14.159460898818267 L248.98115932825377,14.618270903244142 L248.85875802891837,15.075078771276209 L248.7286589412337,15.529754187104475 L248.59089917920141,15.982167443253982 L248.44551804222118,16.43218947758711 L248.2925570038795,16.879691910121757 L248.1320597001183,17.324547079654923 L247.96407191678676,17.766628080181242 L247.78864157657972,18.20580879709608 L247.6058187253665,18.64196394317287 L247.4156555179142,19.0749690943044 L247.21820620300906,19.504700724997885 L247.01352710798082,19.931036243613704 L246.8016766226339,20.353854027337697 L246.5827151825902,20.773033456877098 L246.35670525204836,21.18845495087021 L246.12371130596435,21.599999999999937 L245.8837998116583,22.007551200801544 L245.6370392098531,22.410992289154887 L245.38349989514995,22.81020817345166 L245.1232541959466,23.205084967428153 L244.85637635380382,23.595510022654118 L244.58294250226612,23.981371960668547 L244.30303064514285,24.362560704753154 L244.01672063425565,24.73896751133449 L243.72409414665867,25.110485001005763 L243.42523466133818,25.47700718915947 L243.12022743539825,25.83842951622215 L242.80915947973875,26.19464887748262 L242.4921195342336,26.545563652505134 L242.16919804241545,26.891073734119153 L241.84048712567426,27.231080556977403 L241.50608055697757,27.565487125674096 L241.16607373411932,27.894198042415287 L240.8205636525053,28.21711953423345 L240.4696488774828,28.534159479738577 L240.11342951622234,28.845227435398073 L239.75200718915966,29.150234661338033 L239.38548500100595,29.4490941466585 L239.01396751133467,29.741720634255486 L238.63756070475335,30.028030645142696 L238.25637196066873,30.30794250226596 L237.87051002265432,30.581376353803666 L237.48008496742835,30.848254195946467 L237.08520817345186,31.10849989514982 L236.68599228915508,31.362039209852956 L236.28255120080175,31.608799811658162 L235.87500000000014,31.848711305964216 L235.4634549508704,32.08170525204823 L235.0480334568773,32.30771518259007 L234.62885402733792,32.52667662263378 L234.20603624361394,32.7385271079807 L233.7797007249981,32.94320620300893 L233.3499690943046,33.14065551791407 L232.9169639431731,33.3308187253664 L232.4808087970963,33.513641576579616 L232.04162808018145,33.68907191678666 L231.59954707965514,33.8570597001182 L231.15469191012198,34.01755700387939 L230.70718947758735,34.17051804222108 L230.25716744325422,34.31589917920132 L229.8047541871047,34.45365894123361 L229.35007877127643,34.5837580289183 L228.89327090324437,34.706159328253676 L228.4344608988185,34.820827921223696 L227.97377964496803,34.92773109575919 L227.51135856248268,35.02683835506981 L227.0473295684815,35.11812142634399 L226.58182503878035,35.201554268814476 L226.11497777012835,35.277113081187096 L225.64692094232433,35.34477630843067 L225.1777880802239,35.404524647926124 L224.70771301564832,35.45634105497305 L224.2368298492055,35.500210747652105 L223.76527291203445,35.53612121104197 L223.2931767274842,35.564062200789465 L222.82067597273735,35.5840257460321 L222.3479054403903,35.59600615167187 L221.87500000000023,35.6 L221.40209455961016,35.59600615167188 L220.92932402726314,35.58402574603211 L220.4568232725163,35.56406220078949 L219.984727087966,35.536121211042 L219.513170150795,35.50021074765215 L219.04228698435213,35.45634105497309 L218.57221191977655,35.404524647926166 L218.10307905767615,35.344776308430724 L217.6350222298721,35.27711308118715 L217.1681749612201,35.20155426881455 L216.70267043151895,35.11812142634407 L216.23864143751777,35.0268383550699 L215.77622035503242,34.927731095759285 L215.31553910118197,34.820827921223795 L214.85672909675608,34.706159328253776 L214.39992122872403,34.58375802891841 L213.94524581289573,34.453658941233726 L213.49283255674624,34.315899179201445 L213.0428105224131,34.17051804222122 L212.59530808987847,34.01755700387953 L212.1504529203453,33.85705970011834 L211.70837191981897,33.689071916786816 L211.26919120290412,33.513641576579765 L210.83303605682735,33.33081872536656 L210.40003090569581,33.14065551791424 L209.97029927500233,32.943206203009105 L209.54396375638652,32.738527107980886 L209.1211459726625,32.52667662263397 L208.70196654312312,32.307715182590265 L208.28654504912998,32.08170525204843 L207.87500000000026,31.848711305964418 L207.46744879919865,31.608799811658372 L207.06400771084532,31.362039209853172 L206.66479182654854,31.108499895150043 L206.26991503257204,30.848254195946694 L205.87948997734608,30.5813763538039 L205.49362803933164,30.3079425022662 L205.11243929524704,30.028030645142945 L204.7360324886657,29.741720634255742 L204.36451499899442,29.44909414665875 L203.9979928108407,29.150234661338295 L203.63657048377803,28.845227435398343 L203.28035112251757,28.53415947973885 L202.92943634749503,28.21711953423373 L202.58392626588102,27.89419804241557 L202.24391944302278,27.565487125674384 L201.90951287432608,27.231080556977695 L201.58080195758487,26.89107373411945 L201.2578804657667,26.54556365250544 L200.9408405202616,26.19464887748293 L200.6297725646021,25.838429516222465 L200.32476533866213,25.47700718915978 L200.02590585334167,25.110485001006083 L199.73327936574466,24.738967511334813 L199.44696935485746,24.362560704753484 L199.1670574977342,23.98137196066888 L198.8936236461965,23.59551002265445 L198.62674580405368,23.205084967428498 L198.36650010485033,22.810208173452008 L198.11296079014718,22.410992289155235 L197.86620018834196,22.007551200801895 L197.6262886940359,21.600000000000296 L197.3932947479519,21.188454950870568 L197.16728481741006,20.773033456877464 L196.94832337736634,20.353854027338063 L196.7364728920194,19.931036243614074 L196.5317937969912,19.50470072499826 L196.33434448208604,19.074969094304773 L196.14418127463372,18.641963943173245 L195.9613584234205,18.20580879709646 L195.78592808321343,17.766628080181626 L195.6179402998819,17.324547079655307 L195.4574429961207,16.879691910122148 L195.30448195777902,16.4321894775875 L195.15910082079876,15.982167443254374 L195.02134105876647,15.529754187104869 L194.8912419710818,15.075078771276607 L194.7688406717464,14.61827090324454 L194.65417207877638,14.159460898818669 L194.54726890424087,13.698779644968214 L194.44816164493025,13.236358562482856 L194.35687857365608,12.772329568481679 L194.27344573118557,12.30682503878053 L194.19788691881297,11.839977770128531 L194.1302236915694,11.371920942324493 L194.07047535207394,10.902788080224077 L194.018658945027,10.432713015648494 L193.97478925234793,9.961829849205651 L193.93887878895808,9.490272912034627 L193.91093779921056,9.018176727484356 L193.89097425396793,8.545675972737511 L193.87899384832815,8.072905440390477 L193.87500000000003,7.600000000000408 L193.87899384832815,7.127094559610339 L193.8909742539679,6.6543240272633035 L193.91093779921053,6.181823272516458 L193.93887878895802,5.709727087966187 L193.97478925234788,5.238170150795161 L194.0186589450269,4.767286984352317 L194.07047535207383,4.297211919776732 L194.13022369156928,3.8280790576763137 L194.19788691881286,3.3600222298722757 L194.27344573118546,2.893174961220274 L194.35687857365593,2.4276704315191227 L194.4481616449301,1.9636414375179427 L194.5472689042407,1.501220355032582 L194.65417207877618,1.0405391011821257 L194.7688406717462,0.5817290967562512 L194.89124197108157,0.12492122872417966 L195.02134105876624,-0.3297541871040872 L195.15910082079853,-0.7821674432535968 L195.30448195777876,-1.2321894775867275 L195.45744299612042,-1.6796919101213756 L195.6179402998816,-2.124547079654544 L195.78592808321315,-2.5666280801808625 L195.9613584234202,-3.005808797095705 L196.14418127463338,-3.4419639431724978 L196.3343444820857,-3.8749690943040296 L196.53179379699083,-4.30470072499752 L196.73647289201907,-4.731036243613342 L196.94832337736597,-5.153854027337335 L197.16728481740967,-5.5730334568767415 L197.3932947479515,-5.988454950869857 L197.6262886940355,-6.399999999999588 L197.86620018834157,-6.807551200801196 L198.11296079014676,-7.210992289154541 L198.36650010484988,-7.610208173451323 L198.62674580405323,-8.005084967427818 L198.893623646196,-8.395510022653784 L199.1670574977337,-8.781371960668217 L199.44696935485698,-9.162560704752831 L199.73327936574418,-9.538967511334171 L200.02590585334116,-9.910485001005448 L200.32476533866162,-10.277007189159153 L200.62977256460155,-10.63842951622184 L200.94084052026105,-10.994648877482316 L201.25788046576616,-11.345563652504836 L201.58080195758433,-11.69107373411886 L201.90951287432551,-12.031080556977113 L202.2439194430222,-12.365487125673813 L202.58392626588045,-12.694198042415007 L202.92943634749446,-13.017119534233178 L203.28035112251695,-13.334159479738311 L203.6365704837774,-13.645227435397807 L203.9979928108401,-13.95023466133777 L204.3645149989938,-14.249094146658244 L204.73603248866505,-14.541720634255242 L205.1124392952464,-14.828030645142455 L205.49362803933099,-15.107942502265725 L205.8794899773454,-15.381376353803432 L206.26991503257136,-15.64825419594624 L206.66479182654786,-15.9084998951496 L207.06400771084463,-16.162039209852743 L207.46744879919797,-16.40879981165795 L207.87499999999955,-16.648711305964014 L208.28654504912927,-16.881705252048036 L208.70196654312238,-17.107715182589878 L209.1211459726618,-17.32667662263359 L209.54396375638578,-17.538527107980524 L209.9702992750016,-17.743206203008757 L210.40003090569508,-17.940655517913907 L210.8330360568266,-18.13081872536624 L211.2691912029034,-18.313641576579457 L211.7083719198182,-18.489071916786514 L212.15045292034455,-18.657059700118058 L212.5953080898777,-18.81755700387926 L213.04281052241234,-18.970518042220952 L213.49283255674547,-19.115899179201197 L213.94524581289497,-19.253658941233496 L214.39992122872323,-19.38375802891819 L214.8567290967553,-19.506159328253574 L215.31553910118117,-19.6208279212236 L215.77622035503163,-19.7277310957591 L216.23864143751697,-19.826838355069725 L216.70267043151816,-19.918121426343916 L217.1681749612193,-20.001554268814406 L217.6350222298713,-20.07711308118703 L218.10307905767533,-20.144776308430608 L218.57221191977575,-20.20452464792607 L219.04228698435134,-20.256341054973003 L219.51317015079417,-20.300210747652073 L219.9847270879652,-20.336121211041938 L220.45682327251546,-20.364062200789448 L220.9293240272623,-20.384025746032084 L221.40209455960937,-20.396006151671862 L221.87499999999943,-20.4 L222.3479054403895,-20.396006151671884 L222.82067597273652,-20.384025746032123 L223.29317672748337,-20.36406220078951 L223.76527291203365,-20.33612121104202 L224.23682984920467,-20.300210747652176 L224.7077130156475,-20.256341054973124 L225.1777880802231,-20.204524647926213 L225.6469209423235,-20.14477630843077 L226.11497777012755,-20.077113081187214 L226.58182503877956,-20.001554268814612 L227.0473295684807,-19.91812142634414 L227.5113585624819,-19.82683835506997 L227.97377964496724,-19.727731095759367 L228.43446089881772,-19.620827921223885 L228.89327090324358,-19.50615932825388 L229.35007877127566,-19.383758028918514 L229.80475418710392,-19.25365894123384 L230.25716744325342,-19.11589917920156 L230.70718947758655,-18.970518042221336 L231.15469191012122,-18.81755700387966 L231.59954707965437,-18.657059700118477 L232.04162808018071,-18.489071916786955 L232.48080879709556,-18.313641576579915 L232.91696394317233,-18.130818725366716 L233.34996909430387,-17.940655517914404 L233.77970072499735,-17.743206203009272 L234.2060362436132,-17.538527107981057 L234.62885402733718,-17.326676622634146 L235.0480334568766,-17.10771518259045 L235.4634549508697,-16.881705252048622 L235.87499999999943,-16.648711305964618 L236.28255120080107,-16.408799811658575 L236.6859922891544,-16.162039209853386 L237.08520817345118,-15.908499895150257 L237.48008496742767,-15.648254195946915 L237.87051002265366,-15.381376353804125 L238.25637196066808,-15.107942502266432 L238.6375607047527,-14.82803064514318 L239.01396751133404,-14.54172063425598 L239.38548500100532,-14.249094146659 L239.75200718915903,-13.950234661338548 L240.11342951622171,-13.6452274353986 L240.4696488774822,-13.334159479739114 L240.82056365250472,-13.017119534234002 L241.16607373411875,-12.694198042415842 L241.506080556977,-12.365487125674665 L241.8404871256737,-12.031080556977976 L242.1691980424149,-11.691073734119737 L242.49211953423307,-11.345563652505732 L242.8091594797382,-10.994648877483229 L243.1202274353977,-10.638429516222764 L243.42523466133767,-10.277007189160091 L243.72409414665816,-9.910485001006393 L244.01672063425514,-9.53896751133513 L244.30303064514237,-9.162560704753801 L244.58294250226564,-8.781371960669201 L244.85637635380334,-8.39551002265478 L245.12325419594615,-8.005084967428825 L245.38349989514953,-7.610208173452342 L245.63703920985267,-7.210992289155573 L245.88379981165787,-6.807551200802237 L246.12371130596395,-6.400000000000638 L246.35670525204796,-5.988454950870917 L246.58271518258982,-5.573033456877813 L246.80167662263352,-5.153854027338417 L247.01352710798045,-4.731036243614431 L247.2182062030087,-4.304700724998618 L247.41565551791385,-3.8749690943051363 L247.6058187253662,-3.4419639431736133 L247.7886415765794,-3.0058087970968295 L247.96407191678648,-2.566628080181994 L248.13205970011802,-2.124547079655681 L248.2925570038792,-1.6796919101225214 L248.44551804222093,-1.2321894775878786 L248.59089917920116,-0.782167443254755 L248.72865894123348,-0.3297541871052516 L248.85875802891817,0.12492122872301081 L248.98115932825357,0.5817290967550761 L249.0958279212236,1.0405391011809453 L249.20273109575908,1.5012203550313972 L249.30183835506972,1.9636414375167535 L249.3931214263439,2.42767043151793 L249.4765542688144,2.893174961219077 L249.55211308118703,3.360022229871076 L249.6197763084306,3.8280790576751107 L249.6795246479261,4.297211919775526 L249.731341054973,4.767286984351109 L249.77521074765207,5.238170150793951 L249.81112121104195,5.709727087964976 L249.83906220078947,6.1818232725152455 L249.8590257460321,6.65432402726209 L249.8710061516719,7.127094559609125 L249.87500000000003,7.599999999999193 " />

       </g>

       <!-- solid lines -->
       <g  stroke="rgb(0,0,0)" fill="none">
			<path d="M-186.875,-45.1 L-186.875,45.1 " />
			<path d="M-186.875,-45.1 L-66.57499999999999,-45.1 " />
			<path d="M-186.875,45.1 L-66.57499999999999,45.1 " />
			<path d="M-66.575,-45.1 L-66.575,45.1 " />
			<path d="M-181.10000000000002,25.825000000000003 L-167.60000000000002,25.825000000000003 " />
			<path d="M-167.60000000000002,25.825000000000003 L-167.60000000000002,39.325 " />
			<path d="M-167.60000000000002,39.325 L-181.10000000000002,39.325 " />
			<path d="M-181.10000000000002,39.325 L-181.10000000000002,25.825000000000003 " />
			<path d="M-31.575000000000003,-41.1 L-31.575000000000003,31.35 " />
			<path d="M-31.575000000000003,41.1 L-31.575000000000003,31.35 " />
			<path d="M-31.575000000000003,-41.1 L31.575000000000003,-41.1 " />
			<path d="M-31.575000000000003,31.35 L-31.35,31.35 " />
			<path d="M31.575000000000003,-41.1 L31.575000000000003,41.1 " />
			<path d="M-31.35,31.35 L-31.35,41.1 " />
			<path d="M-31.35,41.1 L31.575000000000003,41.1 " />
			<path d="M-6.750000000000007,-6.75 L6.749999999999993,-6.75 " />
			<path d="M6.749999999999993,-6.75 L6.749999999999993,6.75 " />
			<path d="M6.749999999999993,6.75 L-6.750000000000007,6.75 " />
			<path d="M-6.750000000000007,6.75 L-6.750000000000007,-6.75 " />
			<path d="M-25.8,21.825000000000003 L-12.3,21.825000000000003 " />
			<path d="M-25.8,35.325 L-25.8,21.825000000000003 " />
			<path d="M-12.3,21.825000000000003 L-12.3,35.325 " />
			<path d="M-12.3,35.325 L-25.8,35.325 " />
			<path d="M-31.575000000000003,41.1 L-31.35,41.1 " />
			<path d="M66.57500000000002,-45.1 L66.57500000000002,45.1 " />
			<path d="M66.57500000000002,-45.1 L256.875,-45.1 " />
			<path d="M66.57500000000002,45.1 L256.875,45.1 " />
			<path d="M256.875,-45.1 L256.875,45.1 " />
			<path d="M249.32950782658472,7.600000000000001 L249.32552785310648,8.067461854943963 L249.31358908659433,8.534788177625133 L249.29369498848166,9.001843475075894 L249.26585132670883,9.46849233290758 L249.23006617405113,9.934599454571476 L249.186349905778,10.400029700585641 L249.13471519664503,10.864648127716219 L249.07517701721915,11.32832002810181 L249.00775262953803,11.79091096830964 L248.9324615821055,12.25228682831214 L248.84932570422356,12.712313840372666 L248.75836909966353,13.17085862782908 L248.65961813967755,13.627788243763941 L248.55310145535262,14.082970209550112 L248.43884992930967,14.536272553260572 L248.3168966867496,14.987563847931343 L248.1872770858492,15.436713249666397 L248.05002870750974,15.883590535573527 L247.90519134446097,16.328066141520154 L247.75280698972406,16.770011199698153 L247.59291982443636,17.209297575986778 L247.4255762050418,17.64579790710289 L247.2508246498509,18.07938563752765 L247.06871582497348,18.50993505619908 L246.87930252962914,18.937321332959726 L246.68263968083886,19.361420554748953 L246.47878429750295,19.78210976152934 L246.2677954838694,20.19926698193676 L246.04973441239758,20.612771268643797 L245.82466430602244,21.0225027334263 L245.59265041982408,21.428342581922816 L245.3537600221083,21.83017314807693 L245.10806237490328,22.22787792825244 L244.85562871387825,22.621341615011495 L244.59653222769003,23.010450130545987 L244.33084803676329,23.395090659752338 L244.05865317151068,23.775151682940262 L243.78002654999926,24.15052300816591 L243.49504895506954,24.52109580318007 L243.20380301091402,24.886762626982144 L242.90637315912173,25.247417460970755 L242.6028456341959,25.602955739681963 L242.29330843855175,25.953274381106166 L241.97785131700186,26.29827181657488 L241.6565657307361,26.637848020208793 L241.3295448308043,26.97190453791848 L240.99688343110853,27.30034451594943 L240.65867798091358,27.623072728963056 L240.31502653688327,27.939995607645592 L239.96602873465062,28.251021265836872 L239.61178575993023,28.556059527171065 L239.25240031918133,28.855021951221733 L238.88797660982982,29.147821859143548 L238.51862029005812,29.434374358803286 L238.14443844817146,29.714596369392805 L237.76553957154945,29.988406645516832 L237.38203351519218,30.25572580074863 L236.99403146986973,30.516476330646686 L236.60164592988423,30.770582635225754 L236.2049906604543,31.017971040875697 L235.80418066473084,31.25856982172189 L235.3993321504537,31.49230922042081 L234.9905624962596,31.71912146838499 L234.57799021765007,31.938940805431283 L234.16173493263005,32.151703498846864 L233.74191732702684,32.35734786186741 L233.3186591194993,32.555814271562085 L232.89208302624763,32.74704518612012 L232.46231272543423,32.93098516153407 L232.02947282132513,33.10758086767481 L231.59368880816334,33.27678110375367 L231.155087033784,33.43853681316716 L230.7137946629822,33.592801097720084 L230.26993964064343,33.73952923122285 L229.82365065464873,33.87867867245903 L229.3750570985635,34.0102090775194 L228.92428903412238,34.13408231149897 L228.4714771535201,34.25026245955352 L228.0167527415196,34.35871583731246 L227.56024763738827,34.459411000645034 L227.1020941966736,34.552318754776955 L226.64242525282899,34.63741216275494 L226.18137407870103,34.714666553256606 L225.71907434788952,34.78405952774342 L225.255660095991,34.84557096695488 L224.79126568173763,34.89918303674159 L224.32602574804227,34.94488019323607 L223.8600751829611,34.98264918735936 L223.3935490805853,35.012479068662394 L222.92658270187275,35.03436118850086 L222.45931143543174,35.04828920254273 L221.9918707582673,35.0542590726077 L221.52439619650212,35.05226906783796 L221.05702328608308,35.04231976520006 L220.58988753348513,35.02441404931759 L220.12312437642342,34.99855711163488 L219.65686914458573,34.964756448911785 L219.1912570203959,34.923021861050174 L218.72642299982016,34.8733654482526 L218.26250185322738,34.81580160751405 L217.79962808631484,34.750347028447834 L217.3379359011107,34.67702068844669 L216.8775591570645,34.59584384718062 L216.41863133223688,34.50684004043308 L215.96128548460027,34.41003507327714 L215.5056542134607,34.30545701259378 L215.05186962101337,34.193136178934395 L214.60006327404167,34.073105137729925 L214.1503661657719,33.94539868984902 L213.7029086778941,33.81005386150821 L213.25782054276004,33.66710989353675 L212.81523080576986,33.516608229999505 L212.3752677879574,33.358592506180926 L211.93805904878607,33.193108535933796 L211.50373134916504,33.02020429839633 L211.07241061469713,32.83992992408144 L210.64422189916922,32.65233768034231 L210.21928934829475,32.457481956218416 L209.79773616372012,32.25541924666635 L209.37968456730445,32.04620813618014 L208.96525576568365,31.829909281805726 L208.55456991512852,31.606585395554493 L208.14774608670774,31.376301226221067 L207.7449022317652,31.13912354061053 L207.3461551477222,30.89512110418059 L206.95162044421406,30.644364661104238 L206.56141250957123,30.386926913758753 L206.17564447765432,30.122882501646924 L205.79442819505297,29.852307979756652 L205.41787418865798,29.5752817963652 L205.04609163361602,29.291884270294496 L204.67918832167604,29.002197567624137 L204.31727062993724,28.70630567786876 L203.96044349000675,28.40429438962681 L203.60881035757657,28.09625126570764 L203.2624731824285,27.782265617744233 L202.9215323788756,27.46242848029888 L202.58608679664877,27.136832584469317 L202.25623369223717,26.80557233100302 L201.93206870069022,26.46874376292734 L201.61368580789014,26.12644453770357 L201.30117732330226,25.778773898912885 L200.99463385321155,25.425832647482423 L200.69414427445307,25.067723112459856 L200.39979570864347,24.704549121344897 L200.1116734969218,24.336415969986344 L199.82986117520645,23.963430392053457 L199.55444044997506,23.58570052809039 L199.28549117457553,23.20333589416277 L199.0230913260737,22.81644735010547 L198.76731698264558,22.425147067380763 L198.51824230151942,22.029548496556185 L198.27593949747555,21.629766334411585 L198.0404788219087,21.225916490684796 L197.81192854246004,20.81811605446571 L197.59035492322406,20.406483260248326 L197.37582220553654,19.991137453650794 L197.16839258934894,19.572199056813268 L196.9681262151945,19.149789533483617 L196.77508114675175,18.72403135380121 L196.58931335400985,18.295047958788842 L196.41087669704103,17.862963724563226 L196.23982291038502,17.427903926274322 L196.07620158804937,16.98999470178405 L195.92006016913058,16.549363015094844 L195.77144392406007,16.106136619538717 L195.6303959414786,15.660444020737428 L195.49695711574384,15.212414439344565 L195.3711661350734,14.762177773580316 L195.25305947032808,14.309864561569789 L195.1426713644378,13.855605943495792 L195.0400338224734,13.39953362357707 L194.9451766023673,12.941779831883016 L194.85812720628584,12.482477285995891 L194.77891087265544,12.021759152531732 L194.70755056884516,11.559759008531055 L194.64406698450773,11.096610802730563 L194.588478525581,10.632448816727086 L194.54080130895136,10.167407626045021 L194.50104915778107,9.701622061118547 L194.46923359750033,9.235227168199934 L194.44536385246585,8.768358170205284 L194.4294468432862,8.301150427509043 L194.4214871848156,7.833739398698668 L194.4214871848156,7.366260601300817 L194.42944684328623,6.898849572490443 L194.44536385246585,6.431641829794202 L194.46923359750036,5.964772831799552 L194.5010491577811,5.498377938880941 L194.54080130895142,5.032592373954467 L194.58847852558105,4.567551183272403 L194.6440669845078,4.1033891972689265 L194.70755056884522,3.6402409914684357 L194.77891087265553,3.1782408474677606 L194.85812720628593,2.7175227140036027 L194.94517660236738,2.2582201681164786 L195.0400338224735,1.800466376422425 L195.14267136443792,1.344394056503707 L195.2530594703282,0.890135438429712 L195.3711661350735,0.4378222264191862 L195.49695711574398,-0.012414439345058703 L195.63039594147878,-0.46044402073792057 L195.7714439240602,-0.9061366195392075 L195.92006016913075,-1.3493630150953297 L196.07620158804954,-1.7899947017845292 L196.23982291038521,-2.227903926274802 L196.41087669704123,-2.662963724563703 L196.58931335401005,-3.0950479587893174 L196.77508114675197,-3.5240313538016785 L196.96812621519473,-3.9497895334840827 L197.16839258934917,-4.372199056813727 L197.3758222055368,-4.791137453651254 L197.5903549232243,-5.206483260248779 L197.8119285424603,-5.61811605446616 L198.04047882190895,-6.025916490685244 L198.2759394974758,-6.429766334412026 L198.51824230151968,-6.829548496556624 L198.76731698264584,-7.225147067381194 L199.023091326074,-7.616447350105901 L199.2854911745758,-8.003335894163193 L199.55444044997535,-8.385700528090807 L199.82986117520676,-8.76343039205387 L200.11167349692215,-9.136415969986754 L200.39979570864378,-9.504549121345299 L200.69414427445338,-9.867723112460254 L200.9946338532119,-10.225832647482815 L201.3011773233026,-10.57877389891327 L201.61368580789048,-10.92644453770395 L201.9320687006906,-11.268743762927713 L202.25623369223752,-11.605572331003387 L202.58608679664914,-11.93683258446968 L202.92153237887598,-12.262428480299231 L203.2624731824289,-12.582265617744582 L203.60881035757694,-12.896251265707981 L203.96044349000712,-13.204294389627137 L204.31727062993764,-13.506305677869072 L204.6791883216764,-13.802197567624432 L205.04609163361636,-14.091884270294784 L205.41787418865835,-14.37528179636547 L205.7944281950533,-14.652307979756909 L206.17564447765466,-14.92288250164717 L206.5614125095716,-15.186926913758985 L206.9516204442144,-15.444364661104458 L207.34615514772253,-15.695121104180796 L207.7449022317655,-15.939123540610726 L208.14774608670805,-16.17630122622125 L208.55456991512884,-16.406585395554664 L208.96525576568396,-16.629909281805887 L209.37968456730476,-16.84620813618029 L209.7977361637204,-17.055419246666485 L210.21928934829504,-17.257481956218545 L210.6442218991695,-17.452337680342435 L211.07241061469742,-17.639929924081553 L211.5037313491653,-17.820204298396437 L211.93805904878636,-17.993108535933896 L212.37526778795768,-18.158592506181016 L212.8152308057701,-18.31660822999959 L213.2578205427603,-18.46710989353683 L213.70290867789436,-18.61005386150828 L214.15036616577217,-18.745398689849093 L214.60006327404193,-18.87310513772999 L215.05186962101362,-18.993136178934453 L215.50565421346096,-19.105457012593828 L215.9612854846005,-19.210035073277183 L216.4186313322371,-19.306840040433126 L216.8775591570647,-19.395843847180657 L217.3379359011109,-19.477020688446718 L217.79962808631504,-19.550347028447863 L218.26250185322758,-19.615801607514072 L218.72642299982036,-19.673365448252614 L219.1912570203961,-19.723021861050192 L219.6568691445859,-19.7647564489118 L220.1231243764236,-19.79855711163489 L220.5898875334853,-19.824414049317596 L221.05702328608325,-19.842319765200063 L221.52439619650227,-19.852269067837963 L221.99187075826745,-19.854259072607697 L222.45931143543189,-19.848289202542727 L222.9265827018729,-19.83436118850085 L223.39354908058542,-19.812479068662384 L223.86007518296125,-19.782649187359347 L224.3260257480424,-19.74488019323605 L224.79126568173774,-19.699183036741573 L225.2556600959911,-19.64557096695486 L225.71907434788963,-19.58405952774341 L226.18137407870114,-19.514666553256582 L226.64242525282907,-19.437412162754928 L227.10209419667368,-19.352318754776938 L227.56024763738836,-19.259411000645017 L228.0167527415197,-19.158715837312442 L228.4714771535202,-19.0502624595535 L228.92428903412244,-18.934082311498948 L229.37505709856353,-18.810209077519378 L229.82365065464876,-18.678678672459014 L230.26993964064349,-18.539529231222836 L230.71379466298222,-18.392801097720067 L231.15508703378404,-18.23853681316714 L231.59368880816336,-18.07678110375366 L232.02947282132513,-17.907580867674803 L232.46231272543426,-17.730985161534058 L232.89208302624766,-17.54704518612011 L233.3186591194993,-17.35581427156208 L233.74191732702684,-17.157347861867407 L234.16173493263005,-16.951703498846864 L234.57799021765004,-16.738940805431287 L234.99056249625957,-16.519121468385 L235.3993321504537,-16.292309220420822 L235.8041806647308,-16.058569821721903 L236.20499066045429,-15.817971040875719 L236.6016459298842,-15.57058263522578 L236.99403146986967,-15.316476330646719 L237.38203351519215,-15.055725800748665 L237.7655395715494,-14.788406645516869 L238.1444384481714,-14.514596369392848 L238.51862029005807,-14.234374358803336 L238.88797660982976,-13.947821859143598 L239.25240031918125,-13.65502195122179 L239.61178575993017,-13.356059527171126 L239.96602873465054,-13.05102126583694 L240.31502653688318,-12.739995607645668 L240.65867798091347,-12.423072728963135 L240.99688343110842,-12.100344515949516 L241.32954483080422,-11.771904537918573 L241.65656573073602,-11.437848020208886 L241.97785131700175,-11.098271816574979 L242.29330843855166,-10.753274381106273 L242.60284563419577,-10.402955739682081 L242.9063731591216,-10.047417460970877 L243.2038030109139,-9.686762626982272 L243.49504895506942,-9.321095803180206 L243.78002654999915,-8.950523008166051 L244.05865317151057,-8.575151682940408 L244.33084803676317,-8.195090659752493 L244.59653222768992,-7.810450130546148 L244.85562871387813,-7.421341615011665 L245.10806237490317,-7.027877928252613 L245.3537600221082,-6.630173148077116 L245.59265041982397,-6.228342581923005 L245.82466430602233,-5.8225027334264965 L246.04973441239747,-5.412771268644004 L246.2677954838693,-4.999266981936973 L246.47878429750284,-4.582109761529562 L246.68263968083875,-4.161420554749183 L246.87930252962903,-3.737321332959965 L247.0687158249734,-3.3099350561993273 L247.25082464985078,-2.879385637527907 L247.4255762050417,-2.445797907103154 L247.59291982443625,-2.0092975759870537 L247.75280698972398,-1.5700111996984347 L247.9051913444609,-1.1280661415204456 L248.05002870750963,-0.6835905355738277 L248.1872770858491,-0.2367132496667077 L248.31689668674952,0.21243615206833866 L248.43884992930958,0.6637274467390997 L248.55310145535253,1.1170297904495516 L248.65961813967746,1.5722117562357134 L248.75836909966347,2.0291413721705673 L248.84932570422347,2.487686159626972 L248.93246158210545,2.9477131716874903 L249.00775262953798,3.409089031689983 L249.0751770172191,3.871679971897806 L249.134715196645,4.33535187228339 L249.18634990577794,4.799970299413959 L249.2300661740511,5.265400545428118 L249.2658513267088,5.731507667092005 L249.29369498848163,6.198156524923685 L249.31358908659433,6.665211822374439 L249.32552785310645,7.132538145055602 L249.32950782658472,7.5999999999995556 " />
			<path d="M72.35000000000002,25.825000000000003 L85.85000000000002,25.825000000000003 " />
			<path d="M72.35000000000002,39.325 L72.35000000000002,25.825000000000003 " />
			<path d="M85.85000000000002,25.825000000000003 L85.85000000000002,39.325 " />
			<path d="M85.85000000000002,39.325 L72.35000000000002,39.325 " />
			<path d="M249.07500000000002,7.599999999999996 L249.07101382915275,8.06565202086381 L249.0590564849607,8.531167558748905 L249.0391314721311,8.996410170679837 L249.01124463070101,9.461243493675974 L248.97540413432597,9.925531284719597 L248.931620487884,10.389137460688836 L248.8799065243968,10.851926138243744 L248.82027740126833,11.313761673653815 L248.75275059584214,11.774508702555261 L248.67734590027874,12.234032179626421 L248.59408541575456,12.692197418169652 L248.50299354598403,13.148870129588108 L248.4040969900668,13.603916462745829 L248.29742473466231,14.057203043199628 L248.18300804549372,14.508597012291233 L248.06088045818385,14.957966066088275 L247.93107776842598,15.40517849416267 L247.79363802149197,15.850103218195054 L247.6486015010813,16.29260983039395 L247.49601071751377,16.732568631718372 L247.33591039526974,17.169850669892746 L247.16834745988137,17.604327777202915 L246.99337102417869,18.035872608062185 L246.8110323738945,18.46435867633643 L246.6213849526327,18.88966039241729 L246.42448434620368,19.311653100032554 L246.22038826633224,19.730213112783048 L246.00915653374219,20.145217750395183 L245.79085106062283,20.556545374678677 L245.56553583248242,20.964075425178784 L245.33327688939409,21.367688454512653 L245.09414230663924,21.76726616337946 L244.84820217475487,22.16269143523405 L244.59552857898979,22.553848370613842 L244.3361955781764,22.94062232110909 L244.07027918302413,23.322899922966428 L243.79785733384045,23.700569130315834 L243.51900987768667,24.073519248011415 L243.2338185449746,24.44164096407621 L242.94236692551132,24.80482638174163 L242.64474044399896,25.16296905107208 L242.3410263349966,25.515964000165525 L242.03131361735186,25.863707765920843 L241.71569306810932,26.206098424362924 L241.39425719590366,26.543035620516704 L241.06710021384544,26.87442059782124 L240.734318011907,27.200156227075375 L240.3960081288172,27.52014703490637 L240.05226972347253,27.834299231753228 L239.70320354587386,28.14252073935649 L239.3489119075962,28.44472121774643 L238.98949865180134,28.74081209172181 L238.6250691228012,29.030706576811305 L238.25573013518138,29.314319704710115 L237.88158994249375,29.591568348184243 L237.50275820552721,29.862371245435156 L237.11934596016602,30.12664902391768 L236.73146558484507,30.384324223604157 L236.33923076761175,30.635321319688032 L235.9427564728039,30.879566744720258 L235.54215890735347,31.116988910171937 L235.13755548672643,31.34751822741702 L234.7290648005081,31.571087128128745 L234.3168065776444,31.787630084084 L233.90090165134927,31.997083626369687 L233.48147192368833,32.19938636398549 L233.05864032984928,32.39447900183767 L232.63253080210956,32.582304358118456 L232.2032682335116,32.762807381066125 L231.7709784412566,32.93593516510067 L231.3357881298275,33.10163696633053 L230.89782485385166,33.25986421742557 L230.4572169807146,33.41057054185231 L230.01409365293537,33.55371176746686 L229.56858475031478,33.68924593946181 L229.12082085186748,33.81713333266326 L228.6709331975493,33.93733646317425 L228.21905364979048,34.04982009936137 L227.76531465484692,34.154551272181116 L227.30984920397998,34.25149928484322 L226.8527907944765,34.34063572180783 L226.39427339052094,34.42193445711419 L225.93443138393005,34.49537166203814 L225.47339955476275,34.56092581207633 L225.0113130318159,34.6185776932551 L224.54830725301787,34.66831040776211 L224.0845179257318,34.71010937889905 L223.6200809869794,34.74396235535415 L223.15513256359785,34.76985941479302 L222.68980893234087,34.78779296676686 L222.22424647993594,34.79775775493731 L221.75858166310917,34.79975085861699 L221.29295096858982,34.79377169362563 L220.8274908731058,34.77982201246125 L220.36233780338236,34.757905903786536 L219.89762809615524,34.728029791230426 L219.4334979582103,34.69020243150531 L218.97008342646112,34.644434911840534 L218.50752032807657,34.590740646732584 L218.04594424066977,34.5291353740134 L217.58549045256007,34.459637150237555 L217.12629392312002,34.382266345389866 L216.66848924321863,34.297045636914945 L216.21221059577275,34.20400000307042 L215.75759171641783,34.10315671560579 L215.3047658543101,33.99454533176902 L214.8538657330708,33.878197685643364 L214.4050235118852,33.75414787881668 L213.95837074676624,33.62243227038631 L213.51403835199568,33.48308946630213 L213.07215656175282,33.33616030805116 L212.63285489194283,33.18168786068688 L212.19626210223547,33.019717400206794 L211.76250615832566,32.850296400282076 L211.33171419442652,32.67347451834293 L210.90401247600627,32.48930358102399 L210.4795263627797,32.29783756897386 L210.05838027196518,32.0991326010334 L209.6406976418178,31.89324691778719 L209.22660089544965,31.680240864493218 L208.81621140494732,31.460176873395582 L208.40964945579782,31.2331194454256 L208.00703421163274,30.99913513129651 L207.60848367930123,30.758292511997404 L207.21411467428223,30.5106621786921 L206.82404278644563,30.25631671202879 L206.43838234617292,29.995330660866628 L206.05724639084667,29.727780520425366 L205.68074663171944,29.453744709864562 L205.30899342117092,29.17330354929886 L204.94209572036362,28.886539236256105 L204.58016106730625,28.593535821585167 L204.22329554533434,28.294379184820592 L203.871603752017,27.989157009011212 L203.52518876849936,27.677958755020203 L203.1841521292894,27.360875635304023 L202.84859379249806,27.038000587177958 L202.5186121105415,26.709428245576145 L202.1943038013139,26.375254915313977 L201.87576391983936,26.035578542861078 L201.56308583041118,25.69049868763314 L201.25636117922681,25.340116492810978 L200.95567986752613,24.98453465569534 L200.66113002524142,24.623857397606304 L200.37279798516636,24.25819043333589 L200.09076825765192,23.887640940162978 L199.81512350583614,23.512317526439567 L199.54594452141566,23.13233019975757 L199.28331020096547,22.74779033470552 L199.02729752281442,22.35881064022457 L198.7779815244826,21.965505126573415 L198.53543528068806,21.56798907191181 L198.29972988192824,21.166378988512434 L198.07093441364356,20.760792588611046 L197.84911593596823,20.351348749904957 L197.634339464075,19.938167480709865 L197.42666794911906,19.521369884785315 L197.2261622597871,19.10107812583911 L197.0328811644566,18.67741539172102 L196.84688131397073,18.25050585831633 L196.66821722503403,17.82047465314978 L196.49694126423347,17.38744781871059 L196.33310363268978,16.95155227550932 L196.17675235134342,16.512915784877347 L196.02793324687968,16.071666911519934 L195.8866899382968,15.627934985833791 L195.7530638241211,15.181850066000264 L195.6270940702733,14.733542899865146 L195.50881759858868,14.283144886616402 L195.39826907599547,13.83078803827095 L195.29548090435378,13.376604940981833 L195.20048321095868,12.920728716177127 L195.11330383970994,12.463292981541922 L195.03396834295077,12.00443181185489 L194.96249997397854,11.54427969969085 L194.8989196802292,11.082971516000894 L194.84324609713758,10.620642470581599 L194.79549554267527,10.157428072444926 L194.7556820125679,9.693464090100429 L194.72381717619285,9.228886511761388 L194.6999103731591,8.763831505486557 L194.6839686105697,8.298435379269202 L194.67599656096797,7.8328345410851155 L194.675996560968,7.3671654589113285 L194.6839686105698,6.9015646207272425 L194.69991037315927,6.43616849450989 L194.72381717619305,5.971113488235063 L194.75568201256817,5.506535909896026 L194.7954955426756,5.042571927551533 L194.84324609713798,4.579357529414867 L194.89891968022965,4.117028483995579 L194.96249997397905,3.6557203003056324 L195.03396834295134,3.1955681881416025 L195.11330383971057,2.73670701845458 L195.2004832109594,2.2792712838193863 L195.29548090435452,1.8233950590146923 L195.39826907599627,1.3692119617255898 L195.50881759858956,0.9168551133801506 L195.62709407027424,0.4664571001314224 L195.7530638241221,0.018149933996322254 L195.88668993829785,-0.42793498583718836 L196.02793324688082,-0.8716669115233096 L196.1767523513446,-1.3129157848807065 L196.333103632691,-1.7515522755126582 L196.49694126423475,-2.187447818713908 L196.66821722503536,-2.6204746531530727 L196.84688131397212,-3.0505058583196014 L197.03288116445805,-3.477415391724268 L197.2261622597886,-3.901078125842332 L197.42666794912063,-4.32136988478851 L197.63433946407662,-4.738167480713033 L197.8491159359699,-5.151348749908099 L198.0709344136453,-5.560792588614159 L198.29972988193003,-5.966378988515515 L198.53543528068988,-6.367989071914863 L198.7779815244845,-6.765505126576436 L199.02729752281633,-7.158810640227557 L199.28331020096746,-7.547790334708477 L199.54594452141768,-7.932330199760491 L199.81512350583822,-8.31231752644245 L200.09076825765405,-8.687640940165828 L200.37279798516855,-9.058190433338702 L200.66113002524364,-9.423857397609076 L200.9556798675284,-9.784534655698074 L201.25636117922915,-10.140116492813672 L201.56308583041357,-10.4904986876358 L201.87576391984177,-10.83557854286369 L202.19430380131635,-11.175254915316547 L202.518612110544,-11.509428245578675 L202.8485937925006,-11.83800058718045 L203.184152129292,-12.16087563530646 L203.525188768502,-12.477958755022602 L203.87160375201967,-12.789157009013564 L204.22329554533707,-13.094379184822898 L204.580161067309,-13.393535821587431 L204.9420957203664,-13.68653923625832 L205.30899342117374,-13.973303549301026 L205.68074663172231,-14.253744709866677 L206.05724639084957,-14.52778052042743 L206.43838234617584,-14.795330660868647 L206.82404278644862,-15.05631671203076 L207.21411467428524,-15.310662178694013 L207.60848367930427,-15.55829251199927 L208.0070342116358,-15.799135131298321 L208.40964945580092,-16.033119445427356 L208.81621140495045,-16.26017687339729 L209.2266008954528,-16.48024086449487 L209.640697641821,-16.693246917788795 L210.0583802719684,-16.899132601034943 L210.47952636278293,-17.097837568975347 L210.9040124760095,-17.289303581025415 L211.3317141944298,-17.473474518344307 L211.76250615832896,-17.650296400283395 L212.1962621022388,-17.819717400208056 L212.63285489194615,-17.98168786068808 L213.0721565617562,-18.136160308052315 L213.51403835199906,-18.283089466303228 L213.95837074676965,-18.422432270387347 L214.4050235118886,-18.554147878817663 L214.85386573307423,-18.678197685644278 L215.30476585431353,-18.79454533176988 L215.7575917164213,-18.903156715606585 L216.2122105957762,-19.004000003071162 L216.66848924322213,-19.097045636915627 L217.1262939231235,-19.182266345390488 L217.5854904525636,-19.259637150238113 L218.0459442406733,-19.3291353740139 L218.50752032808012,-19.39074064673302 L218.97008342646464,-19.444434911840908 L219.43349795821382,-19.490202431505633 L219.8976280961588,-19.528029791230676 L220.3623378033859,-19.557905903786736 L220.82749087310935,-19.57982201246139 L221.29295096859337,-19.5937716936257 L221.75858166311272,-19.599750858617004 L222.2242464799395,-19.59775775493726 L222.68980893234442,-19.587792966766752 L223.1551325636014,-19.56985941479284 L223.62008098698294,-19.54396235535392 L224.08451792573535,-19.510109378898754 L224.54830725302142,-19.468310407761752 L225.0113130318194,-19.41857769325469 L225.47339955476627,-19.360925812075852 L225.93443138393357,-19.295371662037603 L226.39427339052443,-19.2219344571136 L226.85279079448,-19.140635721807183 L227.30984920398345,-19.051499284842507 L227.7653146548504,-18.954551272180346 L228.21905364979395,-18.84982009936053 L228.67093319755273,-18.73733646317336 L229.12082085187092,-18.617133332662306 L229.5685847503182,-18.4892459394608 L230.01409365293878,-18.353711767465786 L230.457216980718,-18.210570541851183 L230.897824853855,-18.059864217424387 L231.33578812983083,-17.901636966329285 L231.77097844125993,-17.73593516509938 L232.20326823351488,-17.562807381064772 L232.63253080211283,-17.382304358117047 L233.05864032985255,-17.1944790018362 L233.48147192369154,-16.99938636398397 L233.90090165135246,-16.79708362636811 L234.31680657764755,-16.58763008408237 L234.72906480051122,-16.371087128127062 L235.13755548672953,-16.147518227415283 L235.54215890735654,-15.916988910170144 L235.94275647280693,-15.67956674471841 L236.33923076761477,-15.435321319686139 L236.73146558484805,-15.18432422360221 L237.11934596016894,-14.926649023915683 L237.5027582055301,-14.662371245433107 L237.88158994249662,-14.391568348182147 L238.25573013518422,-14.114319704707967 L238.62506912280398,-13.83070657680911 L238.9894986518041,-13.54081209171957 L239.34891190759893,-13.244721217744143 L239.70320354587656,-12.942520739354151 L240.0522697234752,-12.634299231750848 L240.3960081288198,-12.320147034903943 L240.73431801190955,-12.000156227072903 L241.06710021384794,-11.674420597818724 L241.39425719590614,-11.343035620514147 L241.71569306811173,-11.006098424360328 L242.03131361735424,-10.6637077659182 L242.34102633499893,-10.315964000162843 L242.64474044400123,-9.962969051069358 L242.94236692551357,-9.60482638173887 L243.23381854497683,-9.241640964073412 L243.51900987768883,-8.873519248008584 L243.79785733384256,-8.500569130312964 L244.07027918302617,-8.122899922963521 L244.3361955781784,-7.74062232110615 L244.59552857899172,-7.353848370610866 L244.84820217475678,-6.962691435231038 L245.09414230664112,-6.56726616337642 L245.33327688939588,-6.16768845450958 L245.5655358324842,-5.764075425175681 L245.7908510606245,-5.356545374675548 L246.00915653374383,-4.945217750392024 L246.22038826633383,-4.530213112779856 L246.4244843462052,-4.11165310002934 L246.62138495263417,-3.6896603924140496 L246.81103237389593,-3.264358676333167 L246.99337102418005,-2.835872608058896 L247.16834745988268,-2.404327777199603 L247.335910395271,-1.9698506698894143 L247.49601071751496,-1.5325686317150158 L247.64860150108242,-1.0926098303905736 L247.79363802149305,-0.65010321819166 L247.931077768427,-0.2051784941592576 L248.0608804581848,0.24203393391515515 L248.18300804549463,0.6914029877122116 L248.29742473466317,1.1427969568038314 L248.4040969900676,1.5960835372576447 L248.50299354598474,2.05112987041538 L248.59408541575522,2.5078025818338467 L248.67734590027933,2.965967820377089 L248.75275059584268,3.425491297448259 L248.8202774012688,3.8862383263497127 L248.87990652439723,4.348073861759791 L248.93162048788435,4.810862539314707 L248.97540413432628,5.274468715283952 L249.01124463070127,5.7387565063275785 L249.0391314721313,6.203589829323719 L249.05905648496085,6.668832441254654 L249.0710138291528,7.1343479791397515 L249.07500000000002,7.600000000003565 " />

       </g>
    </g>
    
</svg>
