<?xml version="1.0" encoding="UTF-8" standalone="no"?>
<svg
   xmlns:svg="http://www.w3.org/2000/svg"
   xmlns="http://www.w3.org/2000/svg"
   width="800.0"
   height="400.0"

>
    <g transform="scale(1.3994169096209912, -1.3994169096209912)   translate(324.7916666666667,-57.891666666666666)" stroke-width="0.7145833333333333"  fill="none">
       <!-- hidden lines -->
       <g  stroke="rgb(160,160,160)" fill="none" stroke-dasharray="0.7145833333333333,0.7145833333333333" >
			<path d="M-181.875,-43.6 L-181.875,43.6 " />
			<path d="M-181.875,-43.6 L-61.575,-43.6 " />
			<path d="M-181.875,43.6 L-61.575,43.6 " />
			<path d="M-61.575,-43.6 L-61.575,43.6 " />
			<path d="M-178.875,-17.05 L-169.35,-17.05 " />
			<path d="M-169.35,-17.05 L-169.35,-28.574999999999996 " />
			<path d="M-169.35,-28.575 L-74.1,-28.575 " />
			<path d="M-74.1,-28.575 L-74.1,-17.05 " />
			<path d="M-74.1,-17.05 L-64.575,-17.05 " />
			<path d="M-64.575,-17.05 L-64.575,40.10000000000001 " />
			<path d="M-64.575,40.1 L-178.875,40.1 " />
			<path d="M-178.875,40.1 L-178.875,-17.050000000000004 " />
			<path d="M-31.575,-41.1 L-31.575,41.1 " />
			<path d="M-31.575,-41.1 L31.575,-41.1 " />
			<path d="M-31.575,41.1 L31.575,41.1 " />
			<path d="M31.575,-41.1 L31.575,41.1 " />
			<path d="M-28.575,-38.1 L28.575,-38.1 " />
			<path d="M28.575,-38.1 L28.575,38.1 " />
			<path d="M28.575,38.1 L-28.575,38.1 " />
			<path d="M-28.575,38.1 L-28.575,-38.1 " />
			<path d="M61.575,-43.6 L61.575,43.6 " />
			<path d="M61.575,-28.575 L136.85,-28.575 " />
			<path d="M136.85,-28.575 L136.85,-17.05 " />
			<path d="M136.85,-17.05 L178.875,-17.05 " />
			<path d="M178.875,-17.05 L178.875,40.10000000000001 " />
			<path d="M178.875,40.1 L64.575,40.1 " />
			<path d="M64.575,40.1 L64.575,-9.524999999999999 " />
			<path d="M64.575,-9.525 L61.575,-9.525 " />
			<path d="M61.575,43.6 L246.875,43.6 " />
			<path d="M61.575,-43.6 L246.875,-43.6 " />
			<path d="M246.875,-43.6 L246.875,43.6 " />
			<path d="M240.445817018268,11.1 L240.441824155359,11.556265770800668 L240.42984678968187,12.012391783290608 L240.40988859001146,12.468238321968323 L240.38195566972394,12.923665756937657 L240.34605658492404,13.378534586677691 L240.30220233182445,13.832705480773313 L240.2504063433775,14.286039322593378 L240.19068448516046,14.738397251903388 L240.1230550505158,15.189640707399622 L240.04753875494785,15.63963146915172 L239.9641587297774,16.088231700940682 L239.8729405150563,16.53530399247935 L239.7739120517445,16.98071140150241 L239.66710367315125,17.424317495713048 L239.55254809564386,17.865986394573373 L239.4302804086265,18.305582810925866 L239.30033806379168,18.74297209243305 L239.16276086364877,19.1780202628227 L239.01759094933203,19.610594062925998 L238.86487278769232,20.040560991495997 L238.70465315767657,20.467789345793975 L238.53698113599899,20.89214826193112 L238.36190808210844,21.313507754953378 L238.17948762245646,21.73173875865696 L237.98977563407118,22.146713165122502 L237.79283022744144,22.558303863955686 L237.58871172871733,22.96638478122229 L237.37748266123145,23.37083091806574 L237.15920772634772,23.771518388995432 L236.9339537836425,24.168324459833936 L236.70178983042513,24.561127585311603 L236.4627869806033,24.94980744629695 L236.21701844290033,25.33424498665152 L235.9645594984305,25.714322449697825 L235.70548747763993,26.08992341428928 L235.43988173661955,26.460932830471073 L235.16782363279754,26.82723705472096 L234.88939650001888,27.188723884759327 L234.6046856230194,27.54528259391776 L234.31377821130235,27.89680396505559 L234.0167633724253,28.24318032401412 L233.71373208470567,28.584305572598176 L233.4047771693534,28.92007522107493 L233.08999326203875,29.250386420180057 L232.76947678390474,29.57513799262138 L232.44332591203238,29.89423046407039 L232.1116405493682,30.20756609363214 L231.774522294123,30.515048903784134 L231.4320744086515,30.816584709775135 L231.08440178782212,31.112081148474772 L230.7316109268867,31.40144770666523 L230.3738098888601,31.68459574876622 L230.0111082714195,31.96143854398491 L229.64361717333358,32.2318912928823 L229.27144916043216,32.495871153348084 L228.894718231126,32.7532972659759 L228.51353978148833,33.00409077883133 L228.12803056990785,33.248174871604945 L227.73830868132453,33.48547477914303 L227.34449349105927,33.71591781434889 L226.94670562824814,33.93943339044747 L226.54506693889246,34.15595304260679 L226.13970044853644,34.365410448909316 L225.73073032458325,34.56774145066697 L225.31828183826147,34.76288407207348 L224.90248132625334,34.950778539188185 L224.48345615199673,35.13136729824525 L224.06133466667265,35.304595033283 L223.6362461698899,35.47040868308761 L223.20832087007972,35.628757457446284 L222.77768984461153,35.77959285270473 L222.344484999643,35.92286866662429 L221.9088390297157,36.05854101253406 L221.4708853771099,36.18656833277382 L221.03075819096975,36.306911411423485 L220.58859228621225,36.419533386315315 L220.14452310223237,36.52439976032511 L219.69868666141647,36.621478411939 L219.25121952747776,36.71073960509257 L218.80225876362528,36.792155998279235 L218.35194189058038,36.86570265292525 L217.90040684445293,36.931357041028576 L217.4477919344901,36.98909905205944 L216.99423580071112,37.038910999120326 L216.5398773714405,37.08077762436369 L216.0848558207531,37.11468610366554 L215.6293105258438,37.14062605055358 L215.17338102433516,37.158589519388684 L214.7172069715355,37.16857100779873 L214.26092809766155,37.170567458364026 L213.80468416503763,37.16457825955378 L213.3486149252852,37.15060524591348 L212.8928600765158,37.12865269750293 L212.43755922054012,37.09872733858521 L211.98285182010682,37.06083833556701 L211.5288771561837,37.014997294190856 L211.07577428529493,36.96121825598015 L210.62368199692645,36.899517693938165 L210.1727387710138,36.82991450750219 L209.72308273552434,36.75243001675447 L209.27485162414737,36.66708795589165 L208.82818273410518,36.57391446595484 L208.38321288409753,36.472938086822296 L207.94007837239303,36.36418974846746 L207.49891493507954,36.247702761484796 L207.05985770448723,36.12351280688649 L206.62304116779606,35.991657925172994 L206.1885991258414,35.85217850468091 L205.75666465212947,35.705117269211655 L205.3273700520758,35.55051926494481 L204.90084682247883,35.38843184664003 L204.47722561124132,35.21890466313189 L204.0566361773517,35.041989642121955 L203.6392073511377,34.85774097427292 L203.2250669948045,34.666215096609484 L202.81434196326938,34.46747067523116 L202.40715806530488,34.26156858734238 L202.00364002500245,34.048571902605204 L201.60391144356842,33.82854586382056 L201.2080947614637,33.60155786694374 L200.8163112208993,33.36767744044047 L200.42868082869865,33.12697622398964 L200.0453223195385,32.87952794653952 L199.66635311957936,32.625408403723824 L199.29188931049683,32.3646954346449 L198.92204559392482,32.097468898030876 L198.55693525632125,31.82381064777421 L198.19667013426752,31.54380450785912 L197.84136058021193,31.257536246685554 L197.49111542866763,30.965093550797526 L197.14604196287584,30.666565998023955 L196.80624588194382,30.362045030040193 L196.47183126846838,30.05162392435858 L196.1429005566544,29.7353977657567 L195.81955450093844,29.413463417152116 L195.50189214512656,29.08591948993231 L195.19001079205643,28.75286631374918 L194.88400597379254,28.414405905787156 L194.58397142236393,28.070641939514402 L194.28999904105322,27.721679712926708 L194.00217887624572,27.367626116293778 L193.7205990898475,27.008589599417768 L193.44534593228053,26.644680138414127 L193.17650371606356,26.276009202024937 L192.91415478998624,25.902689717475045 L192.658379513885,25.5248360358814 L192.40925623402822,25.142563897226317 L192.16686125911792,24.75599039490526 L191.93126883691582,24.36523393986008 L191.70255113150048,23.970414224308687 L191.48077820116293,23.57165218508224 L191.2660179769471,23.16906996658111 L191.05833624184186,22.76279088336095 L190.85779661063128,22.35293938236034 L190.66446051040867,21.93964100478157 L190.47838716176102,21.52302234763623 L190.2996335606292,21.103211024967422 L190.12825446084946,20.68033562876042 L189.96430235738208,20.254525689553795 L189.80782747023142,19.825911636763035 L189.65887772906328,19.394624758728852 L189.5174987585235,18.960797162502377 L189.38373386426275,18.524561733379585 L189.25762401967168,18.086052094197328 L189.13920785333036,17.64540256440346 L189.0285216371759,17.20274811891359 L188.92559927539224,16.75822434676703 L188.8304722940248,16.31196740959468 L188.7431698313238,15.864113999911474 L188.66371862881908,15.414801299246239 L188.5921430231288,14.96416693612176 L188.52846493850498,14.51234894389793 L188.47270388011788,14.059485718490874 L188.42487692808132,13.605715975981056 L188.3849987322211,13.151178710123276 L188.35308150758732,12.696013149771648 L188.32913503071313,12.24035871623254 L188.3131666366198,11.784354980558573 L188.30518121657013,11.328141620796758 L188.30518121657013,10.87185837920385 L188.3131666366198,10.415645019442035 L188.3291350307131,9.959641283768068 L188.3530815075873,9.503986850228959 L188.38499873222105,9.04882128987733 L188.42487692808126,8.59428402401955 L188.4727038801178,8.14051428150973 L188.5284649385049,7.687651056102673 L188.5921430231287,7.2358330638788395 L188.66371862881897,6.78519870075436 L188.74316983132368,6.335886000089123 L188.83047229402467,5.888032590405914 L188.92559927539213,5.441775653233563 L189.02852163717577,4.997251881087004 L189.13920785333022,4.554597435597129 L189.25762401967154,4.1139479058032595 L189.38373386426258,3.675438266620999 L189.5174987585233,3.239202837498204 L189.65887772906308,2.805375241271724 L189.80782747023122,2.3740883632375382 L189.96430235738188,1.945474310446773 L190.12825446084923,1.5196643712401432 L190.29963356062896,1.0967889750331388 L190.47838716176076,0.6769776523643269 L190.66446051040842,0.26035899521898287 L190.857796610631,-0.15293938235979354 L191.0583362418416,-0.5627908833604085 L191.2660179769468,-0.9690699665805713 L191.48077820116265,-1.3716521850817056 L191.70255113150017,-1.7704142243081584 L191.9312688369155,-2.165233939859556 L192.1668612591176,-2.5559903949047413 L192.40925623402788,-2.9425638972258046 L192.65837951388465,-3.324836035880894 L192.9141547899859,-3.702689717474545 L193.17650371606322,-4.076009202024448 L193.4453459322802,-4.44468013841364 L193.7205990898471,-4.808589599417289 L194.00217887624532,-5.167626116293308 L194.28999904105282,-5.521679712926241 L194.58397142236356,-5.8706419395139395 L194.8840059737921,-6.2144059057867 L195.190010792056,-6.552866313748732 L195.50189214512613,-6.885919489931867 L195.819554500938,-7.213463417151681 L196.14290055665398,-7.535397765756278 L196.47183126846792,-7.85162392435816 L196.80624588194337,-8.162045030039787 L197.1460419628754,-8.466565998023556 L197.49111542866717,-8.76509355079713 L197.84136058021144,-9.057536246685165 L198.19667013426704,-9.343804507858744 L198.55693525632077,-9.623810647773839 L198.92204559392434,-9.897468898030512 L199.29188931049634,-10.164695434644551 L199.66635311957884,-10.425408403723479 L200.045322319538,-10.679527946539183 L200.42868082869813,-10.926976223989316 L200.8163112208988,-11.16767744044015 L201.20809476146317,-11.401557866943433 L201.60391144356788,-11.628545863820259 L202.0036400250019,-11.848571902604915 L202.40715806530434,-12.0615685873421 L202.81434196326884,-12.267470675230891 L203.22506699480397,-12.466215096609224 L203.63920735113714,-12.657740974272672 L204.05663617735112,-12.841989642121716 L204.47722561124075,-13.018904663131652 L204.90084682247826,-13.188431846639807 L205.3273700520752,-13.350519264944596 L205.75666465212888,-13.505117269211448 L206.1885991258408,-13.652178504680707 L206.62304116779544,-13.791657925172801 L207.05985770448657,-13.92351280688631 L207.49891493507891,-14.047702761484624 L207.94007837239238,-14.164189748467296 L208.38321288409688,-14.272938086822142 L208.8281827341045,-14.373914465954696 L209.2748516241467,-14.46708795589152 L209.72308273552366,-14.552430016754345 L210.17273877101312,-14.62991450750208 L210.62368199692574,-14.699517693938065 L211.07577428529422,-14.76121825598006 L211.528877156183,-14.814997294190777 L211.98285182010608,-14.860838335566951 L212.4375592205394,-14.898727338585159 L212.89286007651506,-14.928652697502889 L213.34861492528447,-14.950605245913453 L213.80468416503686,-14.964578259553763 L214.2609280976608,-14.970567458364021 L214.71720697153475,-14.968571007798749 L215.1733810243344,-14.958589519388712 L215.62931052584307,-14.940626050553616 L216.08485582075232,-14.914686103665593 L216.53987737143973,-14.880777624363757 L216.99423580071036,-14.838910999120403 L217.44779193448935,-14.789099052059528 L217.90040684445216,-14.731357041028685 L218.35194189057958,-14.66570265292537 L218.80225876362448,-14.592155998279372 L219.25121952747696,-14.510739605092718 L219.69868666141568,-14.421478411939168 L220.14452310223155,-14.32439976032529 L220.58859228621145,-14.21953338631551 L221.03075819096892,-14.106911411423697 L221.47088537710908,-13.986568332774047 L221.9088390297149,-13.858541012534305 L222.34448499964216,-13.722868666624548 L222.77768984461073,-13.579592852705007 L223.2083208700789,-13.428757457446578 L223.6362461698891,-13.27040868308792 L224.06133466667183,-13.104595033283326 L224.48345615199594,-12.931367298245595 L224.9024813262525,-12.750778539188543 L225.31828183826065,-12.562884072073858 L225.73073032458245,-12.367741450667362 L226.13970044853562,-12.165410448909727 L226.54506693889164,-11.955953042607215 L226.94670562824732,-11.739433390447909 L227.34449349105847,-11.515917814349345 L227.73830868132373,-11.285474779143515 L228.12803056990705,-11.048174871605438 L228.51353978148757,-10.804090778831844 L228.8947182311252,-10.553297265976427 L229.27144916043136,-10.29587115334863 L229.6436171733328,-10.031891292882863 L230.01110827141872,-9.76143854398549 L230.37380988885934,-9.484595748766816 L230.73161092688593,-9.20144770666584 L231.08440178782138,-8.912081148475403 L231.43207440865075,-8.616584709775777 L231.77452229412225,-8.315048903784794 L232.11164054936745,-8.007566093632816 L232.44332591203167,-7.694230464071081 L232.76947678390403,-7.375137992622085 L233.08999326203804,-7.050386420180784 L233.40477716935268,-6.7200752210756765 L233.713732084705,-6.384305572598938 L234.0167633724246,-6.0431803240149 L234.31377821130167,-5.696803965056384 L234.60468562301875,-5.345282593918567 L234.88939650001822,-4.988723884760157 L235.1678236327969,-4.627237054721803 L235.43988173661893,-4.260932830471932 L235.70548747763934,-3.8899234142901573 L235.9645594984299,-3.514322449698712 L236.21701844289976,-3.1342449866524262 L236.46278698060274,-2.7498074462978703 L236.70178983042456,-2.361127585312534 L236.93395378364195,-1.9683244598348857 L237.15920772634718,-1.5715183889963917 L237.37748266123094,-1.1708309180667147 L237.58871172871682,-0.7663847812232785 L237.79283022744096,-0.3583038639566922 L237.9897756340707,0.05328683487648078 L238.179487622456,0.4682612413420113 L238.36190808210802,0.8864922450455772 L238.5369811359986,1.3078517380678214 L238.70465315767615,1.732210654204959 L238.86487278769192,2.15943900850292 L239.01759094933166,2.5894059370729092 L239.16276086364843,3.0219797371761956 L239.30033806379132,3.4570279075658323 L239.43028040862615,3.8944171890730033 L239.55254809564357,4.334013605425486 L239.66710367315096,4.775682504285801 L239.77391205174422,5.219288598496427 L239.87294051505606,5.664696007519479 L239.96415872977718,6.11176829905814 L240.04753875494765,6.560368530847093 L240.1230550505156,7.010359292599182 L240.1906844851603,7.461602748095407 L240.25040634337736,7.913960677405409 L240.30220233182433,8.367294519225467 L240.34605658492393,8.821465413321082 L240.38195566972382,9.27633424306111 L240.4098885900114,9.731761678030436 L240.42984678968185,10.187608216708146 L240.44182415535897,10.643734229198081 L240.445817018268,11.099999999998742 " />
			<path d="M167.375,-43.6 L167.375,-38.45 " />
			<path d="M167.375,-38.45 L131.375,-38.45 " />
			<path d="M131.375,-38.45 L131.375,-43.6 " />
			<path d="M241.875,11.099999999999994 L241.87101343169786,11.568236440156129 L241.85905488262617,12.036337123472245 L241.83912781995383,12.504166332468616 L241.81123802117875,12.971588428374663 L241.77539357245277,13.438467890455023 L241.7316048662372,13.904669355301374 L241.67988459828976,14.37005765607865 L241.62024776398357,14.834497861714265 L241.5527116539596,15.29785531601898 L241.47729584911352,15.759995676728078 L241.39402221491855,16.22078495445151 L241.30291489508608,16.680089551521746 L241.20400030456534,17.13777630072805 L241.0973071218852,17.59371250392593 L240.98286628083912,18.047765970510625 L240.86071096151647,18.499805055743423 L240.7308765806827,18.9496986989197 L240.59340078151064,19.39731646136766 L240.4483234226667,19.842528564266708 L240.2956865667546,20.2852059262745 L240.13553446811983,20.725220200951803 L239.96791356001913,21.162443813974267 L239.7928724411579,21.596750000120313 L239.61046186159984,22.02801284002448 L239.42073470805292,22.456107296685506 L239.22374598853577,22.880909251718563 L239.01955281642913,23.302295541341216 L238.80821439391678,23.720143992082534 L238.58979199482107,24.134333456205155 L238.36434894683742,24.5447438468299 L238.13195061317376,24.951256172752828 L237.89266437359956,25.353752572944632 L237.64655960491035,25.752116350722353 L237.39370766081296,26.146232007583507 L237.13418185123803,26.535985276692813 L236.8680574210849,26.921263156011854 L236.59541152840572,27.301953941061996 L236.31632322203495,27.677947257311125 L236.03087341867047,28.049134092174782 L235.73914487941323,28.41540682662241 L235.4412221857721,28.776659266379603 L235.13719171514103,29.132786672717252 L234.8271416157555,29.483685792818648 L234.51116178113534,29.829254889715834 L234.18934382402188,30.169393771786417 L233.8617810498163,30.50400382180235 L233.52856842952755,30.83298802552227 L233.18980257223708,31.156250999819 L232.8455816970888,31.47369902033425 L232.49600560481207,31.785240048652298 L232.14117564878651,32.09078375898491 L231.78119470565613,32.39024156435968 L231.41616714550216,32.68352664230425 L231.04619880158285,32.97055396001899 L230.67139693964893,33.25124029903068 L230.29187022684386,33.525504279320266 L229.90772870019765,33.79326638291755 L229.5190837347237,34.05444897695602 L229.12604801112744,34.308976336181075 L228.7287354831367,34.55677466490529 L228.32726134446273,34.79777211840411 L227.92174199540193,35.03189882374596 L227.51229500908764,35.2590869000507 L227.09903909740177,35.47927047817041 L226.68209407655658,35.692385719787055 L226.26158083235597,35.89837083592121 L225.83762128514687,36.09716610484672 L225.41033835447053,36.28871388940595 L224.9798559234242,36.472958653720596 L224.54629880274348,36.64984697929342 L224.10979269461558,36.81932758049594 L223.67046415623432,36.98135131943777 L223.22844056310694,37.135871220213325 L222.78385007212404,37.28284248252163 L222.3368215844026,37.422222494655365 L221.88748470791347,37.553970845855375 L221.43596971990388,37.67804933802706 L220.9824075291257,37.79442199681523 L220.526929637881,37.903055082034236 L220.06966810389514,38.00391709745031 L219.61075550202895,38.0969787999134 L219.15032488584117,38.182213207835616 L218.68850974901176,38.25959560901415 L218.22544398663788,38.32910356779606 L217.7612618564134,38.39071693158316 L217.29609793970312,38.44441783667486 L216.83008710252346,38.49019071344745 L216.3633644564404,38.52802229086823 L215.89606531939626,38.55790160034321 L215.42832517647662,38.57981997889725 L214.96027964062895,38.593771071685765 L214.49206441334397,38.59975083383718 L214.0238152453114,38.59775753162563 L213.55566789706143,38.58779174297372 L213.08775809960352,38.56985635728486 L212.6202215150734,38.543956574605616 L212.1531936974004,38.510099904117986 L211.6868100530059,38.46829616196229 L211.2212058015447,38.41855746839114 L210.75651593670042,38.360898244255395 L210.2928751870466,38.29533520682307 L209.8304179769844,38.22188736493246 L209.36927838776867,38.140576013480924 L208.90959011863356,38.05142472725073 L208.45148644802876,37.954459354074004 L207.99510019497762,37.84970800733861 L207.54056368056894,37.73720105783717 L207.08800868959256,37.61697112496158 L206.63756643233077,37.48905306724562 L206.1893675065163,37.35348397225831 L205.74354185946777,37.21030314585106 L205.3002187504137,37.059552100761614 L204.85952671301624,36.90127454457819 L204.42159351810503,36.73551636706721 L203.98654613663226,36.56232562686841 L203.55451070285983,36.38175253756106 L203.1256124777889,36.193849453105464 L202.69997581284267,35.99867085266383 L202.27772411381287,35.79627332480501 L201.8589798050805,35.586715551097654 L201.4438642941211,35.37005828909654 L201.03249793630462,35.14636435472699 L200.62500000000077,34.9156986040725 L200.22148863199902,34.67812791457089 L199.82208082325425,34.43372116562434 L199.42689237496717,34.18254921862911 L199.03603786500992,33.92468489643044 L198.64963061470607,33.66020296220893 L198.2677826559754,33.38918009780424 L197.89060469885192,33.11169488148259 L197.51820609938568,32.827827765154346 L197.1506948279369,32.53766105104846 L196.78817743787175,32.24127886785037 L196.43075903466922,31.938767146310383 L196.07854324544766,31.630213594329618 L195.73163218891986,31.315707671530582 L195.3901264457855,30.995340563320042 L195.05412502956983,30.669205154451333 L194.72372535791604,30.337396002094152 L194.39902322434114,30.000009308419344 L194.08011277046208,29.6571428927068 L193.76708645870116,29.308896162984503 L193.46003504547818,28.95537008720693 L193.15904755489723,28.596667163981188 L192.8642112529357,28.232891392849346 L192.57561162214307,27.864148244135663 L192.29333233685688,27.49054462836726 L192.01745523894257,27.11218886527741 L191.7480603140652,26.729190652400064 L191.48522566849886,26.34166103326507 L191.22902750648103,25.949712365203023 L190.97954010811884,25.553458286769278 L190.73683580785251,25.153013684796473 L190.50098497348358,24.74849466108511 L190.2720559857728,24.34001849874192 L190.05011521861434,23.927703628175703 L189.83522701979206,23.511669592760526 L189.62745369232283,23.092037014176267 L189.4268554763929,22.66892755743647 L189.23349053189241,22.242463895613753 L189.04741492155287,21.812769674272946 L188.8686825946928,21.37996947562221 L188.6973453715762,20.944188782392693 L188.53345292838793,20.505553941456988 L188.37705278283116,20.064192127197146 L188.2281902803505,19.620231304632682 L188.08690858098475,19.173800192319433 L187.95324864685352,18.725028225029867 L187.8272492302809,18.274045516225776 L187.70894686256003,17.820982820334194 L187.59837584336134,17.36597149483747 L187.4955682307882,16.909143462188503 L187.40055383208198,16.450631171562165 L187.31336019498013,15.990567560454018 L187.23401259972925,15.529086016137438 L187.1625340517553,15.066320336990362 L187.09894527499387,14.602404693702812 L187.04326470588146,14.137473590376487 L186.99550848801016,13.671661825527696 L186.95569046744723,13.205104453004909 L186.92382218872058,12.737936742832304 L186.89991289147162,12.270294141990616 L186.88396950777647,11.802312235146703 L186.8759966601361,11.334126705343165 L186.87599666013608,10.865873294659465 L186.8839695077764,10.397687764855927 L186.8999128914715,9.92970585801201 L186.9238221887204,9.462063257170321 L186.95569046744703,8.994895546997713 L186.99550848800993,8.528338174474921 L187.04326470588117,8.062526409626125 L187.09894527499355,7.597595306299796 L187.16253405175493,7.133679663012241 L187.23401259972883,6.670913983865158 L187.31336019497968,6.2094324395485465 L187.40055383208147,5.749368828440365 L187.49556823078765,5.290856537813994 L187.59837584336077,4.834028505164995 L187.7089468625594,4.379017179668238 L187.82724923028024,3.9259544837766223 L187.95324864685284,3.474971774972494 L188.08690858098404,3.0261998076828913 L188.22819028034976,2.579768695369607 L188.3770527828304,2.1358078728051115 L188.5334529283871,1.6944460585452283 L188.69734537157538,1.255811217609489 L188.86868259469196,0.8200305243799306 L189.047414921552,0.3872303257291616 L189.23349053189148,-0.04246389561168584 L189.42685547639195,-0.46892755743443715 L189.62745369232186,-0.8920370141742744 L189.83522701979106,-1.3116695927585749 L190.0501152186133,-1.7277036281737885 L190.27205598577174,-2.1400184987400444 L190.50098497348253,-2.5484946610832733 L190.73683580785146,-2.953013684794673 L190.97954010811776,-3.35345828676752 L191.22902750647992,-3.749712365201301 L191.48522566849772,-4.141661033263389 L191.74806031406408,-4.529190652398423 L192.01745523894144,-4.912188865275807 L192.2933323368557,-5.2905446283657 L192.5756116221419,-5.664148244134138 L192.8642112529345,-6.032891392847867 L193.15904755489603,-6.396667163979744 L193.46003504547699,-6.755370087205529 L193.76708645869996,-7.108896162983138 L194.08011277046086,-7.4571428927054715 L194.3990232243399,-7.800009308418053 L194.72372535791482,-8.1373960020929 L195.05412502956858,-8.469205154450124 L195.3901264457843,-8.795340563318868 L195.7316321889186,-9.115707671529451 L196.07854324544644,-9.430213594328512 L196.430759034668,-9.73876714630932 L196.7881774378705,-10.041278867849341 L197.15069482793567,-10.337661051047467 L197.51820609938446,-10.627827765153393 L197.8906046988507,-10.91169488148167 L198.26778265597417,-11.18918009780336 L198.64963061470485,-11.460202962208085 L199.0360378650087,-11.72468489642963 L199.42689237496597,-11.982549218628334 L199.82208082325303,-12.233721165623598 L200.22148863199783,-12.478127914570171 L200.62499999999957,-12.71569860407182 L201.03249793630346,-12.946364354726347 L201.44386429411995,-13.170058289095929 L201.85897980507937,-13.38671555109707 L202.27772411381173,-13.596273324804455 L202.69997581284156,-13.798670852663305 L203.1256124777878,-13.993849453104973 L203.55451070285875,-14.181752537560593 L203.98654613663118,-14.362325626867973 L204.42159351810395,-14.5355163670668 L204.85952671301519,-14.701274544577805 L205.30021875041268,-14.859552100761254 L205.74354185946675,-15.010303145850726 L206.1893675065153,-15.153483972257996 L206.63756643232978,-15.289053067245332 L207.0880086895916,-15.41697112496132 L207.540563680568,-15.53720105783693 L207.99510019497671,-15.649708007338395 L208.45148644802785,-15.754459354073807 L208.9095901186327,-15.851424727250555 L209.36927838776782,-15.94057601348077 L209.83041797698354,-16.021887364932326 L210.29287518704578,-16.095335206822945 L210.75651593669963,-16.160898244255293 L211.22120580154393,-16.218557468391054 L211.68681005300516,-16.26829616196222 L212.15319369739967,-16.310099904117926 L212.6202215150727,-16.34395657460557 L213.08775809960284,-16.36985635728483 L213.55566789706077,-16.387791742973704 L214.02381524531077,-16.39775753162563 L214.49206441334337,-16.39975083383718 L214.96027964062839,-16.393771071685784 L215.42832517647605,-16.379819978897274 L215.89606531939572,-16.357901600343233 L216.3633644564399,-16.32802229086826 L216.83008710252298,-16.290190713447494 L217.29609793970266,-16.244417836674906 L217.76126185641297,-16.19071693158321 L218.2254439866375,-16.129103567796115 L218.6885097490114,-16.05959560901421 L219.1503248858408,-15.982213207835683 L219.6107555020286,-15.896978799913464 L220.06966810389483,-15.803917097450379 L220.52692963788073,-15.703055082034298 L220.98240752912545,-15.594421996815294 L221.43596971990365,-15.478049338027118 L221.88748470791327,-15.353970845855434 L222.33682158440243,-15.222222494655417 L222.7838500721239,-15.082842482521682 L223.2284405631068,-14.935871220213373 L223.6704641562342,-14.781351319437809 L224.1097926946155,-14.619327580495971 L224.5462988027434,-14.449846979293449 L224.97985592342414,-14.272958653720613 L225.4103383544705,-14.088713889405954 L225.83762128514687,-13.897166104846724 L226.261580832356,-13.698370835921198 L226.6820940765566,-13.492385719787029 L227.09903909740183,-13.279270478170377 L227.51229500908772,-13.05908690005065 L227.92174199540204,-12.831898823745904 L228.32726134446287,-12.597772118404032 L228.72873548313683,-12.356774664905197 L229.1260480111276,-12.108976336180968 L229.5190837347239,-11.854448976955892 L229.90772870019788,-11.593266382917411 L230.29187022684408,-11.325504279320105 L230.67139693964918,-11.051240299030502 L231.0461988015831,-10.770553960018797 L231.41616714550244,-10.483526642304037 L231.78119470565642,-10.190241564359438 L232.14117564878683,-9.890783758984655 L232.4960056048124,-9.585240048652024 L232.84558169708913,-9.273699020333948 L233.18980257223743,-8.95625099981868 L233.52856842952792,-8.632988025521923 L233.86178104981667,-8.304003821801983 L234.18934382402225,-7.969393771786022 L234.51116178113574,-7.629254889715414 L234.8271416157559,-7.283685792818206 L235.13719171514146,-6.932786672716782 L235.4412221857725,-6.576659266379112 L235.73914487941363,-6.215406826621889 L236.0308734186709,-5.849134092174234 L236.31632322203538,-5.477947257310555 L236.59541152840615,-5.101953941061401 L236.86805742108533,-4.721263156011229 L237.13418185123848,-4.33598527669216 L237.39370766081342,-3.9462320075828234 L237.64655960491078,-3.552116350721647 L237.8926643736,-3.1537525729438958 L238.1319506131742,-2.7512561727520612 L238.36434894683788,-2.3447438468291057 L238.58979199482152,-1.9343334562043335 L238.80821439391724,-1.5201439920816835 L239.01955281642955,-1.1022955413403341 L239.2237459885362,-0.6809092517176527 L239.42073470805335,-0.256107296684565 L239.61046186160027,0.17198715997648684 L239.79287244115832,0.6032499998806866 L239.96791356001953,1.0375561860267624 L240.13553446812023,1.474779799049255 L240.29568656675497,1.9147940737265898 L240.4483234226671,2.3574714357344106 L240.59340078151098,2.8026835386334863 L240.73087658068303,3.2503013010814756 L240.86071096151682,3.700194944257783 L240.98286628083943,4.152234029490609 L241.0973071218855,4.6062874960753355 L241.20400030456562,5.062223699273243 L241.30291489508633,5.519910448479575 L241.39402221491883,5.979215045549841 L241.47729584911374,6.4400043232733015 L241.55271165395982,6.902144683982426 L241.62024776398377,7.3655021382871695 L241.67988459828993,7.829942343922811 L241.73160486623738,8.295330644700115 L241.77539357245288,8.761532109546494 L241.81123802117884,9.22841157162688 L241.83912781995392,9.695833667532952 L241.85905488262622,10.163662876529347 L241.8710134316979,10.63176355984549 L241.875,11.100000000001648 " />
			<path d="M241.375,11.099999999999994 L241.37102148803572,11.56349090337709 L241.35908712462864,12.026845213857563 L241.33920042689041,12.48992637879934 L241.31136725552216,12.952597926057601 L241.27559581308725,13.414723504203726 L241.2318966415939,13.876166922708705 L241.18028261938858,14.336792192079107 L241.12076895736053,14.7964635639338 L241.05337319445908,15.255045571009635 L240.97811519252494,15.712403067084256 L240.8950171304367,16.168401266804324 L240.80410349757466,16.622905785407376 L240.70540108660373,17.07578267832563 L240.59893898557746,17.526898480660062 L240.48474856936565,17.976120246513123 L240.36286349040813,18.423315588168514 L240.2333196687971,18.86835271510645 L240.09615528169135,19.311100472842924 L239.95141075206539,19.751428381581537 L239.79912873679643,20.189206674666508 L239.63935411409335,20.62430633682549 L239.47213397027085,21.056599142190954 L239.29751758587278,21.48595769208896 L239.11555642114917,21.91225545258412 L238.9263041008904,22.33536679176973 L238.72981639862394,22.75516701679208 L238.52615122017752,23.17153241059799 L238.31536858661403,23.58434026839482 L238.09753061654305,23.993468933812096 L237.87270150781424,24.398797834754248 L237.6409475185979,24.800207518933735 L237.40233694785837,25.197579689074175 L237.15694011522606,25.590797237773117 L236.90482934027395,25.979744282014103 L236.64607892120452,26.36430619731796 L236.38076511295398,26.744369651523122 L236.10896610471937,27.119822638185163 L235.83076199691595,27.490554509585607 L235.54623477757127,27.856456009340313 L235.25546829816278,28.217419304597833 L234.95854824890662,28.57333801781826 L234.65556213350413,28.92410725812315 L234.3465992433542,29.26962365220738 L234.0317506312387,29.609785374803714 L233.71110908448873,29.944492178691164 L233.38476909763986,30.27364542423836 L233.0528268445841,30.59714810847303 L232.71538015022702,30.914904893669267 L232.37252846165833,31.226822135443996 L232.02437281884428,31.53280791035438 L231.67101582485085,31.83277204298809 L231.31256161560606,32.126626132538426 L230.94911582921065,32.41428357885642 L230.5807855748061,32.69565960797232 L230.20767940100893,32.97067129707882 L229.82990726392114,33.23923759896888 L229.4475804947255,33.5012793659206 L229.06081176687573,33.75671937302253 L228.66971506289116,34.005482340932105 L228.2744056407656,34.24749495806087 L227.87500000000017,34.48268590217974 L227.47161584727047,34.71098586143797 L227.06437206173783,34.93232755478968 L226.65338866001505,35.14664575182189 L226.238786760797,35.353877291978236 L225.82068854916645,35.55396110317263 L225.39921724058533,35.74683821978757 L224.97449704458285,35.93245180005147 L224.5466531281502,36.11074714279028 L224.11581157885337,36.28167170354812 L223.68209936767443,36.44517511007241 L223.24564431159277,36.60120917715877 L222.8065750359167,36.74972792085145 L222.36502093637705,36.89068757199498 L221.9211121409937,37.02404658913318 L221.47497947172616,37.14976567075158 L221.02675440591975,37.26780776685978 L220.57656903755873,37.378138089910266 L220.1245560383375,37.480724125050415 L219.6708486185616,37.5755356397048 L219.21558048789012,37.66254469248489 L218.75888581593088,37.74172564142345 L218.3008991926999,37.8130551515314 L217.84175558895714,37.87651220167471 L217.38159031643013,37.93207809076942 L216.92053898793674,37.97973644329301 L216.45873747741973,38.0194732141102 L215.9963218799039,38.05127669261226 L215.53342847138828,38.075137506168105 L215.070193668685,38.09104862288645 L214.60675398921666,38.09900535368816 L214.14324601078397,38.09900535368817 L213.67980633131563,38.09104862288646 L213.21657152861235,38.075137506168126 L212.7536781200967,38.0512766926123 L212.29126252258087,38.01947321411024 L211.82946101206386,37.97973644329306 L211.3684096835705,37.932078090769494 L210.90824441104346,37.876512201674785 L210.4491008073007,37.813055151531486 L209.99111418406972,37.74172564142356 L209.53441951211047,37.662544692485 L209.07915138143903,37.575535639704924 L208.6254439616631,37.48072412505054 L208.17343096244187,37.37813808991041 L207.72324559408085,37.26780776685993 L207.27502052827444,37.14976567075174 L206.8288878590069,37.02404658913335 L206.38497906362355,36.89068757199516 L205.9434249640839,36.74972792085164 L205.50435568840783,36.60120917715898 L205.06790063232614,36.445175110072626 L204.6341884211472,36.28167170354834 L204.20334687185036,36.11074714279051 L203.77550295541772,35.93245180005171 L203.35078275941524,35.74683821978782 L202.92931145083412,35.553961103172895 L202.51121323920353,35.353877291978506 L202.0966113399855,35.14664575182217 L201.6856279382627,34.93232755478997 L201.27838415273004,34.71098586143827 L200.87500000000034,34.482685902180044 L200.47559435923492,34.24749495806118 L200.08028493710935,34.005482340932424 L199.68918823312478,33.75671937302286 L199.302419505275,33.501279365920944 L198.92009273607934,33.239237598969225 L198.54232059899155,32.97067129707918 L198.1692144251944,32.69565960797268 L197.80088417078983,32.4142835788568 L197.4374383843944,32.12662613253881 L197.0789841751496,31.83277204298848 L196.72562718115617,31.532807910354776 L196.37747153834212,31.2268221354444 L196.0346198497734,30.914904893669686 L195.69717315541632,30.597148108473448 L195.36523090236057,30.273645424238786 L195.0388909155117,29.944492178691604 L194.71824936876172,29.609785374804154 L194.40340075664622,29.269623652207834 L194.09443786649626,28.924107258123612 L193.79145175109377,28.573338017818728 L193.4945317018376,28.21741930459831 L193.20376522242913,27.85645600934079 L192.91923800308442,27.49055450958609 L192.641033895281,27.119822638185653 L192.3692348870464,26.74436965152362 L192.10392107879582,26.364306197318463 L191.8451706597264,25.979744282014614 L191.59305988477425,25.590797237773636 L191.34766305214194,25.1975796890747 L191.10905248140241,24.800207518934265 L190.87729849218607,24.39879783475478 L190.65246938345723,23.99346893381263 L190.43463141338626,23.58434026839536 L190.22384877982276,23.171532410598537 L190.02018360137632,22.755167016792633 L189.82369589910985,22.335366791770287 L189.6344435788511,21.91225545258468 L189.45248241412745,21.48595769208952 L189.27786602972938,21.056599142191523 L189.11064588590685,20.624306336826063 L188.9508712632038,20.189206674667087 L188.7985892479348,19.751428381582116 L188.65384471830885,19.311100472843506 L188.51668033120308,18.868352715107036 L188.38713650959204,18.423315588169103 L188.2652514306345,17.976120246513716 L188.15106101442268,17.526898480660655 L188.04459891339638,17.075782678326227 L187.94589650242546,16.62290578540798 L187.8549828695634,16.168401266804928 L187.77188480747515,15.712403067084859 L187.696626805541,15.255045571010239 L187.62923104263956,14.796463563934408 L187.56971738061148,14.336792192079717 L187.51810335840617,13.876166922709315 L187.4744041869128,13.414723504204336 L187.43863274447787,12.952597926058212 L187.4107995731096,12.489926378799954 L187.39091287537138,12.026845213858175 L187.37897851196428,11.563490903377703 L187.375,11.100000000000607 L187.37897851196425,10.636509096623511 L187.39091287537133,10.173154786143039 L187.41079957310956,9.71007362120126 L187.4386327444778,9.247402073943 L187.4744041869127,8.785276495796875 L187.51810335840602,8.323833077291894 L187.56971738061134,7.863207807921491 L187.6292310426394,7.403536436066796 L187.6966268055408,6.944954428990961 L187.77188480747495,6.487596932916314 L187.8549828695632,6.031598733196219 L187.94589650242523,5.57709421459314 L188.04459891339616,5.1242173216748625 L188.15106101442242,4.673101519340407 L188.26525143063424,4.22387975348732 L188.38713650959176,3.7766844118319023 L188.5166803312028,3.3316472848939434 L188.65384471830853,2.888899527157447 L188.7985892479345,2.4485716184188053 L188.95087126320345,2.0107933253338075 L189.11064588590654,1.575693663174805 L189.27786602972907,1.1434008578093167 L189.4524824141271,0.7140423079112885 L189.63444357885075,0.28774454741610356 L189.8236958991095,-0.13536679176953115 L190.02018360137598,-0.5551670167919056 L190.2238487798224,-0.97153241059784 L190.43463141338592,-1.384340268394686 L190.6524693834569,-1.7934689338119867 L190.8772984921857,-2.1987978347541617 L191.10905248140207,-2.600207518933672 L191.3476630521416,-2.9975796890741346 L191.5930598847739,-3.3907972377730946 L191.84517065972605,-3.7797442820141036 L192.10392107879548,-4.164306197317977 L192.36923488704605,-4.544369651523157 L192.64103389528069,-4.919822638185215 L192.9192380030841,-5.290554509585677 L193.2037652224288,-5.656456009340401 L193.4945317018373,-6.017419304597942 L193.7914517510935,-6.373338017818385 L194.09443786649598,-6.724107258123292 L194.40340075664594,-7.069623652207538 L194.71824936876146,-7.409785374803883 L195.03889091551144,-7.744492178691354 L195.36523090236034,-8.073645424238558 L195.69717315541612,-8.39714810847324 L196.0346198497732,-8.714904893669493 L196.37747153834192,-9.026822135444233 L196.725627181156,-9.33280791035463 L197.07898417514946,-9.632772042988352 L197.43743838439426,-9.926626132538695 L197.8008841707897,-10.2142835788567 L198.1692144251943,-10.4956596079726 L198.54232059899147,-10.770671297079117 L198.92009273607928,-11.039237598969175 L199.30241950527494,-11.30127936592091 L199.68918823312475,-11.556719373022842 L200.08028493710933,-11.805482340932416 L200.47559435923492,-12.047494958061188 L200.87500000000037,-12.282685902180061 L201.2783841527301,-12.510985861438295 L201.68562793826277,-12.732327554790006 L202.0966113399856,-12.946645751822219 L202.51121323920364,-13.153877291978558 L202.92931145083426,-13.353961103172958 L203.35078275941538,-13.546838219787888 L203.7755029554179,-13.73245180005179 L204.20334687185056,-13.910747142790592 L204.63418842114743,-14.081671703548432 L205.0679006323264,-14.245175110072717 L205.50435568840808,-14.401209177159073 L205.9434249640842,-14.549727920851742 L206.38497906362386,-14.690687571995264 L206.82888785900724,-14.82404658913345 L207.27502052827484,-14.94976567075184 L207.72324559408125,-15.067807766860037 L208.1734309624423,-15.17813808991051 L208.62544396166356,-15.280724125050645 L209.0791513814395,-15.375535639705022 L209.534419512111,-15.462544692485094 L209.99111418407023,-15.54172564142364 L210.44910080730125,-15.61305515153157 L210.90824441104402,-15.676512201674859 L211.3684096835711,-15.73207809076956 L211.82946101206448,-15.77973644329312 L212.29126252258152,-15.819473214110298 L212.7536781200974,-15.85127669261234 L213.21657152861306,-15.87513750616816 L213.67980633131634,-15.891048622886478 L214.1432460107847,-15.899005353688176 L214.60675398921742,-15.899005353688159 L215.0701936686858,-15.891048622886425 L215.5334284713891,-15.875137506168068 L215.99632187990474,-15.851276692612212 L216.4587374774206,-15.81947321411013 L216.92053898793765,-15.77973644329292 L217.38159031643104,-15.732078090769322 L217.84175558895808,-15.676512201674585 L218.30089919270085,-15.613055151531258 L218.75888581593188,-15.541725641423293 L219.21558048789112,-15.46254469248471 L219.6708486185626,-15.375535639704603 L220.1245560383385,-15.280724125050186 L220.57656903755978,-15.178138089910016 L221.02675440592083,-15.067807766859511 L221.47497947172724,-14.949765670751281 L221.9211121409948,-14.824046589132854 L222.3650209363782,-14.690687571994632 L222.80657503591783,-14.549727920851074 L223.24564431159394,-14.401209177158373 L223.68209936767562,-14.245175110071981 L224.11581157885456,-14.081671703547661 L224.54665312815143,-13.910747142789786 L224.97449704458407,-13.732451800050947 L225.39921724058655,-13.546838219787018 L225.8206885491677,-13.353961103172056 L226.23878676079826,-13.15387729197762 L226.6533886600163,-12.946645751821245 L227.0643720617391,-12.732327554789 L227.47161584727178,-12.510985861437257 L227.87500000000148,-12.282685902178995 L228.2744056407669,-12.047494958060087 L228.66971506289246,-11.805482340931283 L229.06081176687704,-11.556719373021673 L229.44758049472682,-11.301279365919717 L229.82990726392248,-11.039237598967953 L230.20767940101027,-10.77067129707786 L230.5807855748074,-10.495659607971318 L230.949115829212,-10.214283578855385 L231.3125616156074,-9.926626132537356 L231.6710158248522,-9.63277204298698 L232.02437281884562,-9.33280791035323 L232.37252846165967,-9.026822135442805 L232.71538015022836,-8.714904893668036 L233.05282684458544,-8.39714810847176 L233.38476909764117,-8.073645424237052 L233.71110908449003,-7.744492178689823 L234.03175063124,-7.409785374802324 L234.3465992433555,-7.069623652205953 L234.6555621335054,-6.724107258121686 L234.9585482489079,-6.373338017816755 L235.25546829816406,-6.01741930459629 L235.54623477757252,-5.6564560093387275 L235.8307619969172,-5.290554509583979 L236.1089661047206,-4.919822638183495 L236.3807651129552,-4.5443696515214125 L236.6460789212057,-4.164306197316211 L236.9048293402751,-3.7797442820123184 L237.15694011522723,-3.39079723777129 L237.4023369478595,-2.9975796890723103 L237.64094751859903,-2.6002075189318283 L237.87270150781535,-2.198797834752302 L238.09753061654413,-1.7934689338101073 L238.31536858661508,-1.3843402683927888 L238.52615122017855,-0.9715324105959251 L238.72981639862496,-0.5551670167899765 L238.92630410089137,-0.1353667917675878 L239.1155564211501,0.2877445474180629 L239.29751758587372,0.7140423079132621 L239.47213397027173,1.1434008578113062 L239.63935411409423,1.5756936631768053 L239.79912873679726,2.010793325335822 L239.95141075206618,2.448571618420832 L240.09615528169212,2.8888995271594826 L240.23331966879783,3.3316472848959915 L240.36286349040884,3.77668441183396 L240.48474856936633,4.223879753489388 L240.5989389855781,4.673101519342484 L240.70540108660433,5.124217321676947 L240.80410349757523,5.577094214595234 L240.89501713043722,6.03159873319832 L240.97811519252542,6.4875969329184215 L241.0533731944595,6.944954428993074 L241.1207689573609,7.403536436068938 L241.18028261938892,7.863207807923661 L241.2318966415942,8.323833077294092 L241.27559581308748,8.785276495799101 L241.31136725552238,9.247402073945253 L241.33920042689059,9.71007362120354 L241.35908712462873,10.173154786145345 L241.37102148803578,10.636509096625842 L241.375,11.10000000000296 " />

       </g>

       <!-- solid lines -->
       <g  stroke="rgb(0,0,0)" fill="none">
			<path d="M-181.875,-43.6 L-181.875,43.6 " />
			<path d="M-181.875,-43.6 L-61.575,-43.6 " />
			<path d="M-61.575,-43.6 L-61.575,43.6 " />
			<path d="M-181.875,43.6 L-61.575,43.6 " />
			<path d="M-178.875,-17.05 L-169.35,-17.05 " />
			<path d="M-178.875,40.1 L-178.875,-17.050000000000004 " />
			<path d="M-64.575,40.1 L-178.875,40.1 " />
			<path d="M-64.575,-17.05 L-64.575,40.10000000000001 " />
			<path d="M-74.1,-17.05 L-64.575,-17.05 " />
			<path d="M-74.1,-28.575 L-74.1,-17.05 " />
			<path d="M-169.35,-28.575 L-74.1,-28.575 " />
			<path d="M-169.35,-17.05 L-169.35,-28.574999999999996 " />
			<path d="M-31.575,-41.1 L-31.575,41.1 " />
			<path d="M-31.575,-41.1 L31.575,-41.1 " />
			<path d="M31.575,-41.1 L31.575,41.1 " />
			<path d="M-31.575,41.1 L31.575,41.1 " />
			<path d="M-28.575,-38.1 L28.575,-38.1 " />
			<path d="M-28.575,38.1 L-28.575,-38.1 " />
			<path d="M28.575,38.1 L-28.575,38.1 " />
			<path d="M28.575,-38.1 L28.575,38.1 " />
			<path d="M61.575,-43.6 L61.575,-28.575 " />
			<path d="M61.575,-9.524999999999999 L61.575,43.6 " />
			<path d="M61.575,-9.525000000000002 L61.575,-28.575 " />
			<path d="M61.575,-43.6 L131.375,-43.6 " />
			<path d="M131.375,-38.45 L131.375,-43.6 " />
			<path d="M167.375,-38.45 L131.375,-38.45 " />
			<path d="M167.375,-43.6 L167.375,-38.45 " />
			<path d="M167.375,-43.6 L246.875,-43.6 " />
			<path d="M246.875,-43.6 L246.875,43.6 " />
			<path d="M61.575,43.6 L246.875,43.6 " />
			<path d="M64.575,-9.525 L61.575,-9.525 " />
			<path d="M64.575,40.1 L64.575,-9.524999999999999 " />
			<path d="M178.875,40.1 L64.575,40.1 " />
			<path d="M178.875,-17.05 L178.875,40.10000000000001 " />
			<path d="M136.85,-17.05 L178.875,-17.05 " />
			<path d="M136.85,-28.575 L136.85,-17.05 " />
			<path d="M61.575,-28.575 L136.85,-28.575 " />
			<path d="M240.608328038966,11.1 L240.60433257604168,11.55783470313862 L240.59234740432547,12.01552994539152 L240.57237617461672,12.472946308354116 L240.54442497034555,12.929944458571157 L240.50850230571945,13.386385189979048 L240.46461912313015,13.84212946630936 L240.4127887898201,14.29703846344063 L240.35302709381094,14.75097361168553 L240.28535223909424,15.203796638000535 L240.20978484008626,15.655369608105232 L240.12634791534882,16.105554968498446 L240.03506688057746,16.554215588358353 L239.93596954085962,17.00121480131388 L239.82908608220498,17.44641644707457 L239.7144490623504,17.88968491290636 L239.5920934008427,18.330885174940533 L239.46205636840165,18.769882839303257 L239.32437757556698,19.206544183053307 L239.17909896063276,19.64073619491534 L239.0262647768724,20.072326615796438 L238.8659215790589,20.50118397907348 L238.69811820928348,20.927177650639187 L238.5229057820782,21.350177868694495 L238.34033766884568,21.7700557832753 L238.15046948160176,22.186683495501367 L237.95335905603565,22.59993409653559 L237.74906643389235,23.009681706241643 L237.53765384468363,23.4158015115283 L237.31918568673214,23.818169804368697 L237.09372850755517,24.216664019483005 L236.86135098359352,24.611162771673 L236.6221238992921,25.001545892797175 L236.37612012553822,25.387694468375102 L236.1234145974645,25.769490873809957 L235.86408429162273,26.1468188102181 L235.5982082025363,26.519563339854848 L235.32586731863756,26.887610921125606 L235.04714459759793,27.250849443171774 L234.76212494105835,27.60916826002076 L234.47089516876719,27.962458224289833 L234.17354399213428,28.310611720433492 L233.8701619872086,28.653522697524167 L233.56084156708775,28.991086701556384 L233.24567695376814,29.323200907264457 L232.92476414944403,29.649764149444067 L232.59820090726444,29.970676953768155 L232.26608670155636,30.285841567087772 L231.92852269752416,30.595161987208634 L231.58561172043346,30.898543992134314 L231.2374582242898,31.195895168767194 L230.88416826002074,31.487124941058354 L230.52584944317175,31.772144597597958 L230.16261092112558,32.05086731863757 L229.79456333985482,32.32320820253632 L229.42181881021807,32.58908429162274 L229.04449087380993,32.8484145974645 L228.66269446837507,33.101120125538245 L228.27654589279715,33.34712389929212 L227.88616277167299,33.58635098359353 L227.49166401948298,33.81872850755518 L227.09316980436867,34.044185686732156 L226.69080151152826,34.26265384468363 L226.28468170624163,34.47406643389236 L225.87493409653555,34.67835905603565 L225.46168349550135,34.87546948160178 L225.04505578327527,35.06533766884568 L224.62517786869446,35.247905782078206 L224.20217765063916,35.42311820928349 L223.77618397907344,35.59092157905889 L223.34732661579642,35.751264776872425 L222.91573619491533,35.90409896063276 L222.48154418305327,36.049377575566986 L222.04488283930323,36.18705636840165 L221.6058851749405,36.31709340084272 L221.16468491290632,36.43944906235043 L220.72141644707455,36.55408608220499 L220.27621480131384,36.66096954085964 L219.82921558835832,36.76006688057747 L219.38055496849842,36.85134791534883 L218.9303696081052,36.934784840086266 L218.4787966380005,37.01035223909423 L218.0259736116855,37.07802709381095 L217.57203846344058,37.1377887898201 L217.1171294663093,37.18961912313014 L216.661385189979,37.23350230571946 L216.2049444585711,37.26942497034554 L215.74794630835407,37.29737617461674 L215.29052994539148,37.31734740432547 L214.8328347031386,37.329332576041686 L214.37499999999994,37.333328038966 L213.91716529686133,37.329332576041686 L213.45947005460843,37.31734740432546 L213.00205369164584,37.29737617461673 L212.54505554142878,37.26942497034553 L212.0886148100209,37.233502305719455 L211.63287053369058,37.18961912313013 L211.1779615365593,37.137788789820085 L210.72402638831443,37.07802709381094 L210.27120336199943,37.01035223909422 L209.81963039189472,36.93478484008625 L209.3694450315015,36.85134791534881 L208.9207844116416,36.760066880577455 L208.47378519868607,36.66096954085962 L208.02858355292537,36.55408608220497 L207.5853150870936,36.439449062350405 L207.1441148250594,36.317093400842694 L206.7051171606967,36.18705636840162 L206.26845581694664,36.04937757556696 L205.83426380508462,35.90409896063273 L205.40267338420352,35.7512647768724 L204.97381602092648,35.59092157905886 L204.54782234936076,35.42311820928346 L204.12482213130545,35.24790578207817 L203.70494421672464,35.06533766884564 L203.2883165044986,34.875469481601755 L202.87506590346436,34.67835905603562 L202.46531829375832,34.474066433892325 L202.05919848847168,34.262653844683605 L201.65683019563127,34.04418568673213 L201.25833598051696,33.81872850755515 L200.863837228327,33.58635098359351 L200.47345410720283,33.34712389929209 L200.0873055316249,33.10112012553822 L199.70550912619004,32.84841459746448 L199.3281811897819,32.589084291622726 L198.95543666014515,32.32320820253631 L198.5873890788744,32.050867318637565 L198.22415055682825,31.772144597597958 L197.86583173997926,31.487124941058354 L197.5125417757102,31.195895168767194 L197.16438827956654,30.89854399213432 L196.82147730247587,30.59516198720864 L196.48391329844367,30.285841567087786 L196.1517990927356,29.97067695376817 L195.82523585055597,29.64976414944409 L195.5043230462319,29.323200907264486 L195.18915843291228,28.991086701556412 L194.87983801279142,28.653522697524203 L194.57645600786574,28.310611720433535 L194.27910483123287,27.962458224289882 L193.9878750589417,27.60916826002081 L193.70285540240212,27.25084944317183 L193.4241326813625,26.88761092112567 L193.15179179746374,26.51956333985492 L192.88591570837733,26.14681881021818 L192.62658540253557,25.769490873810042 L192.37387987446184,25.387694468375187 L192.12787610070797,25.001545892797267 L191.88864901640653,24.6111627716731 L191.6562714924449,24.21666401948311 L191.43081431326792,23.818169804368807 L191.21234615531645,23.415801511528414 L191.00093356610773,23.009681706241764 L190.79664094396443,22.59993409653572 L190.5995305183983,22.1866834955015 L190.4096623311544,21.77005578327544 L190.22709421792186,21.350177868694644 L190.05188179071658,20.927177650639337 L189.8840784209412,20.501183979073637 L189.72373522312765,20.072326615796605 L189.5709010393673,19.640736194915515 L189.42562242443307,19.206544183053488 L189.2879436315984,18.769882839303442 L189.15790659915734,18.330885174940725 L189.03555093764965,17.88968491290656 L188.92091391779508,17.44641644707477 L188.8140304591404,17.001214801314088 L188.7149331194226,16.55421558835857 L188.6236520846512,16.10555496849867 L188.54021515991377,15.65536960810546 L188.46464776090582,15.203796638000767 L188.3969729061891,14.750973611685769 L188.33721121017993,14.297038463440876 L188.28538087686988,13.842129466309611 L188.24149769428055,13.386385189979304 L188.20557502965448,12.92994445857142 L188.17762382538328,12.472946308354382 L188.15765259567456,12.015529945391792 L188.14566742395832,11.557834703138898 L188.141671961034,11.100000000000282 L188.14566742395832,10.642165296861668 L188.15765259567453,10.184470054608772 L188.17762382538325,9.727053691646182 L188.20557502965445,9.270055541429144 L188.24149769428053,8.813614810021258 L188.28538087686982,8.357870533690951 L188.33721121017987,7.902961536559685 L188.396972906189,7.44902638831479 L188.46464776090573,6.9962033619997905 L188.54021515991369,6.544630391895096 L188.6236520846511,6.094445031501887 L188.71493311942245,5.645784411641982 L188.8140304591403,5.198785198686463 L188.92091391779493,4.753583552925776 L189.03555093764948,4.310315087093985 L189.1579065991572,3.8691148250598184 L189.28794363159824,3.4301171606970966 L189.4256224244329,2.9934558169470495 L189.57090103936713,2.5592638050850187 L189.72373522312745,2.127673384203927 L189.88407842094097,1.6988160209268859 L190.05188179071638,1.272822349361185 L190.22709421792166,0.8498221313058778 L190.40966233115415,0.429944216725076 L190.59953051839804,0.013316504499011117 L190.79664094396418,-0.39993409653521006 L191.00093356610745,-0.8096817062412622 L191.21234615531617,-1.2158015115279177 L191.43081431326766,-1.6181698043683124 L191.6562714924446,-2.0166640194826204 L191.88864901640625,-2.4111627716726165 L192.12787610070765,-2.8015458927967885 L192.37387987446152,-3.1876944683747137 L192.62658540253526,-3.5694908738095723 L192.885915708377,-3.9468188102177155 L193.1517917974634,-4.31956333985446 L193.42413268136215,-4.687610921125222 L193.70285540240175,-5.050849443171389 L193.98787505894134,-5.409168260020371 L194.2791048312325,-5.7624582242894515 L194.57645600786537,-6.110611720433111 L194.87983801279105,-6.453522697523786 L195.1891584329119,-6.791086701556003 L195.5043230462315,-7.123200907264076 L195.82523585055557,-7.4497641494436895 L196.1517990927352,-7.770676953767778 L196.48391329844324,-8.085841567087401 L196.82147730247544,-8.395161987208267 L197.1643882795661,-8.698543992133954 L197.51254177570976,-8.995895168766834 L197.86583173997883,-9.287124941058002 L198.2241505568278,-9.572144597597608 L198.58738907887397,-9.850867318637226 L198.9554366601447,-10.123208202535976 L199.32818118978145,-10.389084291622401 L199.70550912618958,-10.648414597464162 L200.08730553162442,-10.901120125537917 L200.47345410720234,-11.147123899291797 L200.8638372283265,-11.38635098359322 L201.25833598051648,-11.618728507554868 L201.6568301956308,-11.844185686731853 L202.05919848847117,-12.062653844683341 L202.4653182937578,-12.274066433892072 L202.87506590346385,-12.478359056035375 L203.28831650449808,-12.675469481601512 L203.70494421672413,-12.865337668845415 L204.12482213130494,-13.047905782077946 L204.54782234936022,-13.22311820928324 L204.97381602092594,-13.39092157905865 L205.40267338420296,-13.551264776872197 L205.83426380508405,-13.70409896063254 L206.26845581694607,-13.849377575566775 L206.70511716069612,-13.987056368401445 L207.14411482505884,-14.11709340084253 L207.585315087093,-14.239449062350245 L208.02858355292477,-14.354086082204814 L208.47378519868545,-14.460969540859475 L208.92078441164097,-14.560066880577319 L209.36944503150087,-14.651347915348692 L209.81963039189407,-14.73478484008614 L210.27120336199877,-14.810352239094117 L210.72402638831377,-14.878027093810848 L211.17796153655866,-14.937788789820006 L211.63287053368992,-14.989619123130064 L212.08861481002023,-15.033502305719393 L212.54505554142813,-15.069424970345485 L213.00205369164516,-15.097376174616697 L213.45947005460775,-15.117347404325438 L213.91716529686065,-15.129332576041675 L214.37499999999926,-15.133328038966 L214.83283470313788,-15.1293325760417 L215.29052994539077,-15.117347404325491 L215.74794630835336,-15.097376174616775 L216.2049444585704,-15.069424970345592 L216.66138518997826,-15.033502305719525 L217.1171294663086,-14.989619123130216 L217.57203846343984,-14.937788789820187 L218.02597361168475,-14.878027093811058 L218.47879663799975,-14.810352239094351 L218.93036960810446,-14.7347848400864 L219.38055496849765,-14.65134791534898 L219.82921558835756,-14.560066880577635 L220.27621480131307,-14.460969540859812 L220.72141644707378,-14.354086082205177 L221.16468491290556,-14.239449062350632 L221.60588517493974,-14.117093400842942 L222.04488283930246,-13.987056368401882 L222.4815441830525,-13.849377575567237 L222.91573619491453,-13.704098960633031 L223.34732661579562,-13.551264776872708 L223.77618397907267,-13.39092157905919 L224.2021776506384,-13.223118209283802 L224.6251778686937,-13.047905782078532 L225.0450557832745,-12.865337668846022 L225.46168349550055,-12.675469481602148 L225.8749340965348,-12.478359056036032 L226.28468170624086,-12.27406643389275 L226.6908015115275,-12.062653844684045 L227.0931698043679,-11.844185686732581 L227.49166401948222,-11.618728507555621 L227.88616277167222,-11.386350983593994 L228.27654589279638,-11.14712389929259 L228.66269446837433,-10.901120125538734 L229.0444908738092,-10.648414597465004 L229.42181881021733,-10.389084291623265 L229.79456333985408,-10.12320820253686 L230.16261092112484,-9.850867318638128 L230.525849443171,-9.572144597598532 L230.88416826002,-9.287124941058947 L231.2374582242891,-8.9958951687678 L231.58561172043275,-8.698543992134939 L231.92852269752345,-8.395161987209269 L232.26608670155565,-8.085841567088424 L232.59820090726373,-7.770676953768822 L232.92476414944335,-7.449764149444748 L233.24567695376746,-7.123200907265156 L233.5608415670871,-6.7910867015571 L233.87016198720795,-6.453522697524901 L234.17354399213366,-6.110611720434241 L234.47089516876653,-5.762458224290599 L234.7621249410577,-5.40916826002154 L235.0471445975973,-5.050849443172572 L235.32586731863694,-4.687610921126419 L235.59820820253572,-4.319563339855673 L235.86408429162213,-3.9468188102189448 L236.1234145974639,-3.5694908738108158 L236.37612012553765,-3.187694468375973 L236.62212389929155,-2.801545892798062 L236.86135098359298,-2.4111627716739044 L237.09372850755463,-2.0166640194839207 L237.31918568673163,-1.6181698043696269 L237.53765384468312,-1.2158015115292429 L237.74906643389187,-0.8096817062425998 L237.95335905603517,-0.3999340965365601 L238.1504694816013,0.013316504497650428 L238.34033766884522,0.42994421672370464 L238.52290578207777,0.8498221313044958 L238.69811820928305,1.272822349359794 L238.8659215790585,1.6988160209254861 L239.02626477687204,2.1276733842025166 L239.1790989606324,2.5592638050835994 L239.32437757556664,2.993455816945623 L239.4620563684013,3.430117160695662 L239.5920934008424,3.869114825058375 L239.71444906235013,4.310315087092534 L239.8290860822047,4.7535835529243196 L239.93596954085936,5.198785198685001 L240.03506688057723,5.645784411640514 L240.12634791534862,6.094445031500413 L240.20978484008606,6.544630391893618 L240.28535223909404,6.996203361998307 L240.3530270938108,7.449026388313304 L240.41278878981996,7.902961536558195 L240.46461912313,8.357870533689457 L240.50850230571936,8.813614810019764 L240.54442497034546,9.270055541427647 L240.57237617461666,9.727053691644683 L240.5923474043254,10.184470054607273 L240.60433257604166,10.642165296860167 L240.608328038966,11.099999999998781 " />
			<path d="M131.375,-43.6 L167.375,-43.6 " />

       </g>
    </g>
    
</svg>
