<?xml version="1.0" encoding="UTF-8" standalone="no"?>
<svg
   xmlns:svg="http://www.w3.org/2000/svg"
   xmlns="http://www.w3.org/2000/svg"
   width="800.0"
   height="600.0"

>
    <g transform="scale(1.6445937347104507, -1.6445937347104507)   translate(327.0074235162288,-103.27653007231577)" stroke-width="0.608052906255332"  fill="none">
       <!-- hidden lines -->
       <g  stroke="rgb(160,160,160)" fill="none" stroke-dasharray="0.608052906255332,0.608052906255332" >
			<path d="M159.43490148803681,-43.373756376625664 L97.77519016856986,-70.72643441706506 " />
			<path d="M97.77519016856986,-70.72643441706506 L97.77519016856986,-85.96219872530457 " />
			<path d="M97.77519016856986,-70.72643441706506 L12.710244391828192,-32.99103111127538 " />
			<path d="M138.53989610397434,-65.99662582078659 L138.53989610397434,-64.65229367594193 " />
			<path d="M138.53989610397434,-64.65229367594193 L131.80470401317248,-61.66451548402467 " />
			<path d="M138.4388808495191,-58.72154836360223 L139.95410966634742,-58.0493822911799 " />
			<path d="M139.95410966634742,-59.39371443602456 L139.95410966634742,-58.049382291179896 " />
			<path d="M139.95410966634742,-58.049382291179896 L72.60218875832877,-28.171600372007273 " />
			<path d="M72.60218875832877,-29.515932516851937 L72.60218875832877,-28.171600372007273 " />
			<path d="M72.60218875832877,-28.171600372007273 L64.45278310515381,-31.786733564852042 " />
			<path d="M64.45278310515381,-31.786733564852042 L64.45278310515381,-33.131065709696706 " />
			<path d="M64.45278310515381,-31.786733564852042 L57.71759101435196,-28.798955372934785 " />
			<path d="M57.717591014351946,-30.143287517779445 L57.717591014351946,-28.79895537293478 " />
			<path d="M57.717591014351946,-28.798955372934785 L17.306438469540748,-46.72562452443836 " />
			<path d="M17.30643846954075,-48.06995666928302 L17.30643846954075,-46.72562452443836 " />
			<path d="M17.30643846954075,-46.72562452443836 L18.82166728636907,-47.397790596860695 " />
			<path d="M137.02466728714603,-65.32445974836426 L138.53989610397434,-64.65229367594193 " />
			<path d="M51.388985322732346,2.987778191917264 L-6.735192090801865,-22.796512346203365 " />
			<path d="M-6.735192090801867,-22.796512346203365 L-6.735192090801867,-38.032276654442875 " />
			<path d="M-6.735192090801867,-22.796512346203365 L-51.388985322732346,-2.9877781919172604 " />
			<path d="M47.14634463561306,-12.247986116322245 L47.14634463561306,-10.903653971477583 " />
			<path d="M47.14634463561306,-10.903653971477583 L6.7351920908018705,7.0230151800259915 " />
			<path d="M6.735192090801868,5.678683035181327 L6.735192090801868,7.02301518002599 " />
			<path d="M6.735192090801868,7.02301518002599 L-47.14634463561306,-16.879210355312114 " />
			<path d="M-47.14634463561306,-18.22354250015677 L-47.14634463561306,-16.879210355312107 " />
			<path d="M-47.14634463561306,-16.87921035531211 L-45.63111581878474,-17.551376427734443 " />
			<path d="M45.63111581878476,-11.575820043899908 L47.14634463561306,-10.903653971477583 " />
			<path d="M-12.710244391828194,32.99103111127539 L-74.36995571129515,5.638353070835988 " />
			<path d="M-74.36995571129515,5.63835307083599 L-74.36995571129515,-9.59741123740352 " />
			<path d="M-24.849752595984388,13.7144284309903 L-23.334523779156076,14.38659450341263 " />
			<path d="M-23.334523779156072,13.042262358567967 L-23.334523779156072,14.386594503412631 " />
			<path d="M-161.35353747487818,28.989112375339392 L-178.11253013441436,36.42351841923624 " />
			<path d="M-183.72514117976993,44.13169799781121 L-183.53777621991753,43.93320295988135 L-183.34216936392326,43.736278765366265 L-183.13838749888706,43.54099275182536 L-182.92650030732545,43.3474116966476 L-182.70658024334392,43.15560179421726 L-182.47870250786124,42.96562863327893 L-182.24294502289507,42.777557174509695 L-181.99938840491654,42.59145172830604 L-181.74811593728384,42.40737593279313 L-181.4892135417638,42.22539273206397 L-181.2227697491511,42.045564354655895 L-180.94887566899556,41.86795229227171 L-180.6676249584475,41.69261727875284 L-180.3791137902321,41.519619269311576 L-180.08344081976333,41.34901742002961 L-179.78070715140902,41.1808700676298 L-179.4710163039188,41.01523470952814 L-179.15447417502594,40.8521679841727 L-178.83118900523627,40.69172565167631 L-178.50127134081544,40.53396257474957 L-178.1648339959881,40.37893269994076 L-177.8219920143615,40.22668903918896 L-177.47286262958676,40.07728365169682 L-177.117565225271,39.93076762612909 L-176.7562212941548,39.78719106314303 L-176.38895439656798,39.646603058256645 L-176.01589011817862,39.50905168506067 L-175.6371560270495,39.374583978779924 L-175.25288163001665,39.243245920189814 L-174.86319832840476,39.11508241989335 L-174.46823937309514,38.9901373029641 L-174.06813981896101,38.86845329396039 L-173.66303647868583,38.750072002315775 L-173.25306787598072,38.6350339081108 L-172.83837419821683,38.52337834823101 L-172.4190972484886,38.41514350291586 L-171.99538039712485,38.31036638270303 L-171.56736853266358,38.20908281577288 L-171.13520801230797,38.111327435697085 L-170.69904661188,38.01713366959579 L-170.259033475289,37.926533726707376 L-169.81531906353237,37.839558587374555 L-169.368055103246,37.75623799245078 L-168.9173945348219,37.676600433130474 L-168.4634914601106,37.600673141206514 L-168.0065010897266,37.52848207975848 L-167.5465796899749,37.46005193427462 L-167.08388452941577,37.395406104210714 L-166.61857382508774,37.33456669498878 L-166.15080668840554,37.27755451043815 L-165.68074307075267,37.224389045681654 L-165.2085437087865,37.175088480469384 L-164.7343700694748,37.12966967296215 L-164.25838429488297,37.0881481539669 L-163.78074914672973,37.050538121626005 L-163.30162795073159,37.01685243656228 L-162.82118454075405,36.98710261748131 L-162.33958320278913,36.961298837232675 L-161.8569886187785,36.939449919331366 L-161.37356581030085,36.921563334940664 L-160.88948008214345,36.90764520031733 L-160.40489696577671,36.89770027472023 L-159.91998216275127,36.891731958782884 L-159.43490148803681,36.88974229335065 L-158.94982081332236,36.891731958782884 L-158.4649060102969,36.89770027472023 L-157.98032289393018,36.90764520031733 L-157.49623716577278,36.921563334940664 L-157.01281435729513,36.939449919331366 L-156.5302197732845,36.961298837232675 L-156.04861843531958,36.98710261748131 L-155.56817502534201,37.01685243656229 L-155.08905382934387,37.050538121626005 L-154.61141868119066,37.0881481539669 L-154.1354329065988,37.12966967296215 L-153.66125926728714,37.175088480469384 L-153.18905990532096,37.224389045681654 L-152.7189962876681,37.27755451043815 L-152.2512291509859,37.33456669498878 L-151.78591844665783,37.395406104210714 L-151.3232232860987,37.46005193427462 L-150.863301886347,37.52848207975848 L-150.40631151596304,37.600673141206514 L-149.95240844125172,37.676600433130474 L-149.5017478728276,37.756237992450785 L-149.05448391254126,37.839558587374555 L-148.61076950078464,37.926533726707376 L-148.17075636419364,38.01713366959579 L-147.73459496376566,38.111327435697085 L-147.30243444341005,38.20908281577289 L-146.87442257894878,38.31036638270304 L-146.45070572758502,38.41514350291586 L-146.0314287778568,38.52337834823102 L-145.6167351000929,38.6350339081108 L-145.2067664973878,38.750072002315775 L-144.8016631571126,38.86845329396039 L-144.40156360297848,38.9901373029641 L-144.0066046476689,39.11508241989334 L-143.61692134605698,39.243245920189814 L-143.23264694902412,39.374583978779924 L-142.853912857895,39.50905168506067 L-142.48084857950565,39.646603058256645 L-142.11358168191884,39.78719106314303 L-141.75223775080264,39.93076762612908 L-141.39694034648687,40.07728365169682 L-141.04781096171212,40.22668903918896 L-140.70496898008554,40.37893269994076 L-140.3685316352582,40.53396257474957 L-140.03861397083736,40.69172565167631 L-139.7153288010477,40.852167984172695 L-139.39878667215484,41.01523470952814 L-139.0890958246646,41.1808700676298 L-138.7863621563103,41.34901742002961 L-138.49068918584152,41.519619269311576 L-138.20217801762612,41.692617278752834 L-137.92092730707807,41.86795229227171 L-137.64703322692253,42.045564354655895 L-137.38058943430983,42.22539273206397 L-137.1216870387898,42.40737593279313 L-136.87041457115708,42.59145172830604 L-136.62685795317856,42.777557174509695 L-136.3911004682124,42.96562863327893 L-136.1632227327297,43.15560179421726 L-135.94330266874817,43.3474116966476 L-135.73141547718657,43.54099275182536 L-135.52763361215037,43.736278765366265 L-135.3320267561561,43.933202959881356 L-135.14466179630375,44.13169799781116 " />
			<path d="M-23.33452377915607,14.386594503412631 L-76.56198673297344,37.99866835082176 " />
			<path d="M-76.56198673297344,36.65433620597709 L-76.56198673297344,37.99866835082175 " />
			<path d="M-76.56198673297344,37.99866835082175 L-84.71139238614839,34.38353515797698 " />
			<path d="M-84.71139238614839,34.383535157976986 L-114.42755486551306,47.56583211496628 " />
			<path d="M-114.42755486551306,47.56583211496627 L-154.83870741032425,29.63916296346269 " />
			<path d="M-154.83870741032425,29.639162963462695 L-153.32347859349593,28.966996891040363 " />
			<path d="M-74.36995571129515,5.63835307083599 L-205.39684226516243,63.76279390676972 " />
			<path d="M-177.86975299272777,71.94062262410793 L-178.22259796310462,71.78104319662104 L-178.56842453792808,71.61846844476126 L-178.90710352905106,71.45295910050376 L-179.23850841840212,71.28457699207996 L-179.56251540524786,71.11338502088084 L-179.87900345244051,70.93944713795918 L-180.18785433163276,70.76282832013987 L-180.4889526674437,70.58359454574698 L-180.7821859805588,70.4018127699565 L-181.06744472974808,70.21755089978458 L-181.34462235278662,70.03087776871976 L-181.6136153062624,69.84186311100937 L-181.87432310425635,69.65057753560939 L-182.12664835588,69.45709249980749 L-182.37049680165748,69.26148028252923 L-182.60577734873712,69.0638139573373 L-182.83240210492056,68.86416736513388 L-183.05028641149605,68.66261508657641 L-183.2593488748637,68.459232414217 L-183.45951139694137,68.25409532437584 L-183.6506992043391,68.04728044875928 L-183.83284087629175,67.838865045833 L-183.9204980158121,67.73408145418091 L-184.0058683713392,67.62892697196112 L-184.0889439698771,67.52341141986912 L-184.16971705274415,67.41754465232181 L-184.24818007629756,67.3113365565371 L-184.32432571263797,67.20479705161063 L-184.39814685029395,67.09793608758932 L-184.46963659488586,66.99076364454216 L-184.53878826977007,66.88328973162805 L-184.60559541666225,66.77552438616114 L-184.67005179624073,66.66747767267329 L-184.73215138872905,66.55915968197422 L-184.79188839445823,66.45058053020904 L-184.84925723440847,66.34175035791343 L-184.90425255073012,66.23267932906671 L-184.95686920724404,66.1233776301425 L-185.00710228992142,66.01385546915736 L-185.05494710734257,65.9041230747175 L-185.10039919113512,65.79419069506349 L-185.14345429639135,65.6840685971132 " />
			<path d="M-185.14345429639138,65.6840685971131 L-185.1998804273473,65.52907178994515 L-185.251558122083,65.37374946114977 L-185.29847785649844,65.21813023633435 L-185.34063098337654,65.06224279582365 L-185.3780097339768,64.90611586937409 L-185.41060721946718,64.74977823087887 L-185.43841743219357,64.59325869306502 L-185.46143524678715,64.4365861021833 L-185.47965642110873,64.27978933269179 L-185.4930775970309,64.1228972819345 L-185.50169630105663,63.96593886481559 L-185.50551094477527,63.80894300847039 L-185.50452082515534,63.65193864693423 L-185.49872612467396,63.49495471580991 L-185.48812791128336,63.33802014693497 L-185.47272813821388,63.18116386304956 L-185.45252964361424,63.02441477246607 L-185.4275361500282,62.86780176374137 L-185.39775226370878,62.71135370035269 L-185.36318347376908,62.55509941537816 L-185.3238361511708,62.39906770618292 L-185.27971754755012,62.24328732911182 L-185.23083579388103,62.08778699418969 L-185.17719989897702,61.9325953598301 L-185.1188197478307,61.77774102755374 L-185.05570609979205,61.62325253671715 L-184.9878705865853,61.469158359252994 L-184.91532571016555,61.31548689442273 L-184.8380848404144,61.16226646358271 L-184.7561622126761,61.00952530496457 L-184.66957292513376,60.857291568470984 L-184.57833293602718,60.705593310487735 L-184.4824590607114,60.55445848871291 L-184.38196896855777,60.4039149570044 L-184.27688117969765,60.25399046024648 L-184.16721506160906,60.10471262923643 L-184.05299082554725,59.95610897559232 L-183.93422952281998,59.8082068866826 L-183.8109530409076,59.661033620578685 L-183.6831840994294,59.51461630103135 L-183.55094624595634,59.36898191247187 L-183.41426385167128,59.224157295038836 L-183.27316210687738,59.080169139631565 L-183.12766701635573,58.93704398299104 L-182.97780539457256,58.79480820280922 L-182.8236048607374,58.6534880128677 L-182.665093833713,58.51310945820652 L-182.50230152677776,58.37369841032417 L-182.3352579422417,58.23528056240947 L-182.16399386591723,58.09788142460644 L-181.98854086144522,57.96152631931274 L-181.80893126447802,57.82624037651282 L-181.62519817671998,57.69204852914658 L-181.4373754598269,57.55897550851421 L-181.24549772916544,57.42704583971826 L-181.04960034743345,57.29628383714376 L-180.8497194181428,57.16671359997707 L-180.6458917789655,57.038359007764484 L-180.4381549949447,56.911243716011256 L-180.2265473515714,56.78539115182194 L-180.0111078477286,56.660824509582824 L-179.79187618850372,56.53756674668725 L-179.5688927778713,56.415640579304586 L-179.34219871124637,56.29506847819374 L-179.11183576791078,56.17587266456176 L-178.87784640331333,56.05807510596857 L-178.6402737412453,55.94169751227838 L-178.3991615658928,55.826761331658574 L-178.15455431376745,55.713287746626875 L-177.9064970655169,55.601297670147446 L-177.65503553761638,55.49081174177667 L-177.40021607394337,55.38185032385931 L-177.14208563723645,55.27443349777578 L-176.88069180044022,55.16858106024119 L-176.6160827379376,55.06431251965682 L-176.34830721667154,54.961647092514795 L-176.0774145871572,54.860603699856505 L-175.8034547743868,54.76120096378548 L-175.5264782686286,54.663457204035396 L-175.24653611612155,54.567390434593776 L-174.96367990966766,54.47301836038204 L-174.67796177912345,54.38035837399255 L-174.38943438179263,54.28942755248312 L-174.09815089272126,54.200242654229825 L-173.804164994898,54.11282011583842 L-173.5075308693601,54.02717604911511 L-173.2083031852082,53.94332623809721 L-172.9065370895308,53.86128613614411 L-172.6022881972407,53.78107086308931 L-172.29561258082552,53.70269520245385 L-171.98656676001335,53.626173598721714 L-171.6752076913564,53.551520154677746 L-171.36159275773412,53.478748628808574 L-171.04577975777747,53.40787243276687 L-170.72782689521685,53.33890462889969 L-170.40779276815522,53.271857927841054 L-170.0857363582686,53.20674468616943 L-169.7617170199359,53.1435769041304 L-169.43579446929994,53.0823662234251 L-169.10802877326188,53.02312392506461 L-168.7784803384111,52.965860927290954 L-168.44720989989233,52.91058778356482 L-168.11427851021224,52.85731468062063 L-167.77974752798764,52.80605143658912 L-167.44367860663718,52.75680749918787 L-167.1061336830187,52.70959194398014 L-166.7671749660145,52.66441347270223 L-166.4268649250662,52.62128041165977 L-166.08526627866192,52.58020071019321 L-165.74244198277725,52.54118193921278 L-165.39845521927262,52.504231289803144 L-165.053369384249,52.46935557189817 L-164.70724807636424,52.43656121302578 L-164.36015508511176,52.40585425712346 L-164.01215437906436,52.37724036342429 L-163.66331009408495,52.350724805414025 L-163.3136865215064,52.32631246985917 L-162.96334809628289,52.30400785590636 L-162.61235938511442,52.28381507425319 L-162.26078507454756,52.26573784639059 L-161.90868995905367,52.24977950391701 L-161.5561389290875,52.235942987924375 L-161.2031969591279,52.22423084845603 L-160.8499290957033,52.214645244036845 L-160.49640044540354,52.207187941275336 L-160.14267616288114,52.201860314538095 L-159.78882143884317,52.19866334569652 L-159.43490148803681,52.19759762394583 L-159.08098153723046,52.19866334569652 L-158.72712681319248,52.201860314538095 L-158.3734025306701,52.207187941275336 L-158.01987388037037,52.214645244036845 L-157.66660601694574,52.22423084845603 L-157.31366404698616,52.23594298792437 L-156.96111301701995,52.24977950391701 L-156.60901790152607,52.26573784639059 L-156.25744359095918,52.28381507425319 L-155.90645487979072,52.30400785590636 L-155.5561164545672,52.32631246985917 L-155.20649288198865,52.350724805414025 L-154.85764859700924,52.37724036342429 L-154.50964789096184,52.40585425712346 L-154.16255489970936,52.43656121302578 L-153.8164335918246,52.46935557189817 L-153.47134775680104,52.504231289803144 L-153.1273609932964,52.54118193921277 L-152.78453669741174,52.5802007101932 L-152.44293805100745,52.62128041165976 L-152.10262801005916,52.66441347270223 L-151.76366929305493,52.70959194398014 L-151.42612436943645,52.75680749918787 L-151.090055448086,52.806051436589115 L-150.7555244658614,52.85731468062063 L-150.42259307618133,52.91058778356482 L-150.09132263766256,52.96586092729095 L-149.76177420281178,53.02312392506461 L-149.43400850677372,53.08236622342509 L-149.10808595613773,53.1435769041304 L-148.78406661780502,53.20674468616942 L-148.46201020791844,53.271857927841054 L-148.1419760808568,53.338904628899684 L-147.82402321829616,53.407872432766865 L-147.5082102183395,53.47874862880857 L-147.19459528471722,53.551520154677746 L-146.8832362160603,53.62617359872171 L-146.5741903952481,53.70269520245385 L-146.26751477883292,53.78107086308931 L-145.96326588654284,53.86128613614411 L-145.66149979086543,53.94332623809721 L-145.36227210671353,54.02717604911511 L-145.06563798117566,54.11282011583841 L-144.77165208335236,54.20024265422982 L-144.48036859428103,54.28942755248312 L-144.19184119695018,54.38035837399254 L-143.90612306640594,54.473018360382056 L-143.62326685995208,54.567390434593776 L-143.34332470744505,54.663457204035396 L-143.0663482016868,54.761200963785484 L-142.7923883889164,54.86060369985651 L-142.52149575940206,54.96164709251481 L-142.253720238136,55.06431251965683 L-141.9891111756334,55.1685810602412 L-141.72771733883715,55.27443349777579 L-141.46958690213023,55.38185032385932 L-141.21476743845722,55.490811741776675 L-140.9633059105567,55.60129767014745 L-140.71524866230615,55.71328774662688 L-140.47064141018083,55.82676133165858 L-140.2295292348283,55.94169751227839 L-139.99195657276027,56.058075105968584 L-139.75796720816282,56.175872664561766 L-139.52760426482723,56.29506847819375 L-139.3009101982023,56.41564057930459 L-139.07792678756988,56.537566746687254 L-138.85869512834503,56.66082450958283 L-138.6432556245022,56.78539115182195 L-138.4316479811289,56.91124371601126 L-138.22391119710812,57.03835900776449 L-138.02008355793083,57.16671359997708 L-137.82020262864017,57.29628383714377 L-137.62430524690816,57.427045839718275 L-137.4324275162467,57.558975508514216 L-137.24460479935362,57.6920485291466 L-137.06087171159558,57.826240376512835 L-136.88126211462838,57.961526319312746 L-136.7058091101564,58.097881424606456 L-136.5345450338319,58.235280562409486 L-136.36750144929587,58.37369841032417 L-136.20470914236063,58.513109458206515 L-136.04619811533624,58.65348801286769 L-135.89199758150107,58.794808202809214 L-135.7421359597179,58.937043982991035 L-135.59664086919625,59.08016913963156 L-135.45553912440238,59.22415729503882 L-135.3188567301173,59.36898191247187 L-135.18661887664422,59.514616301031346 L-135.05884993516602,59.66103362057868 L-134.93557345325368,59.80820688668259 L-134.8168121505264,59.956108975592315 L-134.70258791446457,60.104712629236424 L-134.59292179637598,60.25399046024647 L-134.48783400751586,60.403914957004396 L-134.38734391536224,60.554458488712925 L-134.29147004004642,60.70559331048775 L-134.20023005093984,60.857291568471 L-134.11364076339754,61.009525304964605 L-134.03171813565922,61.162266463582746 L-133.95447726590805,61.31548689442277 L-133.8819323894883,61.46915835925303 L-133.81409687628158,61.62325253671718 L-133.7509832282429,61.77774102755377 L-133.6926030770966,61.932595359830124 L-133.6389671821926,62.087786994189706 L-133.5900854285235,62.24328732911184 L-133.54596682490282,62.39906770618293 L-133.50661950230455,62.55509941537817 L-133.47205071236485,62.7113537003527 L-133.44226682604543,62.86780176374138 L-133.4172733324594,63.02441477246609 L-133.39707483785975,63.181163863049576 L-133.38167506479027,63.33802014693499 L-133.37107685139966,63.494954715809925 L-133.3652821509183,63.65193864693424 L-133.36429203129836,63.80894300847041 L-133.36810667501703,63.965938864815605 L-133.37672537904274,64.12289728193451 L-133.3901465549649,64.2797893326918 L-133.40836772928648,64.43658610218331 L-133.43138554388005,64.59325869306504 L-133.45919575660645,64.74977823087889 L-133.49179324209683,64.90611586937409 L-133.52917199269712,65.06224279582366 L-133.5713251195752,65.21813023633436 L-133.61824485399063,65.37374946114979 L-133.66992254872633,65.52907178994516 L-133.72634867968216,65.6840685971129 " />
			<path d="M-133.72634867968225,65.6840685971131 L-133.80418274721694,65.87883902117258 L-133.88951470183574,66.07299042758012 L-133.98231958093933,66.26646602021788 L-134.08257023583516,66.45920920066725 L-134.19023733967921,66.65116358476605 L-134.30528939605517,66.84227301910275 L-134.4276927481883,67.03248159744335 L-134.55741158879113,67.22173367708592 L-134.6944079705385,67.4099738951381 L-134.83864181716828,67.59714718471257 L-134.99007093520532,67.78319879103623 L-135.14865102630435,67.9680742874677 L-135.3143357002088,68.1517195914192 L-135.4870764883218,68.3340809801775 L-135.66682285788463,68.51510510661976 L-135.85352222675957,68.69473901481939 L-136.047119978812,68.8729301555376 L-136.24755947988737,69.04962640159582 L-136.45478209437894,69.22477606312475 L-136.66872720238052,69.39832790268554 L-136.88933221742008,69.57023115025844 L-137.11653260476842,69.74043551809488 L-137.3502619003179,69.90889121542841 L-137.5904517300254,70.07554896304019 L-137.83703182991442,70.24036000767498 L-138.08993006662942,70.40327613630309 L-138.34907245853762,70.5642496902245 L-138.6143831973711,70.7232335790106 L-138.8857846704034,70.88018129427982 L-139.16319748315402,71.03504692330307 L-139.4465404826141,71.18778516243466 L-139.73573078098647,71.33835133036537 L-140.03068377993333,71.48670138119317 L-140.33131319532407,71.63279191730831 L-140.6375310824767,71.77658020208858 L-140.9492478618845,71.91802417240127 L-141.2663723454213,72.05708245090818 L-141.58881176301725,72.19371435816988 L-141.91647178979713,72.32787992454593 L-142.24925657367402,72.45953990188734 L-142.58706876338914,72.58865577501811 L-142.92980953699055,72.71518977300222 L-143.2773786307422,72.83910488019299 L-143.62967436845443,72.96036484706146 L-143.986593691228,73.07893420080059 L-144.34803218760226,73.1947782557024 L-144.71388412409934,73.3078631233047 L-145.0840424761548,73.41815572230468 L-145.4583989594261,73.5256237882363 L-145.8368440614696,73.63023588290889 L-146.2192670737769,73.73196140360382 L-146.6055561241608,73.83077059202694 L-146.99559820948198,73.9266345430139 L-147.38927922870624,74.01952521298594 L-147.7864840162833,74.1094154281536 L-148.18709637583657,74.19627889246601 L-148.59099911415478,74.28009019530347 L-148.99807407547507,74.36082481891087 L-149.4082021760478,74.43845914557006 L-149.82126343897264,74.51297046450883 L-150.23713702929598,74.58433697854457 L-150.65570128935963,74.65253781046081 L-151.07683377438968,74.71755300911448 L-151.5004112883162,74.77936355527233 L-151.92630991981218,74.83795136717471 L-152.35440507854207,74.89329930582514 L-152.78457153160883,74.94539118000408 L-153.21668344018894,74.9942117510054 L-153.65061439634468,75.03974673709428 L-154.08623746000288,75.08198281768505 L-154.52342519608945,75.12090763723802 L-154.9620497118085,75.15650980887385 L-155.4019826940556,75.18877891770461 L-155.8430954469538,75.21770552388054 L-156.2852589295017,75.24328116535152 L-156.7283437933225,75.2654983603425 L-157.17222042050298,75.2843506095422 L-157.61675896151127,75.29983239800438 L-158.06182937318246,75.31193919676117 L-158.5073014567607,75.32066746414796 L-158.95304489598698,75.3260146468394 L-159.39892929522122,75.3279791805964 L-159.84482421758756,75.32656049072372 L-160.29059922313184,75.32175899223809 L-160.73612390697969,75.31357608974672 L-161.18126793748468,75.30201417703655 L-161.6259010943549,75.28707663637385 L-162.06989330674688,75.26876783751487 L-162.51311469131605,75.24709313642751 L-162.95543559021206,75.22205887372446 L-163.3967266090083,75.19367237280846 L-163.8368586545544,75.16194193772982 L-164.2757029727403,75.1268768507573 L-164.71313118616158,75.08848736966263 L-165.14901533167435,75.04678472471986 L-165.5832278978288,75.00178111541994 L-166.01564186217104,74.95348970690216 L-166.44613072840133,74.90192462610267 L-166.874568563379,74.84710095762203 L-167.30083003396217,74.78903473931229 L-167.72479044367202,74.72774295758545 L-168.1463257691711,74.66324354244432 L-168.5653126965444,74.5955553622373 L-168.98162865737305,74.52469821813884 L-169.3951518645898,74.45069283835676 L-169.8057613481062,74.37356087206865 L-170.21333699020045,74.29332488308863 L-170.6177595606561,74.21000834326671 L-171.0189107516412,74.12363562562237 L-171.4166732123172,74.03423199721469 L-171.81093058316858,73.94182361175076 L-172.20156753004193,73.84643750193484 L-172.5884697778851,73.74810157156037 L-172.97152414417698,73.64684458734703 L-173.35061857203706,73.54269617052559 L-173.7256421630063,73.43568678817257 L-174.0964852094886,73.3258477442976 L-174.4630392268442,73.21321117068584 L-174.8251969851253,73.09781001749835 L-175.18285254044463,72.97967804363297 L-175.53590126596762,72.85884980684872 L-175.88423988251958,72.73536065365634 L-176.22776648879835,72.60924670897829 L-176.56638059118416,72.4805448655809 L-176.89998313313743,72.34929277328189 L-177.22847652417641,72.21552882793655 L-177.55176466842568,72.07929216020558 L-177.8697529927276,71.94062262410802 " />
			<path d="M-84.71139238614839,34.383535157976986 L-84.71139238614839,33.03920301313232 " />
			<path d="M-114.42755486551306,46.221499970121606 L-114.42755486551306,47.56583211496627 " />
			<path d="M-154.83870741032425,28.29483081861803 L-154.83870741032425,29.639162963462695 " />
			<path d="M-87.52214184136493,52.286678496945775 L-91.16374176447565,50.67123936955744 " />
			<path d="M-91.16374176447565,49.326907224712784 L-91.16374176447565,50.67123936955745 " />
			<path d="M-91.16374176447565,50.67123936955745 L-89.64851294764732,49.99907329713511 " />
			<path d="M-133.52134929038908,46.71554203336366 L-133.37064187031115,47.151342692592614 L-133.22726294254048,47.589609077480006 L-133.09125282095454,48.0302179605919 L-132.96264974754232,48.47304545585373 L-132.84148988165185,48.917967053383386 L-132.72780728982326,49.36485765449966 L-132.62163393621015,49.81359160689627 L-132.52299967359244,50.264042739971536 L-132.43193223498253,50.71608440030381 L-132.34845722582756,51.16958948726261 L-132.2725981168101,51.62443048874556 L-132.20437623724868,52.08047951703094 L-132.1438107691008,52.53760834473596 L-132.09091874156945,52.99568844087042 L-132.04571502631498,53.45459100697582 L-132.0082123332737,53.91418701333965 L-131.97842120708415,54.374347235274676 L-131.9563500241224,54.834942289453075 L-131.9420049901467,55.29584267028517 L-131.9353901385527,55.756918786332534 L-131.93650732923928,56.218040996745245 L-131.94535624808583,56.67907964771301 L-131.96193440704027,57.13990510891998 L-131.9862371448189,57.600387809992895 L-132.01825762821673,58.0603982769324 L-132.05798685402905,58.51980716851733 L-132.1054136515827,58.97848531267154 L-132.16052468587688,59.43630374278326 L-132.22330446133276,59.893133733966685 L-132.2937353261502,60.348846839255536 L-132.37179747727095,60.80331492571853 L-132.45746896594673,61.25641021048655 L-132.5507257039105,61.70800529668136 L-132.6515414701494,62.157973209235806 L-132.75988791827726,62.606187430595426 L-132.8757345845049,63.05252193629141 L-132.99904889620547,63.496851230374936 L-133.12979618107295,63.93905038070284 L-133.26793967687104,64.37899505406486 L-133.4134405417696,64.8165615511424 L-133.56625786526564,65.25162684128911 L-133.7263486796864,65.6840685971234 " />
			<path d="M-185.14345429638726,65.68406859712331 L-185.30354511080802,65.25162684128902 L-185.45636243430408,64.81656155114231 L-185.6018632992026,64.37899505406477 L-185.7400067950007,63.939050380702746 L-185.87075407986822,63.496851230374844 L-185.99406839156876,63.05252193629133 L-186.1099150577964,62.60618743059534 L-186.21826150592426,62.15797320923572 L-186.31907727216316,61.70800529668127 L-186.41233401012693,61.256410210486465 L-186.49800549880268,60.803314925718446 L-186.57606764992346,60.348846839255444 L-186.64649851474087,59.89313373396659 L-186.70927829019678,59.43630374278317 L-186.76438932449096,58.978485312671445 L-186.81181612204458,58.51980716851724 L-186.8515453478569,58.06039827693231 L-186.88356583125474,57.6003878099928 L-186.90786856903335,57.1399051089199 L-186.9244467279878,56.67907964771292 L-186.93329564683435,56.218040996745145 L-186.93441283752094,55.756918786332434 L-186.92779798592693,55.29584267028506 L-186.91345295195123,54.83494228945296 L-186.89138176898945,54.374347235274556 L-186.86159064279994,53.91418701333953 L-186.82408794975865,53.45459100697568 L-186.77888423450415,52.995688440870275 L-186.7259922069728,52.537608344735816 L-186.66542673882492,52.08047951703079 L-186.5972048592635,51.6244304887454 L-186.52134575024604,51.169589487262456 L-186.43787074109107,50.71608440030364 L-186.34680330248113,50.26404273997136 L-186.24816903986343,49.81359160689609 L-186.14199568625034,49.364857654499474 L-186.02831309442172,48.9179670533832 L-185.90715322853126,48.473045455853544 L-185.77855015511904,48.030217960591706 L-185.6425400335331,47.58960907747981 L-185.49916110576243,47.15134269259241 L-185.3484536856845,46.71554203336345 " />
			<path d="M-177.15801763401396,76.28973348931642 L-177.5009425430176,75.98620365356511 L-177.83866998696215,75.6769011672947 L-178.17110280418476,75.36191501452002 L-178.49814535624722,75.04133581440429 L-178.8197035554503,74.71525579518868 L-179.13568489190206,74.3837687676589 L-179.44599846013242,74.0469700981566 L-179.7505549852458,73.70495668114313 L-180.04926684860493,73.35782691132371 L-180.34204811303812,73.0056806553401 L-180.62881454756263,72.64861922303963 L-180.9094836516174,72.28674533832914 L-181.18397467879777,71.92016310962207 L-181.45220866008563,71.54897799988728 L-181.7141084265683,71.17329679630811 L-181.9695986316393,70.7932275795605 L-182.21860577267515,70.408879692719 L-182.46105821218146,70.02036370979962 L-182.69688619840247,69.62779140394844 L-182.92602188538814,69.23127571528535 L-183.14839935251302,68.83093071841203 L-183.36395462344095,68.42687158959353 L-183.57262568453064,68.01921457362292 L-183.7743525026766,67.60807695037849 L-183.96907704258012,67.19357700108328 L-184.15674328344568,66.77583397427641 L-184.33729723509762,66.35496805150618 L-184.5106869535128,65.93110031275472 L-184.6768625557644,65.50435270160419 L-184.83577623437301,65.07484799015454 L-184.98738227106037,64.64270974370288 L-185.13163704990222,64.20806228519464 L-185.26849906987624,63.771030659456876 L-185.39792895680165,63.331740597223686 L-185.51988947466683,62.890318478964495 L-185.6343455363418,62.44689129852534 L-185.74126421367265,62.00158662659364 L-185.84061474695451,61.554532573997115 L-185.93236855378115,61.10585775484722 L-186.01649923726774,60.65569124953785 L-186.0929825936451,60.20416256760986 L-186.16179661922288,59.75140161049215 L-186.22292151672002,59.29753863412997 L-186.27633970096005,58.8427042115113 L-186.32203580393045,58.38702919510192 L-186.3599966792037,57.930644679200185 L-186.39021140571958,57.47368196222216 L-186.412671290927,57.01627250892802 L-186.42736987328465,56.55854791260066 L-186.43430292412032,56.10063985718726 L-186.43346844884698,55.642680079414816 L-186.42486668753696,55.184800330890454 L-186.40850011485276,54.72713234019748 L-186.38437343933504,54.269807774998064 L-186.35249360204813,53.81295820415343 L-186.3128697745831,53.35671505987246 L-186.26551335641915,52.90120959989964 L-186.21043797164396,52.446572869753204 L-186.14765946503437,51.99293566502432 L-186.07719589749775,51.540428493748124 L-185.99906754087615,51.089181538857595 L-185.91329687211416,50.63932462073085 L-185.81990856679244,50.19098715984284 L-185.71892949202885,49.744298139532 L-185.6103886987489,49.29938606889272 " />
			<path d="M-133.25941427732468,49.29938606889285 L-133.14973221338246,49.74915677491186 L-133.04777791143832,50.20074194235932 L-132.95358134575542,50.65400880653209 L-132.8671702098454,51.10882410831315 L-132.78856990832648,51.56505413334943 L-132.71780354945483,52.02256475136338 L-132.65489193833054,52.48122145558694 L-132.59985357078116,52.94088940230605 L-132.55270462792393,53.401433450504385 L-132.5134589714085,53.862718201594355 L-132.48212813934185,54.32460803922393 L-132.45872134289587,54.78696716914742 L-132.44324546359945,55.24965965914857 L-132.43570505131532,55.712549479004274 L-132.43610232290237,56.17550054047703 L-132.44443716156397,56.63837673732447 L-132.4607071168822,57.10104198531421 L-132.4849074055383,57.56336026223221 L-132.51703091271904,58.025195647872884 L-132.55706819420834,58.48641236399928 L-132.6050074791639,58.94687481426142 L-132.66083467357777,59.40644762406128 L-132.72453336441998,59.86499568035249 L-132.79608482446386,60.322384171363204 L-132.8754680177919,60.778478626230296 L-132.9626596059801,61.233144954533465 L-133.05763395495947,61.68624948571739 L-133.16036314255246,62.137659008390486 L-133.27081696668182,62.58724080948864 L-133.38896295425008,63.0348627132925 L-133.51476637068643,63.480393120286685 L-133.64819023015863,63.923701045849725 L-133.7891953064468,64.36465615876308 L-133.93774014447564,64.80312881952821 L-134.0937810725023,65.23899011848012 L-134.2572722149556,65.67211191368648 L-134.42816550592335,66.10236686862096 L-134.60641070328367,66.52962848959979 L-134.79195540347584,66.9537711629705 L-134.984745056907,67.37467019204203 L-135.18472298398945,67.79220183374511 L-135.39183039180426,68.20624333501243 L-135.60600639138633,68.6166729688676 L-135.8271880156254,69.02337007021261 L-136.0553102377784,69.4262150713029 L-136.29030599058692,69.82508953690007 L-136.5321061859949,70.21987619909135 L-136.7806397354603,70.61045899176607 L-137.03583357085495,70.99672308473879 L-137.2976126659462,71.37855491750904 L-137.56590005845462,71.75584223264762 L-137.84061687268058,72.1284741088002 L-138.12168234269353,72.49634099329765 L-138.40901383607684,72.85933473436434 L-138.70252687822156,73.21734861291435 L-139.0021351771617,73.57027737392661 L-139.30775064894382,73.91801725738961 L-139.61928344352341,74.26046602880643 L-139.93664197118062,74.59752300925147 L-140.2597329294472,74.9290891049697 L-140.5884613305374,75.25506683651 L-140.92273052927388,75.5753603673837 L-141.26244225150117,75.8898755322404 L-141.60749662297803,76.19851986455215 L-141.95779219874015,76.50120262379845 L-142.31322599292466,76.79783482214359 L-142.67369350904767,77.08832925059889 L-143.03908877072593,77.37260050466185 L-143.4093043528336,77.65056500942485 L-143.78423141308488,77.92214104414589 L-144.16375972403333,78.18724876627425 L-144.5477777054784,78.44581023492398 L-144.93617245726975,78.69774943378832 L-145.32882979249948,78.94299229348817 L-145.72563427107275,79.18146671334839 L-146.12646923364684,79.41310258259509 L-146.53121683592875,79.63783180096803 L-146.93975808332087,79.85558829874194 L-147.35197286590522,80.0663080561507 L-147.7677399937553,80.2699291222091 L-148.18693723256564,80.46639163292618 L-148.60944133958827,80.65563782890501 L-149.0351280998658,80.83761207232392 L-149.46387236275015,81.01226086329372 L-149.89554807869655,81.17953285558661 L-150.33002833632167,81.33937887173175 L-150.76718539971526,81.49175191747331 L-151.2068907459941,81.63660719558666 L-151.64901510308724,81.77390211904864 L-152.09342848774185,81.90359632355792 L-152.5400002437377,82.02565167940213 L-152.98859908029974,82.14003230266775 L-153.4390931106973,82.24670456578995 L-153.89134989101834,82.34563710743899 L-154.3452364591074,82.43680084174034 L-154.80061937365647,82.52016896682579 L-155.25736475343595,82.59571697271329 L-155.71533831665553,82.66342264851258 L-156.17440542044258,82.72326608895531 L-156.63443110042684,82.77522970024704 L-157.09528011041945,82.81929820523979 L-157.55681696217496,82.8554586479235 L-158.01890596522446,82.88370039723497 L-158.48141126676825,82.9040151501835 L-158.94419689161606,82.91639693429178 L-159.40712678216337,82.92084210935195 L-159.87006483839204,82.9173493684957 L-160.33287495788318,82.90591973857849 L-160.795421075831,82.88655657987769 L-161.2575672050453,82.85926558510468 L-161.71917747593145,82.82405477773119 L-162.18011617643552,82.7809345096304 L-162.64024779194332,82.72991745803355 " />

       </g>

       <!-- solid lines -->
       <g  stroke="rgb(0,0,0)" fill="none">
			<path d="M159.43490148803681,-43.373756376625664 L159.43490148803681,-58.609520684865174 " />
			<path d="M159.43490148803681,-58.609520684865174 L97.77519016856986,-85.96219872530457 " />
			<path d="M159.43490148803681,-43.373756376625664 L74.36995571129515,-5.6383530708359855 " />
			<path d="M159.43490148803681,-58.609520684865174 L74.36995571129515,-20.874117379075496 " />
			<path d="M74.36995571129515,-5.63835307083599 L74.36995571129515,-20.8741173790755 " />
			<path d="M74.36995571129515,-20.8741173790755 L12.7102443918282,-48.2267954195149 " />
			<path d="M97.77519016856986,-85.96219872530457 L12.710244391828192,-48.22679541951489 " />
			<path d="M138.53989610397434,-65.99662582078659 L131.80470401317248,-63.008847628869326 " />
			<path d="M98.12874355916314,-83.92329497229017 L138.53989610397434,-65.99662582078659 " />
			<path d="M17.30643846954075,-48.06995666928302 L98.12874355916313,-83.92329497229018 " />
			<path d="M57.717591014351946,-30.143287517779445 L17.306438469540748,-48.06995666928302 " />
			<path d="M64.45278310515381,-33.1310657096967 L57.71759101435196,-30.14328751777944 " />
			<path d="M72.60218875832877,-29.515932516851937 L64.45278310515381,-33.131065709696706 " />
			<path d="M139.95410966634742,-59.39371443602456 L72.60218875832877,-29.515932516851937 " />
			<path d="M131.80470401317245,-63.008847628869326 L139.95410966634742,-59.39371443602456 " />
			<path d="M12.710244391828194,-32.99103111127539 L12.710244391828194,-48.2267954195149 " />
			<path d="M74.36995571129515,-5.63835307083599 L12.7102443918282,-32.99103111127539 " />
			<path d="M131.80470401317245,-63.00884762886933 L131.80470401317245,-61.66451548402467 " />
			<path d="M131.80470401317245,-61.66451548402467 L138.4388808495191,-58.72154836360223 " />
			<path d="M18.82166728636907,-47.397790596860695 L98.12874355916313,-82.57896282744551 " />
			<path d="M98.12874355916314,-83.92329497229017 L98.12874355916314,-82.57896282744551 " />
			<path d="M98.12874355916314,-82.57896282744551 L137.02466728714603,-65.32445974836426 " />
			<path d="M51.388985322732346,2.987778191917264 L51.388985322732346,-12.247986116322245 " />
			<path d="M51.388985322732346,-12.247986116322245 L-6.735192090801865,-38.032276654442875 " />
			<path d="M51.388985322732346,2.987778191917264 L6.735192090801865,22.796512346203368 " />
			<path d="M51.388985322732346,-12.247986116322245 L6.735192090801865,7.560748037963859 " />
			<path d="M6.735192090801867,22.796512346203365 L6.735192090801867,7.5607480379638545 " />
			<path d="M6.735192090801867,7.560748037963855 L-51.388985322732346,-18.223542500156775 " />
			<path d="M-6.735192090801867,-38.032276654442875 L-51.388985322732346,-18.22354250015677 " />
			<path d="M47.14634463561306,-12.247986116322245 L6.7351920908018705,5.678683035181329 " />
			<path d="M-6.735192090801868,-36.15021165166034 L47.14634463561306,-12.24798611632224 " />
			<path d="M-47.14634463561306,-18.22354250015677 L-6.7351920908018705,-36.15021165166035 " />
			<path d="M6.735192090801868,5.678683035181327 L-47.14634463561306,-18.223542500156775 " />
			<path d="M-51.388985322732346,-2.987778191917264 L-51.388985322732346,-18.223542500156775 " />
			<path d="M6.735192090801867,22.796512346203365 L-51.388985322732346,-2.987778191917265 " />
			<path d="M-45.63111581878474,-17.551376427734443 L-6.7351920908018705,-34.805879506815685 " />
			<path d="M-6.735192090801868,-36.15021165166034 L-6.735192090801868,-34.80587950681568 " />
			<path d="M-6.735192090801868,-34.805879506815685 L45.63111581878476,-11.575820043899908 " />
			<path d="M-12.710244391828194,17.75526680303588 L-23.334523779156072,13.042262358567967 " />
			<path d="M-12.710244391828194,32.99103111127539 L-12.710244391828194,17.75526680303588 " />
			<path d="M-36.804907960759806,7.066705974733441 L-74.36995571129515,-9.597411237403522 " />
			<path d="M-36.804907960759806,8.411038119578105 L-36.804907960759806,7.066705974733441 " />
			<path d="M-36.8049079607598,8.411038119578107 L-24.849752595984388,13.7144284309903 " />
			<path d="M-12.710244391828194,17.75526680303588 L-62.06629771864921,39.64995633540595 " />
			<path d="M-65.70789764175993,38.03451720801761 L-62.06629771864921,39.649956335405946 " />
			<path d="M-91.16374176447565,49.326907224712784 L-65.70789764175993,38.03451720801762 " />
			<path d="M-87.52214184136493,50.94234635210111 L-91.16374176447565,49.32690722471278 " />
			<path d="M-87.52214184136493,50.94234635210112 L-143.73713094569547,75.87970763896962 " />
			<path d="M-143.73713094569547,75.8797076389696 L-205.3968422651624,48.527029598530206 " />
			<path d="M-74.36995571129515,-9.59741123740352 L-161.35353747487818,28.989112375339392 " />
			<path d="M-178.11253013441436,36.42351841923624 L-205.39684226516243,48.52702959853021 " />
			<path d="M-38.92622830431945,8.007738476124706 L-36.804907960759806,7.06670597473344 " />
			<path d="M-74.01640232070187,-7.558507484389114 L-38.926228304319444,8.00773847612471 " />
			<path d="M-154.83870741032425,28.29483081861803 L-74.01640232070187,-7.558507484389118 " />
			<path d="M-114.42755486551306,46.221499970121606 L-154.83870741032425,28.294830818618028 " />
			<path d="M-84.71139238614839,33.03920301313232 L-114.42755486551306,46.22149997012161 " />
			<path d="M-76.56198673297344,36.65433620597709 L-84.71139238614839,33.039203013132315 " />
			<path d="M-23.33452377915607,13.04226235856797 L-76.56198673297344,36.654336205977096 " />
			<path d="M-177.98466563748087,56.755834366638794 L-178.25558905798644,56.63386932822161 L-178.52243783838173,56.510149175693535 L-178.78515420645513,56.384700694212896 L-179.04368128465387,56.25755104311765 L-179.29796310239777,56.12872775004548 L-179.54794460819681,55.9982587049741 L-179.7935716815697,55.86617215418316 L-180.03479114476067,55.732496694138966 L-180.27155077425266,55.5972612653034 L-180.50379931207328,55.46049514586838 L-180.73148647689226,55.32222794541719 L-180.9545629749072,55.18248959851405 L-181.17298051051554,55.04131035822338 L-181.38669179677052,54.898720789560016 L-181.59565056561866,54.75475176287202 L-181.79981157791667,54.60943444715727 L-181.99913063322578,54.462800303315426 L-182.19356457938088,54.31488107733673 L-182.3830713218329,54.165708793429076 L-182.56760983276223,54.015315747084806 L-182.74714015996128,53.86373449808882 L-182.92162343548375,53.710997863469444 L-183.09102188405978,53.55713891039361 L-183.255298831274,53.4021909490079 L-183.4144187115055,53.246187525226944 L-183.56834707562788,53.08916241347079 L-183.7170505984672,52.93114960935286 L-183.86049708601692,52.77218332231992 L-183.9986554824078,52.61229796824583 L-184.1314958766315,52.45152816198056 L-184.25898950901615,52.28990870985617 L-184.3811087774528,52.12747460215132 L-184.4978272433713,51.96426100551588 L-184.60911963746403,51.8003032553575 L-184.71496186515685,51.63563684819153 L-184.81533101182538,51.470297433956105 L-184.91020534775595,51.304320808294 L-184.9995643328502,51.13774290480295 L-185.08338862107186,50.97059978725609 L-185.16166006463507,50.80292764179428 L-185.23436171793344,50.634762769091786 L-185.30147784120874,50.46614157649732 L-185.36299390395845,50.29710057015193 L-185.41889658808162,50.12767634708547 L-185.46917379076228,49.9579055872934 L-185.51381462708952,49.78782504579569 L-185.55280943241416,49.617471544679404 L-185.5861497644412,49.44688196512682 L-185.61382840505732,49.276093239430686 L-185.6358393618939,49.105142342998484 L-185.65217786962398,48.934066286347345 L-185.6628403909944,48.76290210709132 L-185.66782461759118,48.59168686192281 L-185.66712947033955,48.42045761858989 L-185.6607550997374,48.2492514478712 L-185.6487028858229,48.078105415550255 L-185.63097543787552,47.90705657439065 L-185.60757659385123,47.73614195611435 L-185.57851141955163,47.56539856338434 L-185.5437862075271,47.39486336179361 L-185.50340847571454,47.22457327186219 L-185.45738696580975,47.05456516104396 L-185.40573164137487,46.88487583574488 L-185.34845368568136,46.715542033354645 " />
			<path d="M-185.3484536856813,46.71554203335454 L-185.28679712892145,46.549766676681095 L-185.21975176043415,46.38440347924616 L-185.1473315557852,46.219486910906426 L-185.06955161092168,46.055051348419 L-184.98642813902518,45.89113106827563 L-184.89797846713222,45.72776023955777 L-184.8042210325225,45.56497291681407 L-184.70517537887545,45.40280303296173 L-184.60086215219664,45.24128439221315 L-184.49130309651395,45.080450663029566 L-184.376521049345,44.920335371102766 L-184.25653993693692,44.76097189236677 L-184.13138476927867,44.60239344604058 L-184.0010816348879,44.44463308770369 L-183.8656576953727,44.28772370240565 L-183.72514117976993,44.131697997811216 " />
			<path d="M-135.1446617963037,44.13169799781121 L-135.00414528070093,44.28772370240565 L-134.86872134118573,44.44463308770369 L-134.73841820679496,44.60239344604059 L-134.6132630391367,44.76097189236677 L-134.49328192672863,44.920335371102766 L-134.37849987955968,45.080450663029566 L-134.268940823877,45.24128439221316 L-134.16462759719818,45.40280303296173 L-134.06558194355114,45.56497291681408 L-133.9718245089414,45.72776023955777 L-133.88337483704845,45.89113106827563 L-133.80025136515195,46.055051348419 L-133.72247142028843,46.219486910906426 L-133.65005121563948,46.38440347924617 L-133.58300584715218,46.549766676681095 L-133.52134929039232,46.71554203335449 " />
			<path d="M-133.52134929039232,46.71554203335454 L-133.48252035055387,46.82844850931156 L-133.44619119953117,46.94151859622926 L-133.4123653366257,47.0547414029552 L-133.38104602001684,47.16810602362667 L-133.3522362664481,47.28160153872112 L-133.32593885093655,47.39521701610797 L-133.30215630650542,47.508941512101636 L-133.28089092394023,47.622764072515615 L-133.2621447515681,47.73667373371762 L-133.24591959506034,47.85065952368565 L-133.2322170172588,47.964710463064804 L-133.22103833802498,48.078815566224854 L-133.2123846341132,48.19296384231841 L-133.20625673906667,48.30714429633956 L-133.2026552431374,48.421345930182945 L-133.20158049322913,48.53555774370313 L-133.2030325928641,48.64976873577415 L-133.20701140217295,48.76396790534915 L-133.21351653790825,48.87814425252006 L-133.22254737348143,48.99228677957711 L-133.23410303902313,49.106384492068145 L-133.24818242146694,49.22042639985766 L-133.26478416465662,49.334401518185366 L-133.28390666947683,49.44829886872428 L-133.305548094007,49.56210748063818 L-133.32970635369892,49.67581639163834 L-133.35637912157733,49.78941464903944 L-133.38556382846426,49.90289131081455 L-133.41725766322637,50.0162354466491 L-133.45145757304573,50.129436138993654 L-133.48816026371395,50.24248248411563 L-133.52736219994944,50.35536359314945 L-133.5690596057379,50.46806859314545 L-133.61324846469608,50.58058662811717 L-133.6599245204587,50.692906860087 L-133.70908327708827,50.80501847013016 L-133.7607199995083,50.91691065941676 L-133.81482971395934,51.028572650252 L-133.87140720847802,51.139993687114284 L-133.9304470333992,51.251163037691214 L-133.99194350188074,51.36206999391335 L-134.05589069045135,51.472703872985655 L-134.1222824395812,51.58305401841643 L-134.19111235427508,51.69310980104386 L-134.26237380468854,51.80286062005973 L-134.33605992676638,51.912295904030614 L-134.41216362290382,52.02140511191607 L-134.49067756263022,52.13017773408401 L-134.57159418331509,52.238603293322996 L-134.6549056908966,52.346671345851455 L-134.7406040606323,52.454371482323594 L-134.82868103787206,52.5616933288321 L-134.91912813885318,52.66862654790735 L-135.01193665151763,52.77516083951315 L-135.10709763635109,52.88128594203885 L-135.20460192724414,52.986991633287765 L-135.40660263511464,53.19710409614221 L-135.61786094844373,53.405417276100025 L-135.83829547378255,53.61185091441116 L-136.0678212822779,53.81632547647399 L-136.3063499423937,54.01876218247837 L-136.5537895539817,54.219083037757834 L-136.8100447836888,54.41721086283936 L-137.07501690168704,54.61306932317898 L-137.34860381971197,54.80658295857195 L-137.63070013039538,54.997677212225945 L-137.92119714787643,55.186278459486275 L-138.21998294967602,55.37231403620193 L-138.52694241981837,55.5557122667216 L-138.84195729318267,55.73640249150878 L-139.16490620106828,55.91431509436543 L-139.49566471795546,56.08938152925368 L-139.83410540944405,56.26153434670516 L-140.18009788135123,56.430707219807914 L-140.5335088299498,56.59683496976077 L-140.89420209332718,56.75985359098538 L-141.2620387038459,56.91970027578625 L-141.63687694168496,57.07631343854922 L-142.0185723894414,57.229632739469174 L-142.4069779877715,57.379599107797645 L-142.80194409204958,57.526154764601635 L-143.20331853002304,57.66924324502455 L-143.61094666044113,57.80880942004102 L-144.02467143263505,57.94479951769692 L-144.44433344702625,58.07716114382659 L-144.86977101653991,58.205843302239245 L-145.30082022889954,58.33079641436674 L-145.7373150097789,58.45197233836517 L-146.17908718678723,58.56932438766289 L-146.62596655426222,58.68280734894794 L-147.07778093884716,58.79237749958776 L-147.53435626582544,58.89799262447461 L-147.99551662618805,58.99961203229021 L-148.46108434440768,59.09719657118322 L-148.93088004689338,59.190708643853654 L-149.40472273109953,59.28011222203837 L-149.8824298352623,59.36537286039194 L-150.36381730873694,59.44645770975782 L-150.8486996829088,59.52333552982437 L-151.33689014265036,59.59597670116114 L-151.82820059829731,59.66435323663062 L-152.32244175811562,59.72843879217108 L-152.81942320123167,59.78820867694643 L-153.3189534509975,59.84363986285905 L-153.82084004876276,59.894710993422045 L-154.32488962802512,59.94140239198749 L-154.83090798893025,59.983696069327394 L-155.33870017309312,60.02157573056459 L-155.84807053871128,60.055026781450835 L-156.3588228359418,60.08403633398962 L-156.87076028251204,60.10859321140172 L-157.38368563953597,60.12868795243129 L-157.89740128750609,60.14431281499118 L-158.4117093024322,60.15546177914574 L-158.92641153209738,60.162130549430174 L-159.44130967240193,60.16431655650555 L-159.9562053437659,60.162018958148636 L-160.47090016756053,60.15523863957647 L-160.9851958425394,60.14397821310523 L-161.49889422124005,60.128242017143826 L-162.01179738632567,60.108036114522356 L-162.52370772683884,60.08336829015625 L-163.03442801433698,60.054248048046894 L-163.54376147888013,60.02068660761992 L-164.0515118848425,59.98269689940263 L-164.55748360651805,59.9402935600421 L-165.0614817034908,59.893492926665985 L-165.56331199574151,59.84231303058819 L-166.06278113846116,59.78677359036175 L-166.55969669654272,59.72689600418168 L-167.05386721872233,59.662703341640736 L-167.54510231134165,59.59422033484111 L-168.0332127117024,59.52147336886573 L-168.5180103609855,59.44449047161258 L-168.99930847670618,59.36330130299619 L-169.47692162467743,59.27793714352023 L-169.95066579045394,59.18843088222579 L-170.42035845022897,59.09481700401996 L-170.88581864115716,58.99713157638947 L-171.34686703107553,58.89541223550462 L-171.8033259875967,58.7896981717189 L-172.2550196465468,58.68003011446971 L-172.70177397972228,58.56645031658615 L-173.1434168619395,58.44900253800993 L-173.57977813735087,58.32773202893552 L-174.0106896850024,58.20268551237623 L-174.4359854836073,58.073911166162745 L-174.85550167551045,57.94145860438128 L-175.26907662981935,57.80537885825824 L-175.67655100467724,57.665724356498956 L-176.07776780865416,57.52254890508803 L-176.4725724612324,57.375907666558966 L-176.86081285236344,57.2258571387412 L-177.24233940107246,57.07245513299265 L-177.61700511308902,56.91576075192623 L-177.9846656374807,56.755834366638865 " />
			<path d="M-153.32347859349593,28.966996891040363 L-74.01640232070187,-6.214175339544454 " />
			<path d="M-74.01640232070187,-6.214175339544452 L-38.926228304319444,9.352070620969371 " />
			<path d="M-38.92622830431945,9.35207062096937 L-36.804907960759806,8.411038119578103 " />
			<path d="M-38.926228304319444,8.007738476124707 L-38.926228304319444,9.35207062096937 " />
			<path d="M-205.3968422651624,63.762793906769716 L-205.3968422651624,48.527029598530206 " />
			<path d="M-12.710244391828194,32.99103111127539 L-143.73713094569547,91.11547194720913 " />
			<path d="M-143.73713094569547,91.11547194720912 L-205.3968422651624,63.762793906769716 " />
			<path d="M-143.73713094569547,91.11547194720912 L-143.73713094569547,75.8797076389696 " />
			<path d="M-62.06629771864921,40.99428848025061 L-62.06629771864921,39.649956335405946 " />
			<path d="M-62.06629771864921,40.99428848025061 L-87.52214184136493,52.286678496945775 " />
			<path d="M-87.52214184136493,50.94234635210111 L-87.52214184136493,52.286678496945775 " />
			<path d="M-74.01640232070187,-7.558507484389114 L-74.01640232070187,-6.214175339544452 " />
			<path d="M-89.64851294764732,49.99907329713511 L-65.70789764175993,39.37884935286228 " />
			<path d="M-65.70789764175993,38.03451720801761 L-65.70789764175993,39.378849352862275 " />
			<path d="M-65.70789764175993,39.378849352862275 L-62.06629771864921,40.99428848025061 " />
			<path d="M-170.3833775243068,80.60143322156347 L-170.79117715429481,80.41646830816867 L-171.1958532234098,80.22476583950656 L-171.5972944248842,80.02637854363232 L-171.99539034170573,79.82136098727305 L-172.39003147698773,79.60976956081907 L-172.78110928408645,79.39166246281367 L-173.168516196457,79.16709968394544 L-173.5521456572396,78.93614299054786 L-173.9318921485683,78.69885590761028 L-174.3076512205938,78.45530370130533 L-174.67931952021257,78.2055533610373 L-175.04679481949418,77.9496735810167 L-175.40997604379933,77.68773474136572 L-175.7687632995806,77.4198088887601 L-176.12305790185823,77.1459697166126 L-176.47276240136367,76.86629254480351 L-176.81778061134312,76.58085429896377 L-177.15801763401385,76.28973348931653 " />
			<path d="M-185.61038869874895,49.29938606889286 L-185.49275909129582,48.850633122302725 L-185.3674366634035,48.403967452377124 L-185.23445841285397,47.95952092409314 L-185.09386359758696,47.51742474729114 L-184.94569372411024,47.077809437938974 L-184.78999253524597,46.64080477960091 L-184.62680599721693,46.206539785122885 L-184.45618228607637,45.77514265854514 L-184.2781717734854,45.34674075725383 L-184.09282701184225,44.92146055438241 L-183.9002027187677,44.49942760147419 L-183.7003557609513,44.08076649141685 L-183.49334513736318,43.66560082166012 L-183.27923196183622,43.254053157727164 L-183.0580794450242,42.84624499703073 L-182.8299528757404,42.442296733004625 L-182.59491960168324,42.042327619560986 L-182.35304900955376,41.64645573588416 L-182.10441250457117,41.25479795157118 L-181.8490834893926,40.8674698921295 L-181.58713734244316,40.484585904841914 L-181.3186513956625,40.10625902500887 L-181.04370491167504,39.7326009425781 L-180.7623790603898,39.36372196917145 L-180.4747568950375,38.99973100551857 L-180.18092332765139,38.64073550930716 L-179.8809651039996,38.2868414634593 L-179.57497077797592,37.938153344842945 L-179.26303068545676,37.594774093428356 L-178.94523691763231,37.25680508189794 L-178.62168329381916,36.92434608571902 L-178.29246533376298,36.59749525368803 L-177.95768022943903,36.27634907895491 L-177.61742681635917,35.96100237053638 L-177.27180554439343,35.65154822532631 L-176.92091844811526,35.34807800061162 L-176.56486911667875,35.05068128710167 L-176.20376266323694,34.75944588247925 L-175.83770569391024,34.474457765480906 L-175.46680627631414,34.19580107051418 L-175.09117390765536,33.923558062819396 L-174.71091948240598,33.65780911418331 L-174.3261552595652,33.39863267921162 L-173.936994829518,33.146105272167574 L-173.54355308050103,32.90030144438336 L-173.14594616468514,32.661293762251006 L-172.74429146388488,32.429152785799296 L-172.33870755490491,32.203947047862954 L-171.9293141745338,31.98574303385034 L-171.51623218419505,31.77460516211558 L-171.09958353426643,31.570595764940936 L-170.67949122807764,31.373775070135007 L-170.25607928559717,31.184201183252256 L-169.8294727068191,31.00193007043901 L-169.39979743486043,30.827015541911113 L-168.96718031878004,30.659509236068033 L-168.5317490761303,30.49946060424813 L-168.09363225525217,30.3469168961296 L-167.65295919732503,30.20192314578138 L-167.20985999818248,30.064522158368156 L-166.76446546990536,29.93475449751341 L-166.31690710220334,29.81265847332417 L-165.86731702359643,29.698270131081085 L-165.41582796240777,29.5916232405971 L-164.96257320757968,29.492749286247935 L-164.50768656932385,29.401677457677206 L-164.05130233961782,29.318434641179053 L-163.59355525255924,29.243045411760747 L-163.1345804445895,29.175532025887648 L-162.67451341459872,29.115914414912623 L-162.2134899839236,29.064210179191893 L-161.75164625625024,29.020434582889045 L-161.28911857743336,28.98460054946875 L-160.82604349524428,28.95671865788147 L-160.36255771905917,28.936797139440337 L-159.8987980794996,28.924841875391095 L-159.43490148803727,28.92085639517585 L-158.97100489657495,28.92484187539108 L-158.5072452570154,28.936797139440305 L-158.0437594808303,28.956718657881424 L-157.5806843986412,28.984600549468688 L-157.1181567198243,29.020434582888967 L-156.65631299215093,29.064210179191797 L-156.19528956147582,29.115914414912513 L-155.73522253148505,29.175532025887524 L-155.2762477235153,29.243045411760605 L-154.81850063645672,29.318434641178893 L-154.3621164067507,29.40167745767703 L-153.90722976849486,29.49274928624775 L-153.45397501366676,29.5916232405969 L-153.0024859524781,29.69827013108086 L-152.5528958738712,29.812658473323935 L-152.10533750616918,29.93475449751316 L-151.65994297789203,30.06452215836789 L-151.21684377874948,30.201923145781095 L-150.77617072082234,30.346916896129304 L-150.33805389994419,30.499460604247815 L-149.90262265729444,30.659509236067702 L-149.47000554121405,30.827015541910768 L-149.04033026925538,31.00193007043865 L-148.6137236904773,31.184201183251883 L-148.19031174799684,31.373775070134624 L-147.77021944180802,31.570595764940535 L-147.3535707918794,31.774605162115165 L-146.94048880154065,31.985743033849907 L-146.5310954211695,32.20394704786251 L-146.12551151218958,32.42915278579884 L-145.72385681138928,32.66129376225054 L-145.32624989557337,32.900301444382876 L-144.9328081465564,33.14610527216708 L-144.5436477165092,33.39863267921111 L-144.1588834936684,33.65780911418279 L-143.77862906841904,33.92355806281886 L-143.40299669976022,34.195801070513625 L-143.03209728216413,34.47445776548034 L-142.66604031283742,34.75944588247867 L-142.3049338593956,35.05068128710107 L-141.94888452795908,35.34807800061101 L-141.5979974316809,35.6515482253257 L-141.25237615971514,35.96100237053575 L-140.91212274663528,36.276349078954276 L-140.5773376423113,36.597495253687384 L-140.24811968225512,36.92434608571837 L-139.92456605844197,37.25680508189727 L-139.6067722906175,37.594774093427674 L-139.29483219809833,37.93815334484226 L-138.9888378720746,38.2868414634586 L-138.68887964842284,38.64073550930646 L-138.39504608103672,38.999731005517845 L-138.1074239156844,39.36372196917071 L-137.82609806439913,39.73260094257736 L-137.55115158041167,40.106259025008114 L-137.282665633631,40.484585904841154 L-137.02071948668154,40.86746989212873 L-136.76539047150297,41.2547979515704 L-136.51675396652035,41.64645573588337 L-136.27488337439087,42.04232761956019 L-136.0398501003337,42.442296733003815 L-135.8117235310499,42.84624499702992 L-135.59057101423784,43.25405315772635 L-135.37645783871088,43.6656008216593 L-135.16944721512272,44.08076649141602 L-134.9696002573063,44.49942760147335 L-134.77697596423175,44.92146055438157 L-134.5916312025886,45.34674075725298 L-134.4136206899976,45.77514265854428 L-134.24299697885704,46.20653978512202 L-134.079810440828,46.640804779600046 L-133.9241092519637,47.0778094379381 L-133.77593937848695,47.51742474729026 L-133.63534456321995,47.95952092409225 L-133.50236631267038,48.403967452376236 L-133.37704388477803,48.85063312230185 L-133.2594142773249,49.29938606889201 " />
			<path d="M-162.6402477919434,82.72991745803355 L-163.0844113121028,82.6730727153996 L-163.5275710290412,82.60886973502816 L-163.9696050510053,82.53732617604652 L-164.41039179586582,82.45846171661923 L-164.84981002455905,82.37229804853567 L-165.28773887443364,82.27885887124364 L-165.72405789249422,82.17816988533079 L-166.15864706853205,82.07025878545565 L-166.5913868681341,81.95515525273018 L-167.0221582655611,81.83289094655588 L-167.45084277648584,81.7034994959159 L-167.87732249058237,81.5670164901253 L-168.30148010395752,81.42347946904215 L-168.72319895141533,81.27292791274216 L-169.14236303854622,81.11540323065955 L-169.5588570736313,80.95094875019745 L-169.9725664993535,80.77960970481053 L-170.38337752430684,80.60143322156347 " />

       </g>
    </g>
    
</svg>
