<?xml version="1.0" encoding="UTF-8" standalone="no"?>
<svg
   xmlns:svg="http://www.w3.org/2000/svg"
   xmlns="http://www.w3.org/2000/svg"
   width="800.0"
   height="400.0"

>
    <g transform="scale(0.6997084548104956, -0.6997084548104956)   translate(321.58333333333337,-275.4583333333333)" stroke-width="1.4291666666666667"  fill="none">
       <!-- hidden lines -->
       <g  stroke="rgb(160,160,160)" fill="none" stroke-dasharray="1.4291666666666667,1.4291666666666667" >
			<path d="M0.0,-181.875 L-17.0,-181.875 " />
			<path d="M-17.0,-181.875 L-17.0,-61.575 " />
			<path d="M-17.0,-178.875 L-17.0,-169.35 " />
			<path d="M-17.0,-64.575 L-17.0,-178.875 " />
			<path d="M-17.0,-74.1 L-17.0,-64.575 " />
			<path d="M-17.0,-169.35 L-17.0,-74.1 " />
			<path d="M0.0,-181.875 L0.0,-61.575 " />
			<path d="M0.0,-61.575 L-17.0,-61.575 " />
			<path d="M-17.0,-178.875 L-15.5,-178.875 " />
			<path d="M-15.5,-178.875 L-15.5,-169.35 " />
			<path d="M-17.0,-169.35 L-15.5,-169.35 " />
			<path d="M-17.0,-169.35 L-15.5,-169.35 " />
			<path d="M-15.5,-169.35 L-15.5,-74.1 " />
			<path d="M-17.0,-74.1 L-15.5,-74.1 " />
			<path d="M-15.5,-74.1 L-17.0,-74.1 " />
			<path d="M-15.5,-74.1 L-15.5,-64.575 " />
			<path d="M-17.0,-64.575 L-15.5,-64.575 " />
			<path d="M-17.0,-64.575 L-15.5,-64.575 " />
			<path d="M-15.5,-64.575 L-15.5,-178.875 " />
			<path d="M-17.0,-178.875 L-15.5,-178.875 " />
			<path d="M0.0,-31.575 L-17.0,-31.575 " />
			<path d="M-17.0,-31.575 L-17.0,31.575 " />
			<path d="M-17.0,-28.575 L-17.0,28.575 " />
			<path d="M-17.0,28.575 L-17.0,-28.575 " />
			<path d="M0.0,-31.575 L0.0,31.575 " />
			<path d="M0.0,31.575 L-17.0,31.575 " />
			<path d="M-17.0,-28.575 L-15.5,-28.575 " />
			<path d="M-15.5,-28.575 L-15.5,28.575 " />
			<path d="M-17.0,28.575 L-15.5,28.575 " />
			<path d="M-17.0,28.575 L-15.5,28.575 " />
			<path d="M-15.5,28.575 L-15.5,-28.575 " />
			<path d="M-17.0,-28.575 L-15.5,-28.575 " />
			<path d="M0.0,61.575 L-17.0,61.575 " />
			<path d="M-15.5,61.575 L-17.0,61.575 " />
			<path d="M-17.0,61.575 L-15.5,61.575 " />
			<path d="M-17.0,61.575 L-17.0,246.875 " />
			<path d="M-17.0,64.575 L-17.0,61.575 " />
			<path d="M-17.0,178.875 L-17.0,64.575 " />
			<path d="M-17.0,136.85 L-17.0,178.875 " />
			<path d="M-17.0,61.575 L-17.0,136.85 " />
			<path d="M-17.0,240.608328038966 L-17.0,239.95060373461 L-17.0,238.01041186458 L-17.0,234.88504175077492 L-17.0,230.73121250111006 L-17.0,225.75721445904404 L-17.0,220.21246465601308 L-17.0,214.375 L-17.0,208.53753534398692 L-17.0,202.99278554095596 L-17.0,198.01878749888994 L-17.0,193.86495824922508 L-17.0,190.73958813542 L-17.0,188.79939626539 L-17.0,188.141671961034 " />
			<path d="M-17.0,188.141671961034 L-17.0,188.79939626539 L-17.0,190.73958813542 L-17.0,193.86495824922508 L-17.0,198.01878749888994 L-17.0,202.99278554095594 L-17.0,208.53753534398692 L-17.0,214.375 L-17.0,220.21246465601308 L-17.0,225.75721445904404 L-17.0,230.73121250111006 L-17.0,234.88504175077492 L-17.0,238.01041186458 L-17.0,239.95060373461 L-17.0,240.60832803896596 " />
			<path d="M-15.5,61.575 L-15.5,136.85 " />
			<path d="M-17.0,136.85 L-15.5,136.85 " />
			<path d="M-15.5,136.85 L-15.5,178.875 " />
			<path d="M-15.5,178.875 L-15.5,64.575 " />
			<path d="M-15.5,64.575 L-15.5,61.575 " />
			<path d="M-17.0,64.575 L-15.5,64.575 " />
			<path d="M0.0,61.575 L0.0,246.875 " />
			<path d="M0.0,246.875 L-17.0,246.875 " />
			<path d="M0.0,240.445817018268 L0.0,239.79216720449438 L0.0,237.86399449424005 L0.0,234.7579855185452 L0.0,230.6298885370152 L0.0,225.68670356973578 L0.0,220.17630255190917 L0.0,214.375 L0.0,208.57369744809083 L0.0,203.06329643026422 L0.0,198.1201114629848 L0.0,193.9920144814548 L0.0,190.88600550575995 L0.0,188.95783279550562 L0.0,188.304182981732 " />
			<path d="M0.0,188.304182981732 L0.0,188.95783279550562 L0.0,190.88600550575995 L0.0,193.9920144814548 L0.0,198.1201114629848 L0.0,203.06329643026422 L0.0,208.57369744809083 L0.0,214.375 L0.0,220.17630255190917 L0.0,225.68670356973578 L0.0,230.6298885370152 L0.0,234.7579855185452 L0.0,237.86399449424005 L0.0,239.79216720449438 L0.0,240.44581701826797 " />
			<path d="M-15.5,136.85 L-17.0,136.85 " />
			<path d="M-17.0,178.875 L-15.5,178.875 " />
			<path d="M-17.0,178.875 L-15.5,178.875 " />
			<path d="M-17.0,64.575 L-15.5,64.575 " />
			<path d="M-17.0,167.375 L-15.5,167.375 " />
			<path d="M-15.5,167.375 L-15.5,131.375 " />
			<path d="M-17.0,131.375 L-15.5,131.375 " />
			<path d="M2.3785418079569354e-12,240.44581701826695 L-0.4440952196102934,240.59068129534495 L-0.890587001351272,240.72798137434683 L-1.3393465157524833,240.85767763909854 L-1.7902442790207287,240.97973266740894 L-2.2431501903985627,241.0941112418675 L-2.6979335697032,241.20078036000584 L-3.154463195032603,241.29970924382016 L-3.6126073406278785,241.3908693486519 L-4.072233814881044,241.47423437142382 L-4.53320999847723,241.54978025822948 L-4.995402882660272,241.61748521127367 L-5.458679107610681,241.67732969516194 L-5.9229050009249065,241.72929644253722 L-6.38794661618479,241.7733704590621 L-6.853669771606083,241.8095390277453 L-7.3199400887548824,241.8377917126109 L-7.786623031320793,241.85812036170964 L-8.25358394393566,241.87051910947093 L-8.720688091026636,241.87498437839542 L-9.187800695692411,241.8715148800871 L-9.65478697859135,241.86011161562513 L-10.121512196830336,241.840777875275 L-10.587841682843113,241.8135192375391 L-11.05364088324687,241.77834356754727 L-11.518775397665902,241.7352610147871 L-11.983111017511098,241.68428401017587 L-12.446513764704122,241.62542726247338 L-12.908849930335053,241.55870775403812 L-13.369986113242383,241.48414473592717 L-13.829789258504201,241.40175972234158 L-14.288126695829485,241.31157648441874 L-14.74486617783841,241.21362104337345 L-15.199875918220634,241.10792166298995 L-15.653024629760537,240.99450884146663 L-16.104181562218464,240.87341530261622 L-16.55321654005703,240.74467598642389 L-17.000000000001602,240.6083280389655 " />
			<path d="M3.552713678800501e-15,239.9178561441355 L-0.43179102673328273,240.06171640122702 L-0.8659456031062538,240.1982779922848 L-1.3023403677203405,240.32750211447274 L-1.7408513226461801,240.44935204983528 L-2.181353868656603,240.5637931757305 L-2.6237228406304585,240.67079297466776 L-3.0678325431172384,240.7703210435475 L-3.5135567860523897,240.8623491022998 L-3.9607689206131704,240.94685100191998 L-4.409341875204854,241.02380273189868 L-4.859148191567062,241.0931824270442 L-5.310060060989964,241.1549703736954 L-5.761949360630058,241.20914901532302 L-6.214687689915204,241.25570295751828 L-6.668146407028578,241.2946189723672 L-7.122196665461166,241.325886002209 L-7.5767094506224275,241.34949516277814 L-8.031555616498713,241.36543974572876 L-8.486605922349026,241.37371522054076 L-8.9417310694277,241.37431923580698 L-9.39680173772356,241.36725161990154 L-9.85168862270512,241.35251438102856 L-10.306262472061391,241.33011170665137 L-10.76039412242784,241.3000499623029 L-11.213954536087089,241.26233768977687 L-11.6668148376339,241.21698560470068 L-12.118846350594051,241.1640065934907 L-12.56992063398667,241.10341570969075 L-13.019909518819683,241.0352301696946 L-13.468685144507953,240.95946934785422 L-13.916119995203802,240.87615477097472 L-14.362086936029574,240.78531011219758 L-14.806459249201943,240.68696118427428 L-15.249110670037725,240.58113593223163 L-15.689915422830927,240.4678644254316 L-16.12874825659086,240.34717884902722 L-16.565484480631174,240.2191134948176 L-16.99999999999966,240.08370475150403 " />
			<path d="M-16.99999999998957,188.1416719610307 L-16.553216540045007,188.00532401357256 L-16.10418156220645,187.87658469738045 L-15.65302462974854,187.75549115853028 L-15.199875918208658,187.64207833700715 L-14.74486617782646,187.53637895662388 L-14.28812669581756,187.4384235155788 L-13.829789258492308,187.34824027765617 L-13.369986113230528,187.2658552640708 L-12.908849930323237,187.19129224596008 L-12.446513764692348,187.124572737525 L-11.983111017499372,187.06571598982273 L-11.518775397654228,187.0147389852117 L-11.053640883235252,186.97165643245177 L-10.587841682831552,186.93648076246012 L-10.121512196818836,186.90922212472444 L-9.654786978579914,186.8898883843745 L-9.187800695681045,186.8784851199127 L-8.72068809101534,186.87501562160458 L-8.25358394392444,186.87948089052927 L-7.786623031309652,186.89187963829076 L-7.319940088743823,186.9122082873897 L-6.853669771595108,186.94046097225547 L-6.3879466161739025,186.97662954093883 L-5.92290500091411,187.0207035574639 L-5.458679107599977,187.07267030483933 L-4.995402882649665,187.1325147887278 L-4.533209998466721,187.20021974177217 L-4.072233814870636,187.27576562857797 L-3.612607340617574,187.35913065135006 L-3.154463195022407,187.45029075618194 L-2.6979335696931113,187.54921963999644 L-2.2431501903885858,187.65588875813495 L-1.7902442790108664,187.77026733259365 L-1.3393465157427364,187.8923223609042 L-0.8905870013416424,188.02201862565605 L-0.4440952196007846,188.15931870465806 L1.1766587704187259e-11,188.30418298173618 " />
			<path d="M-17.000000000000007,188.66629524849608 L-16.56548448063151,188.5308865051825 L-16.12874825659119,188.40282115097287 L-15.689915422831248,188.28213557456849 L-15.249110670038036,188.16886406776845 L-14.806459249202241,188.0630388157258 L-14.362086936029861,187.96468988780248 L-13.916119995204081,187.87384522902533 L-13.468685144508221,187.79053065214583 L-13.01990951881994,187.71476983030547 L-12.569920633986914,187.6465842903093 L-12.118846350594286,187.58599340650932 L-11.666814837634124,187.53301439529935 L-11.2139545360873,187.48766231022316 L-10.760394122428039,187.4499500376971 L-10.30626247206158,187.41988829334866 L-9.851688622705296,187.39748561897147 L-9.396801737723724,187.38274838009846 L-8.941731069427853,187.37568076419302 L-8.486605922349167,187.37628477945924 L-8.03155561649884,187.3845602542712 L-7.576709450622543,187.40050483722186 L-7.12219666546127,187.424113997791 L-6.66814640702867,187.4553810276328 L-6.2146876899152845,187.4942970424817 L-5.761949360630126,187.54085098467698 L-5.31006006099002,187.59502962630458 L-4.8591481915671055,187.6568175729558 L-4.409341875204886,187.72619726810132 L-3.960768920613191,187.80314899808002 L-3.5135567860523977,187.8876508977002 L-3.067832543117235,187.9796789564525 L-2.6237228406304434,188.07920702533224 L-2.1813538686565765,188.18620682426953 L-1.740851322646141,188.30064795016472 L-1.302340367720289,188.42249788552726 L-0.8659456031061934,188.55172200771523 L-0.4317910267332099,188.688283598773 L8.704148513061227e-14,188.83214385586453 " />

       </g>

       <!-- solid lines -->
       <g  stroke="rgb(0,0,0)" fill="none">
			<path d="M0.0,-181.875 L-17.0,-181.875 " />
			<path d="M0.0,-181.875 L0.0,-61.575 " />
			<path d="M-17.0,-181.875 L-17.0,-61.575 " />
			<path d="M0.0,-61.575 L-17.0,-61.575 " />
			<path d="M0.0,-31.575 L-17.0,-31.575 " />
			<path d="M0.0,-31.575 L0.0,31.575 " />
			<path d="M-17.0,-31.575 L-17.0,31.575 " />
			<path d="M0.0,31.575 L-17.0,31.575 " />
			<path d="M0.0,61.575 L-17.0,61.575 " />
			<path d="M-17.0,61.575 L-17.0,131.375 " />
			<path d="M-17.0,167.375 L-17.0,131.375 " />
			<path d="M-17.0,167.375 L-17.0,246.875 " />
			<path d="M0.0,61.575 L0.0,246.875 " />
			<path d="M0.0,246.875 L-17.0,246.875 " />
			<path d="M-15.5,131.375 L-17.0,131.375 " />
			<path d="M-15.5,131.375 L-15.5,167.375 " />
			<path d="M-17.0,167.375 L-15.5,167.375 " />
			<path d="M18.25,214.375 L18.24610008071682,214.8338904356394 L18.234401449487308,215.29264830567448 L18.2149074858461,215.75114108279675 L18.18762382126613,216.20923631627866 L18.15255833753182,216.66680167023614 L18.109721164462144,217.12370496185827 L18.059124676984315,217.57981419959268 L18.000783491558852,218.03499762127552 L17.934714461957178,218.48912373219542 L17.860936674392807,218.94206134308004 L17.7794714420077,219.3936796079943 L17.690342298715237,219.84384806213976 L17.59357499240169,220.2924366595434 L17.48919747748809,220.7393158106259 L17.37723990685466,221.1843564196377 L17.25773462313019,221.6274299219527 L17.13071614934879,222.06840832120827 L16.99622117897677,222.50716422628122 L16.854288565312533,222.94357088808897 L16.70495931026252,223.37750223620517 L16.54827655249646,223.80883291527934 L16.384285554985336,224.23743832124975 L16.213033691925705,224.66319463733953 L16.034570435054086,225.08597886982525 L15.848947339355433,225.50566888356752 L15.65621802816976,225.92214343729398 L15.456438177701308,226.33528221862363 L15.249665500934608,226.74496587882317 L15.035959730962208,227.1510760672847 L14.81538260372879,227.55349546571523 L14.587997840196714,227.95210782202798 L14.353871127938138,228.34679798392557 L14.113070102158972,228.7374519321655 L13.865664326160243,229.12395681349847 L13.611725271242435,229.5062009732697 L13.351326296058666,229.884073987674 L13.084542625422607,230.2574666956554 L12.811451328577345,230.62627123044194 L12.532131296931361,230.99038105070645 L12.24666322126819,231.34969097134447 L11.955129568436195,231.70409719386066 L11.657614557525335,232.05349733635413 L11.354204135537689,232.39779046309502 L11.04498595255885,232.73687711368308 L10.730049336437286,233.07065933177992 L10.409485266979097,233.39904069340713 L10.083386349665467,233.72192633480148 L9.751846788900522,234.03922297981924 L9.414962360797325,234.35083896688238 L9.07283038550975,234.65668427545776 L8.725549699118371,234.9566705520627 L8.373220625078417,235.25071113578863 L8.015944945238026,235.53872108333616 L7.653825870435213,235.82061719355357 L7.286968010682028,236.09631803147224 L6.915477344944501,236.3657439518319 L6.53946119052714,236.6288171220886 L6.159028172070785,236.8854615448995 L5.774288190172822,237.13560308007692 L5.385352389638761,237.37916946600623 L4.99233312737441,237.6160903405212 L4.595343939927885,237.84629726123015 L4.194499510690843,238.06972372528796 L3.789915636768402,238.28630518860757 L3.381709195527348,238.49597908450562 L2.969998110832252,238.69868484177692 L2.554901318979283,238.8943639021925 L2.136538734337547,239.08295973741596 L1.7150312147078761,239.26441786533366 L1.2905005264090708,239.43868586579356 L0.863069309101693,239.60571339574858 L0.43286104035956363,239.7654522037999 L-7.904787935331115e-13,239.91785614413575 " />
			<path d="M-17.0,240.08370475150392 L-17.436620597314402,239.9394797052143 L-17.870721736127887,239.7878399635327 L-18.30217751019278,239.62882950789378 L-18.730862780520273,239.46249445752653 L-19.1566532116756,239.28888305607782 L-19.579425307840182,239.1080456576199 L-19.999056448630217,238.92003471204575 L-20.41542492466135,238.72490474985662 L-20.828409972849187,238.52271236634596 L-21.237891811435233,238.31351620518467 L-21.64375167472832,238.0973769414121 L-22.04587184755126,237.87435726383796 L-22.444135699382848,237.64452185686005 L-22.838427718185244,237.4079373817034 L-23.22863354390698,237.16467245708571 L-23.61464000165183,236.9147976393155 L-23.996335134503912,236.6583854018278 L-24.37360823599961,236.39551011416415 L-24.746349882236714,236.12624802040256 L-25.11445196361164,235.85067721704362 L-25.47780771617543,235.5688776303597 L-25.836311752599435,235.28093099321296 L-26.18986009274178,234.98692082134977 L-26.538350193805638,234.6869323891779 L-26.881680980080624,234.3810527050336 L-27.21975287225873,234.06937048594574 L-27.552467816316167,233.75197613190446 L-27.87972931195287,233.42896169964166 L-28.201442440581346,233.10042087593095 L-28.517513892856755,232.76644895041483 L-28.827851995740268,232.427142787967 L-29.13236673908781,232.08260080059767 L-29.43096980175652,231.7329229189104 L-29.723574577221317,231.37821056311824 L-30.010096198694164,231.0185666136279 L-30.29045156373876,230.65409538120053 L-30.56455935837346,230.28490257669733 L-30.83234008065553,229.91109528041954 L-31.093716063739773,229.53278191105073 L-31.348611498404974,229.1500721942114 L-31.59695245504151,228.76307713063397 L-31.838666905093824,228.37190896396862 L-32.073684741951496,227.97668114822793 L-32.30193780128293,227.57750831488093 L-32.523359880805636,227.17450623960553 L-32.737886759487466,226.76779180870903 L-32.94545621617325,226.35748298522654 L-33.14600804763131,225.94369877470703 L-33.339484086014814,225.52655919069724 L-33.525828215732616,225.10618521993294 L-33.70498638972507,224.6826987872481 L-33.87690664513971,224.256222720212 L-34.041539118402525,223.8268807135043 L-34.19883605968037,223.39479729303892 L-34.34875184673021,222.9600977798466 L-34.49124299813141,222.52290825372685 L-34.62626818589704,222.08335551668011 L-34.753788247460534,221.64156705612996 L-34.87376619703445,221.19767100794698 L-34.98616723633772,220.75179611928428 L-35.09095876468856,220.30407171123585 L-35.18811038845989,219.85462764132834 L-35.2775939298947,219.4035942658574 L-35.359383435278716,218.9511024020792 L-35.433455182467924,218.49728329026837 L-35.499787687768986,218.0422685556532 L-35.55836171217032,217.58619017023918 L-35.60916026692213,217.129180414532 L-35.652168618463875,216.67137183917094 L-35.68737429269753,216.2128972264843 L-35.71476707860553,215.75388955197695 L-35.73433903121247,215.29448194576264 L-35.746084473889326,214.83480765395075 L-35.75,214.37499999999997 " />
			<path d="M-35.75,214.375 L-35.746084473889326,213.91519234604922 L-35.73433903121247,213.45551805423736 L-35.71476707860553,212.99611044802302 L-35.68737429269753,212.5371027735157 L-35.652168618463875,212.07862816082906 L-35.60916026692213,211.620819585468 L-35.55836171217031,211.16380982976082 L-35.499787687768986,210.7077314443468 L-35.433455182467924,210.25271670973163 L-35.359383435278716,209.7988975979208 L-35.2775939298947,209.34640573414262 L-35.18811038845989,208.89537235867166 L-35.09095876468856,208.44592828876415 L-34.98616723633772,207.99820388071572 L-34.873766197034456,207.55232899205302 L-34.753788247460534,207.10843294387004 L-34.62626818589705,206.66664448331989 L-34.49124299813142,206.22709174627315 L-34.34875184673021,205.78990222015344 L-34.198836059680374,205.3552027069611 L-34.04153911840254,204.9231192864957 L-33.87690664513971,204.49377727978802 L-33.70498638972508,204.0673012127519 L-33.52582821573263,203.64381478006706 L-33.33948408601482,203.2234408093028 L-33.14600804763133,202.806301225293 L-32.945456216173255,202.3925170147735 L-32.73788675948748,201.982208191291 L-32.52335988080565,201.5754937603945 L-32.301937801282946,201.1724916851191 L-32.07368474195152,200.7733188517721 L-31.83866690509384,200.3780910360314 L-31.59695245504153,199.98692286936605 L-31.348611498405,199.59992780578864 L-31.093716063739798,199.2172180889493 L-30.832340080655552,198.83890471958048 L-30.564559358373486,198.4650974233027 L-30.290451563738785,198.0959046187995 L-30.01009619869419,197.73143338637212 L-29.723574577221342,197.37178943688178 L-29.430969801756547,197.01707708108964 L-29.132366739087836,196.66739919940238 L-28.827851995740293,196.32285721203306 L-28.51751389285678,195.98355104958517 L-28.201442440581374,195.64957912406908 L-27.879729311952897,195.32103830035837 L-27.552467816316195,194.99802386809557 L-27.21975287225876,194.6806295140543 L-26.881680980080656,194.3689472949664 L-26.538350193805666,194.06306761082212 L-26.189860092741814,193.76307917865026 L-25.836311752599467,193.46906900678707 L-25.47780771617546,193.18112236964032 L-25.114451963611675,192.8993227829564 L-24.746349882236746,192.62375197959747 L-24.37360823599964,192.35448988583587 L-23.996335134503944,192.09161459817224 L-23.61464000165186,191.83520236068452 L-23.228633543907016,191.58532754291429 L-22.838427718185272,191.3420626182966 L-22.444135699382873,191.10547814313995 L-22.045871847551282,190.87564273616206 L-21.643751674728342,190.65262305858792 L-21.237891811435254,190.43648379481533 L-20.828409972849208,190.22728763365404 L-20.415424924661373,190.0250952501434 L-19.999056448630235,189.82996528795425 L-19.5794253078402,189.6419543423801 L-19.156653211675614,189.46111694392218 L-18.730862780520283,189.28750554247347 L-18.302177510192795,189.12117049210622 L-17.870721736127898,188.9621600364673 L-17.43662059731441,188.8105202947857 L-17.000000000000007,188.66629524849608 " />
			<path d="M-3.552713678800501e-15,188.8321438558645 L0.43286104036033457,188.9845477962004 L0.8630693091024462,189.1442866042517 L1.2905005264098097,189.31131413420675 L1.715031214708599,189.48558213466666 L2.136538734338254,189.66704026258435 L2.5549013189799723,189.85563609780783 L2.9699981108329254,190.0513151582234 L3.381709195528005,190.25402091549472 L3.7899156367690434,190.46369481139277 L4.194499510691466,190.68027627471238 L4.595343939928492,190.9037027387702 L4.992333127375,191.13390965947914 L5.385352389639337,191.3708305339941 L5.77428819017338,191.61439691992345 L6.159028172071327,191.86453845510084 L6.539461190527664,192.12118287791174 L6.91547734494501,192.38425604816848 L7.286968010682521,192.65368196852813 L7.653825870435689,192.9293828064468 L8.015944945238488,193.2112789166642 L8.373220625078861,193.49928886421174 L8.725549699118801,193.79332944793768 L9.072830385510166,194.0933157245426 L9.41496236079773,194.399161033118 L9.75184678890091,194.71077702018113 L10.083386349665837,195.0280736651989 L10.409485266979456,195.3509593065932 L10.730049336437627,195.67934066822045 L11.044985952559177,196.0131228863173 L11.354204135538005,196.35220953690532 L11.657614557525637,196.6965026636462 L11.955129568436483,197.04590280613968 L12.246663221268463,197.40030902865587 L12.532131296931624,197.7596189492939 L12.81145132857759,198.12372876955837 L13.084542625422841,198.4925333043449 L13.351326296058886,198.86592601232633 L13.611725271242644,199.2437990267306 L13.865664326160438,199.62604318650182 L14.11307010215916,200.01254806783479 L14.353871127938312,200.40320201607472 L14.58799784019688,200.7978921779723 L14.815382603728942,201.19650453428505 L15.035959730962347,201.5989239327156 L15.249665500934743,202.0050341211771 L15.456438177701433,202.41471778137662 L15.656218028169874,202.82785656270627 L15.848947339355536,203.2443311164327 L16.03457043505418,203.66402113017497 L16.21303369192579,204.08680536266067 L16.384285554985418,204.51256167875044 L16.54827655249653,204.94116708472086 L16.704959310262584,205.372497763795 L16.854288565312594,205.8064291119112 L16.99622117897682,206.24283577371895 L17.130716149348835,206.68159167879188 L17.25773462313023,207.12257007804743 L17.377239906854694,207.5656435803624 L17.489197477488116,208.01068418937422 L17.593574992401717,208.45756334045672 L17.690342298715258,208.90615193786033 L17.779471442007715,209.35632039200578 L17.860936674392818,209.80793865692004 L17.934714461957185,210.26087626780463 L18.00078349155886,210.71500237872453 L18.059124676984318,211.17018580040738 L18.109721164462147,211.62629503814176 L18.152558337531822,212.0831983297639 L18.18762382126613,212.54076368372134 L18.214907485846098,212.99885891720325 L18.234401449487308,213.4573516943255 L18.24610008071682,213.91610956436057 L18.25,214.37499999999997 " />

       </g>
    </g>
    
</svg>
