<?xml version="1.0" encoding="UTF-8" standalone="no"?>
<!DOCTYPE svg PUBLIC "-//W3C//DTD SVG 1.1//EN" "http://www.w3.org/Graphics/SVG/1.1/DTD/svg11.dtd">
<svg width="100%" height="100%" viewBox="0 0 4631 3834" version="1.1" xmlns="http://www.w3.org/2000/svg" xmlns:xlink="http://www.w3.org/1999/xlink" xml:space="preserve" xmlns:serif="http://www.serif.com/" style="fill-rule:evenodd;clip-rule:evenodd;">
    <g id="ページ1" transform="matrix(4.166667,0,0,4.166667,0,0)">
        <rect x="0" y="0" width="1111.181" height="354.331" style="fill:none;"/>
        <g transform="matrix(1,0,0,-1,0.238,380.456)">
            <path d="M554.482,38.365C509.435,32.287 407.545,32.198 363.299,38.365C335.898,42.184 317.483,63.266 289.005,70.567C260.812,77.794 192.428,77.368 192.428,77.368L28.11,79.512C26.543,79.512 25.274,81.079 25.274,82.348L25.274,298.348C25.274,299.915 26.543,301.184 28.11,301.184L533.95,301.184C533.95,302.751 566.543,301.184 568.11,301.184L892.348,301.184C893.914,301.184 895.184,299.618 895.184,298.348C895.184,298.348 895.027,236.805 894.962,233.633C894.402,206.426 909.486,179.973 922.064,167.264C942.101,147.019 965.064,138.464 987.563,138.464L1054.159,138.464C1056.492,138.464 1056.704,136.772 1056.704,136.179L1056.704,80.837C1056.704,80.105 1054.812,79.512 1052.479,79.512L730.545,77.368C730.545,77.368 662.923,77.333 633.579,70.032C605.721,63.102 583.254,42.247 554.482,38.365ZM614.966,251.492L614.966,291.176L575.282,291.176L575.282,251.492L614.966,251.492ZM479.95,197.524L479.95,237.208L440.266,237.208L440.266,197.524L479.95,197.524ZM425.95,143.524L425.95,183.208L386.266,183.208L386.266,143.524L425.95,143.524ZM425.95,251.492L425.95,291.176L386.266,291.176L386.266,251.492L425.95,251.492ZM902.399,128.895C900.832,128.895 899.563,127.626 899.563,126.059L899.563,92.61C899.563,91.341 900.832,89.774 902.399,89.774L935.848,89.774C937.414,89.774 938.684,91.044 938.684,92.61L938.684,126.059C938.684,127.329 937.414,128.895 935.848,128.895L902.399,128.895ZM479.95,143.524L479.95,183.208L440.266,183.208L440.266,143.524L479.95,143.524ZM668.966,251.492L668.966,291.176L629.282,291.176L629.282,251.492L668.966,251.492ZM668.966,197.524L668.966,237.208L629.282,237.208L629.282,197.524L668.966,197.524ZM884.934,197.524L884.934,237.208L845.25,237.208L845.25,197.524L884.934,197.524ZM830.934,197.524L830.934,237.208L791.25,237.208L791.25,197.524L830.934,197.524ZM830.934,251.492L830.934,291.176L791.25,291.176L791.25,251.492L830.934,251.492ZM776.934,197.524L776.934,237.208L737.25,237.208L737.25,197.524L776.934,197.524ZM776.934,89.492L776.934,129.176L737.25,129.176L737.25,89.492L776.934,89.492ZM668.966,143.524L668.966,183.208L629.282,183.208L629.282,143.524L668.966,143.524ZM722.966,143.524L722.966,183.208L683.282,183.208L683.282,143.524L722.966,143.524ZM776.934,143.524L776.934,183.208L737.25,183.208L737.25,143.524L776.934,143.524ZM1010.229,128.895C1008.662,128.895 1007.393,127.626 1007.393,126.059L1007.393,92.61C1007.393,91.341 1008.662,89.774 1010.229,89.774L1043.678,89.774C1045.244,89.774 1046.514,91.044 1046.514,92.61L1046.514,126.059C1046.514,127.329 1045.244,128.895 1043.678,128.895L1010.229,128.895ZM776.934,251.492L776.934,291.176L737.25,291.176L737.25,251.492L776.934,251.492ZM830.934,143.524L830.934,183.208L791.25,183.208L791.25,143.524L830.934,143.524ZM614.966,197.524L614.966,237.208L575.282,237.208L575.282,197.524L614.966,197.524ZM884.934,251.492L884.934,291.176L845.25,291.176L845.25,251.492L884.934,251.492ZM722.966,197.524L722.966,237.208L683.282,237.208L683.282,197.524L722.966,197.524ZM568.927,105.498L588.774,71.134L554.41,51.286L534.563,85.651L568.927,105.498ZM629.631,125.25L643.179,87.95L605.88,74.402L592.331,111.701L629.631,125.25ZM695.369,127.56L695.369,87.876L655.685,87.876L655.685,127.56L695.369,127.56ZM348.857,104.367L329.01,70.003L363.374,50.155L383.221,84.519L348.857,104.367ZM290.553,126.518L277.005,89.219L314.304,75.67L327.853,112.97L290.553,126.518ZM224.815,128.829L224.815,89.145L264.499,89.145L264.499,128.829L224.815,128.829ZM290.966,197.524L290.966,237.208L251.282,237.208L251.282,197.524L290.966,197.524ZM128.966,251.492L128.966,291.176L89.282,291.176L89.282,251.492L128.966,251.492ZM74.934,197.524L74.934,237.208L35.25,237.208L35.25,197.524L74.934,197.524ZM956.399,128.895C954.832,128.895 953.563,127.626 953.563,126.059L953.563,92.61C953.563,91.341 954.832,89.774 956.399,89.774L989.848,89.774C991.414,89.774 992.684,91.044 992.684,92.61L992.684,126.059C992.684,127.329 991.414,128.895 989.848,128.895L956.399,128.895ZM344.966,143.524L344.966,183.208L305.282,183.208L305.282,143.524L344.966,143.524ZM425.95,197.524L425.95,237.208L386.266,237.208L386.266,197.524L425.95,197.524ZM74.934,89.492L74.934,129.176L35.25,129.176L35.25,89.492L74.934,89.492ZM290.966,251.492L290.966,291.176L251.282,291.176L251.282,251.492L290.966,251.492ZM794.371,128.895C792.805,128.895 791.535,127.626 791.535,126.059L791.535,92.61C791.535,91.341 792.805,89.774 794.371,89.774L827.821,89.774C829.387,89.774 830.657,91.044 830.657,92.61L830.657,126.059C830.657,127.329 829.387,128.895 827.821,128.895L794.371,128.895ZM290.966,143.524L290.966,183.208L251.282,183.208L251.282,143.524L290.966,143.524ZM848.399,128.895C846.832,128.895 845.563,127.626 845.563,126.059L845.563,92.61C845.563,91.341 846.832,89.774 848.399,89.774L881.848,89.774C883.414,89.774 884.684,91.044 884.684,92.61L884.684,126.059C884.684,127.329 883.414,128.895 881.848,128.895L848.399,128.895ZM74.934,251.492L74.934,291.176L35.25,291.176L35.25,251.492L74.934,251.492ZM344.966,251.492L344.966,291.176L305.282,291.176L305.282,251.492L344.966,251.492ZM128.966,197.524L128.966,237.208L89.282,237.208L89.282,197.524L128.966,197.524ZM614.966,143.524L614.966,183.208L575.282,183.208L575.282,143.524L614.966,143.524ZM128.966,89.492L128.966,129.176L89.282,129.176L89.282,89.492L128.966,89.492ZM344.966,197.524L344.966,237.208L305.282,237.208L305.282,197.524L344.966,197.524ZM479.95,89.492L479.95,129.176L440.266,129.176L440.266,89.492L479.95,89.492ZM182.934,251.492L182.934,291.176L143.25,291.176L143.25,251.492L182.934,251.492ZM533.95,143.524L533.95,183.208L494.266,183.208L494.266,143.524L533.95,143.524ZM74.934,143.524L74.934,183.208L35.25,183.208L35.25,143.524L74.934,143.524ZM533.95,251.492L533.95,291.176L494.266,291.176L494.266,251.492L533.95,251.492ZM182.934,197.524L182.934,237.208L143.25,237.208L143.25,197.524L182.934,197.524ZM182.934,89.492L182.934,129.176L143.25,129.176L143.25,89.492L182.934,89.492ZM128.966,143.524L128.966,183.208L89.282,183.208L89.282,143.524L128.966,143.524ZM236.966,251.492L236.966,291.176L197.282,291.176L197.282,251.492L236.966,251.492ZM479.95,251.492L479.95,291.176L440.266,291.176L440.266,251.492L479.95,251.492ZM182.934,143.524L182.934,183.208L143.25,183.208L143.25,143.524L182.934,143.524ZM236.966,143.524L236.966,183.208L197.282,183.208L197.282,143.524L236.966,143.524ZM236.966,197.524L236.966,237.208L197.282,237.208L197.282,197.524L236.966,197.524ZM884.934,143.524L884.934,183.208L845.25,183.208L845.25,143.524L884.934,143.524ZM533.95,197.524L533.95,237.208L494.266,237.208L494.266,197.524L533.95,197.524ZM722.966,251.492L722.966,291.176L683.282,291.176L683.282,251.492L722.966,251.492Z" style="fill:rgb(153,153,153);"/>
        </g>
        <g transform="matrix(0,1.116652,-1.116652,0,1112.274985,-939.702624)">
            <circle cx="973.359" cy="109.359" r="85.039"/>
        </g>
    </g>
    <g id="ページ11" serif:id="ページ1" transform="matrix(4.166667,0,0,5.354822,0.235906,1935.83397)">
        <rect x="0" y="0" width="1111.181" height="354.331" style="fill:none;"/>
        <g transform="matrix(1,0,0,-0.778115,0,307.426951)">
            <path d="M1065.684,160.681L1065.684,79.512C1065.684,74.817 1061.875,71.008 1057.18,71.008C1057.18,71.008 834.492,68.608 723.147,68.608C716.976,68.608 666.696,69.795 639.465,63.514C611.718,57.114 586.215,33.644 556.665,30.208C509.894,24.769 410.903,24.7 358.836,30.881C346.282,32.371 313.283,53.12 297.81,59.313C271.635,69.789 245.14,67.27 244.263,67.29C131.697,69.864 25.512,71.008 25.512,71.008C20.816,71.008 17.008,75.704 17.008,79.512L17.008,301.18C17.008,305.876 20.816,309.684 25.512,309.684L917.715,309.684C936.567,327.654 962.084,338.692 990.159,338.692C1048.132,338.692 1095.198,291.626 1095.198,233.653C1095.198,205.315 1083.952,179.584 1065.684,160.681Z" style="fill:rgb(51,51,51);"/>
        </g>
        <g transform="matrix(0,0.778115,-1,0,1099.518,-631.767006)">
            <circle cx="973.359" cy="109.359" r="77.953" style="fill:rgb(204,51,51);fill-opacity:0.8;stroke:rgb(153,153,153);stroke-opacity:0.8;stroke-width:1.42px;"/>
        </g>
        <g transform="matrix(1,0,0,-0.778115,0.181382,307.428507)">
            <path d="M27.476,81.336C27.323,81.671 27.238,82.02 27.238,82.348L27.238,298.348C27.238,299.915 28.507,301.184 30.074,301.184L892.348,301.184C893.914,301.184 895.184,299.618 895.184,298.348C895.184,298.348 895.027,236.805 894.962,233.633C894.402,206.426 909.486,179.973 922.064,167.264C942.101,147.019 965.064,138.464 987.563,138.464L1054.159,138.464C1056.492,138.464 1056.704,136.772 1056.704,136.179L1056.704,80.837C1056.704,80.105 1054.812,79.512 1052.479,79.512L30.074,79.512C29.537,79.512 29.035,79.696 28.607,79.989C27.905,80.241 27.476,80.555 27.476,80.837L27.476,81.336Z" style="fill:rgb(153,153,153);"/>
        </g>
        <g transform="matrix(1,0,0,-0.778115,0.181382,307.80911)">
            <path d="M554.482,38.365C509.435,32.287 407.545,32.198 363.299,38.365C335.898,42.184 317.483,63.266 289.005,70.567C260.812,77.794 192.428,77.368 192.428,77.368L28.11,79.512C26.543,79.512 25.274,81.079 25.274,82.348L25.274,298.348C25.274,299.915 26.543,301.184 28.11,301.184L533.95,301.184C533.95,302.751 566.543,301.184 568.11,301.184L892.348,301.184C893.914,301.184 895.184,299.618 895.184,298.348C895.184,298.348 895.027,236.805 894.962,233.633C894.402,206.426 909.486,179.973 922.064,167.264C942.101,147.019 965.064,138.464 987.563,138.464L1054.159,138.464C1056.492,138.464 1056.704,136.772 1056.704,136.179L1056.704,80.837C1056.704,80.105 1054.812,79.512 1052.479,79.512L730.545,77.368C730.545,77.368 662.923,77.333 633.579,70.032C605.721,63.102 583.254,42.247 554.482,38.365ZM128.966,143.524L128.966,183.208L89.282,183.208L89.282,143.524L128.966,143.524ZM182.934,143.524L182.934,183.208L143.25,183.208L143.25,143.524L182.934,143.524ZM236.966,143.524L236.966,183.208L197.282,183.208L197.282,143.524L236.966,143.524ZM290.966,143.524L290.966,183.208L251.282,183.208L251.282,143.524L290.966,143.524ZM344.966,143.524L344.966,183.208L305.282,183.208L305.282,143.524L344.966,143.524ZM74.934,89.492L74.934,129.176L35.25,129.176L35.25,89.492L74.934,89.492ZM128.966,89.492L128.966,129.176L89.282,129.176L89.282,89.492L128.966,89.492ZM182.934,89.492L182.934,129.176L143.25,129.176L143.25,89.492L182.934,89.492ZM182.934,251.492L182.934,291.176L143.25,291.176L143.25,251.492L182.934,251.492ZM74.934,143.524L74.934,183.208L35.25,183.208L35.25,143.524L74.934,143.524ZM344.966,197.524L344.966,237.208L305.282,237.208L305.282,197.524L344.966,197.524ZM290.966,197.524L290.966,237.208L251.282,237.208L251.282,197.524L290.966,197.524ZM236.966,197.524L236.966,237.208L197.282,237.208L197.282,197.524L236.966,197.524ZM236.966,251.492L236.966,291.176L197.282,291.176L197.282,251.492L236.966,251.492ZM74.934,197.524L74.934,237.208L35.25,237.208L35.25,197.524L74.934,197.524ZM128.966,251.492L128.966,291.176L89.282,291.176L89.282,251.492L128.966,251.492ZM182.934,197.524L182.934,237.208L143.25,237.208L143.25,197.524L182.934,197.524ZM128.966,197.524L128.966,237.208L89.282,237.208L89.282,197.524L128.966,197.524ZM74.934,251.492L74.934,291.176L35.25,291.176L35.25,251.492L74.934,251.492ZM290.966,251.492L290.966,291.176L251.282,291.176L251.282,251.492L290.966,251.492ZM344.966,251.492L344.966,291.176L305.282,291.176L305.282,251.492L344.966,251.492ZM533.95,251.492L533.95,291.176L494.266,291.176L494.266,251.492L533.95,251.492ZM479.95,251.492L479.95,291.176L440.266,291.176L440.266,251.492L479.95,251.492ZM956.399,128.895C954.832,128.895 953.563,127.626 953.563,126.059L953.563,92.61C953.563,91.341 954.832,89.774 956.399,89.774L989.848,89.774C991.414,89.774 992.684,91.044 992.684,92.61L992.684,126.059C992.684,127.329 991.414,128.895 989.848,128.895L956.399,128.895ZM479.95,89.492L479.95,129.176L440.266,129.176L440.266,89.492L479.95,89.492ZM425.95,197.524L425.95,237.208L386.266,237.208L386.266,197.524L425.95,197.524ZM848.399,128.895C846.832,128.895 845.563,127.626 845.563,126.059L845.563,92.61C845.563,91.341 846.832,89.774 848.399,89.774L881.848,89.774C883.414,89.774 884.684,91.044 884.684,92.61L884.684,126.059C884.684,127.329 883.414,128.895 881.848,128.895L848.399,128.895ZM794.371,128.895C792.805,128.895 791.535,127.626 791.535,126.059L791.535,92.61C791.535,91.341 792.805,89.774 794.371,89.774L827.821,89.774C829.387,89.774 830.657,91.044 830.657,92.61L830.657,126.059C830.657,127.329 829.387,128.895 827.821,128.895L794.371,128.895ZM614.966,143.524L614.966,183.208L575.282,183.208L575.282,143.524L614.966,143.524ZM533.95,143.524L533.95,183.208L494.266,183.208L494.266,143.524L533.95,143.524ZM884.934,143.524L884.934,183.208L845.25,183.208L845.25,143.524L884.934,143.524ZM533.95,197.524L533.95,237.208L494.266,237.208L494.266,197.524L533.95,197.524ZM722.966,251.492L722.966,291.176L683.282,291.176L683.282,251.492L722.966,251.492ZM614.966,251.492L614.966,291.176L575.282,291.176L575.282,251.492L614.966,251.492ZM479.95,197.524L479.95,237.208L440.266,237.208L440.266,197.524L479.95,197.524ZM425.95,143.524L425.95,183.208L386.266,183.208L386.266,143.524L425.95,143.524ZM425.95,251.492L425.95,291.176L386.266,291.176L386.266,251.492L425.95,251.492ZM902.399,128.895C900.832,128.895 899.563,127.626 899.563,126.059L899.563,92.61C899.563,91.341 900.832,89.774 902.399,89.774L935.848,89.774C937.414,89.774 938.684,91.044 938.684,92.61L938.684,126.059C938.684,127.329 937.414,128.895 935.848,128.895L902.399,128.895ZM479.95,143.524L479.95,183.208L440.266,183.208L440.266,143.524L479.95,143.524ZM668.966,251.492L668.966,291.176L629.282,291.176L629.282,251.492L668.966,251.492ZM668.966,197.524L668.966,237.208L629.282,237.208L629.282,197.524L668.966,197.524ZM884.934,197.524L884.934,237.208L845.25,237.208L845.25,197.524L884.934,197.524ZM830.934,197.524L830.934,237.208L791.25,237.208L791.25,197.524L830.934,197.524ZM830.934,251.492L830.934,291.176L791.25,291.176L791.25,251.492L830.934,251.492ZM776.934,197.524L776.934,237.208L737.25,237.208L737.25,197.524L776.934,197.524ZM776.934,89.492L776.934,129.176L737.25,129.176L737.25,89.492L776.934,89.492ZM668.966,143.524L668.966,183.208L629.282,183.208L629.282,143.524L668.966,143.524ZM722.966,143.524L722.966,183.208L683.282,183.208L683.282,143.524L722.966,143.524ZM776.934,143.524L776.934,183.208L737.25,183.208L737.25,143.524L776.934,143.524ZM1010.229,128.895C1008.662,128.895 1007.393,127.626 1007.393,126.059L1007.393,92.61C1007.393,91.341 1008.662,89.774 1010.229,89.774L1043.678,89.774C1045.244,89.774 1046.514,91.044 1046.514,92.61L1046.514,126.059C1046.514,127.329 1045.244,128.895 1043.678,128.895L1010.229,128.895ZM776.934,251.492L776.934,291.176L737.25,291.176L737.25,251.492L776.934,251.492ZM830.934,143.524L830.934,183.208L791.25,183.208L791.25,143.524L830.934,143.524ZM614.966,197.524L614.966,237.208L575.282,237.208L575.282,197.524L614.966,197.524ZM884.934,251.492L884.934,291.176L845.25,291.176L845.25,251.492L884.934,251.492ZM722.966,197.524L722.966,237.208L683.282,237.208L683.282,197.524L722.966,197.524Z" style="fill:rgb(153,153,153);"/>
        </g>
    </g>
</svg>
