<svg clip-rule="evenodd" fill-rule="evenodd" viewBox="0 0 4631 5159" xmlns="http://www.w3.org/2000/svg"><g transform="scale(4.166667)"><path d="m0 0h1111.181v354.331h-1111.181z" fill="none"/><g fill="#999"><path d="m565.512 81.336c-.153.335-.238.684-.238 1.012v216c0 1.567 1.269 2.836 2.836 2.836h324.238c1.566 0 2.836-1.566 2.836-2.836 0 0-.157-61.543-.222-64.715-.56-27.207 14.524-53.66 27.102-66.369 20.037-20.245 43-28.8 65.499-28.8h66.596c2.333 0 2.545-1.692 2.545-2.285v-55.342c0-.732-1.892-1.325-4.225-1.325h-484.369c-.537 0-1.039.184-1.467.477-.702.252-1.131.566-1.131.848zm157.454 62.188v39.684h-39.684v-39.684zm287.263-14.629h33.449c1.566 0 2.836-1.566 2.836-2.836v-33.449c0-1.566-1.27-2.836-2.836-2.836h-33.449c-1.567 0-2.836 1.567-2.836 2.836v33.449c0 1.567 1.269 2.836 2.836 2.836zm-215.858 0h33.45c1.566 0 2.836-1.566 2.836-2.836v-33.449c0-1.566-1.27-2.836-2.836-2.836h-33.45c-1.566 0-2.836 1.567-2.836 2.836v33.449c0 1.567 1.27 2.836 2.836 2.836zm108.028 0h33.449c1.566 0 2.836-1.566 2.836-2.836v-33.449c0-1.566-1.27-2.836-2.836-2.836h-33.449c-1.567 0-2.836 1.567-2.836 2.836v33.449c0 1.567 1.269 2.836 2.836 2.836zm-17.465 14.629v39.684h-39.684v-39.684zm-269.968 54v39.684h-39.684v-39.684zm54 0v39.684h-39.684v-39.684zm54-108.032v39.684h-39.684v-39.684zm-54 0v39.684h-39.684v-39.684zm-54 162v39.684h-39.684v-39.684zm233.433-122.597h33.449c1.566 0 2.836-1.566 2.836-2.836v-33.449c0-1.566-1.27-2.836-2.836-2.836h-33.449c-1.567 0-2.836 1.567-2.836 2.836v33.449c0 1.567 1.269 2.836 2.836 2.836zm-125.433 122.597v39.684h-39.684v-39.684zm233.433-122.597h33.449c1.566 0 2.836-1.566 2.836-2.836v-33.449c0-1.566-1.27-2.836-2.836-2.836h-33.449c-1.567 0-2.836 1.567-2.836 2.836v33.449c0 1.567 1.269 2.836 2.836 2.836zm-341.433 14.629v39.684h-39.684v-39.684zm269.968 107.968v39.684h-39.684v-39.684zm-108 0v39.684h-39.684v-39.684zm-161.968-162v39.684h-39.684v-39.684zm269.968 108.032v39.684h-39.684v-39.684zm-54 53.968v39.684h-39.684v-39.684zm-54-53.968v39.684h-39.684v-39.684zm-107.968 53.968v39.684h-39.684v-39.684zm54-53.968v39.684h-39.684v-39.684zm107.968 0v39.684h-39.684v-39.684zm-54-54v39.684h-39.684v-39.684zm-107.968 0v39.684h-39.684v-39.684zm161.968 0v39.684h-39.684v-39.684zm-54-54.032v39.684h-39.684v-39.684z" transform="matrix(1 0 0 -1 .238 380.696)"/><path d="m28.348 301.184h324c1.566 0 2.836-1.566 2.836-2.836v-216c0-1.566-1.27-2.836-2.836-2.836h-324c-1.567 0-2.836 1.567-2.836 2.836v216c0 1.567 1.269 2.836 2.836 2.836zm208.856-49.692v39.684h-39.684v-39.684zm-162.032-53.968v39.684h-39.684v-39.684zm54.032 0v39.684h-39.684v-39.684zm162 53.968v39.684h-39.684v-39.684zm54 0v39.684h-39.684v-39.684zm-270.032 0v39.684h-39.684v-39.684zm54.032 0v39.684h-39.684v-39.684zm53.968-53.968v39.684h-39.684v-39.684zm54.032 0v39.684h-39.684v-39.684zm54 0v39.684h-39.684v-39.684zm54 0v39.684h-39.684v-39.684zm-270.032-54v39.684h-39.684v-39.684zm54.032 0v39.684h-39.684v-39.684zm53.968 0v39.684h-39.684v-39.684zm54.032 0v39.684h-39.684v-39.684zm54 0v39.684h-39.684v-39.684zm54 0v39.684h-39.684v-39.684zm-270.032-54.032v39.684h-39.684v-39.684zm54.032 0v39.684h-39.684v-39.684zm53.968 0v39.684h-39.684v-39.684zm54.032 0v39.684h-39.684v-39.684zm54 0v39.684h-39.684v-39.684zm54 0v39.684h-39.684v-39.684zm-162.032 162v39.684h-39.684v-39.684z" stroke="#666" stroke-width=".85" transform="matrix(1 0 0 -1 0 380.696)"/><path d="m379.332 301.184h162c1.566 0 2.836-1.566 2.836-2.836v-216c0-1.566-1.27-2.836-2.836-2.836h-162c-1.566 0-2.836 1.567-2.836 2.836v216c0 1.567 1.27 2.836 2.836 2.836zm46.856-103.66v39.684h-39.684v-39.684zm54 53.968v39.684h-39.684v-39.684zm54 0v39.684h-39.684v-39.684zm-108 0v39.684h-39.684v-39.684zm54-53.968v39.684h-39.684v-39.684zm54 0v39.684h-39.684v-39.684zm-108-54v39.684h-39.684v-39.684zm54 0v39.684h-39.684v-39.684zm54 0v39.684h-39.684v-39.684zm-108-54.032v39.684h-39.684v-39.684zm54 0v39.684h-39.684v-39.684zm54 0v39.684h-39.684v-39.684z" stroke="#666" stroke-width=".85" transform="matrix(1 0 0 -1 0 380.696)"/></g><circle cx="973.359" cy="109.359" r="85.039" transform="matrix(0 1.116652 -1.116652 0 1112.274985 -939.702624)"/></g><g transform="matrix(4.166667 0 0 4.166667 .235906 1622.83397)"><path d="m0 0h1111.181v354.331h-1111.181z" fill="none"/><g fill-rule="nonzero"><path d="m25.512 309.684h329.668c4.695 0 8.504-4.695 8.504-8.504v-221.668c0-4.695-3.809-8.504-8.504-8.504h-329.668c-4.696 0-8.504 4.696-8.504 8.504v221.668c0 4.696 3.808 8.504 8.504 8.504z" fill="#333" transform="matrix(1 0 0 -1 0 395.092)"/><path d="m28.348 301.184h324c1.566 0 2.836-1.566 2.836-2.836v-216c0-1.566-1.27-2.836-2.836-2.836h-324c-1.567 0-2.836 1.567-2.836 2.836v216c0 1.567 1.269 2.836 2.836 2.836z" fill="#999" transform="matrix(1 0 0 -1 0 395.096)"/><path d="m376.496 309.684h167.668c4.695 0 8.504-4.695 8.504-8.504v-221.668c0-4.695-3.809-8.504-8.504-8.504h-167.668c-4.695 0-8.504 4.696-8.504 8.504v221.668c0 4.696 3.809 8.504 8.504 8.504z" fill="#333" transform="matrix(1 0 0 -1 0 395.092)"/></g><path d="m1065.684 160.681v-81.169c0-4.695-3.809-8.504-8.504-8.504h-491.668c-4.696 0-8.504 4.696-8.504 8.504v221.668c0 4.696 3.808 8.504 8.504 8.504h352.203c18.852 17.97 44.369 29.008 72.444 29.008 57.973 0 105.039-47.066 105.039-105.039 0-28.338-11.246-54.069-29.514-72.972z" fill="#333" transform="matrix(1 0 0 -1 0 395.092)"/><circle cx="973.359" cy="109.359" fill="#c33" fill-opacity=".8" r="77.953" stroke="#999" stroke-opacity=".8" stroke-width="1.42" transform="matrix(0 1 -1 0 1099.518 -811.92)"/><path d="m379.332 301.184h162c1.566 0 2.836-1.566 2.836-2.836v-216c0-1.566-1.27-2.836-2.836-2.836h-162c-1.566 0-2.836 1.567-2.836 2.836v216c0 1.567 1.27 2.836 2.836 2.836z" fill="#999" fill-rule="nonzero" transform="matrix(1 0 0 -1 0 395.094)"/><path d="m565.512 81.336c-.153.335-.238.684-.238 1.012v216c0 1.567 1.269 2.836 2.836 2.836h324.238c1.566 0 2.836-1.566 2.836-2.836 0 0-.157-61.543-.222-64.715-.56-27.207 14.524-53.66 27.102-66.369 20.037-20.245 43-28.8 65.499-28.8h66.596c2.333 0 2.545-1.692 2.545-2.285v-55.342c0-.732-1.892-1.325-4.225-1.325h-484.369c-.537 0-1.039.184-1.467.477-.702.252-1.131.566-1.131.848z" fill="#999" transform="matrix(1 0 0 -1 .181382 395.094)"/></g><g transform="matrix(4.166667 0 0 4.166667 .235906 3681.83397)"><path d="m0 0h1111.181v354.331h-1111.181z" fill="none"/><path d="m25.512 309.684h329.668c4.695 0 8.504-4.695 8.504-8.504v-60.868c0-4.695-3.809-8.504-8.504-8.504h-329.668c-4.696 0-8.504 4.696-8.504 8.504v60.868c0 4.696 3.808 8.504 8.504 8.504z" fill="#333" fill-rule="nonzero" transform="matrix(1 0 0 -1 0 555.892)"/><path d="m376.496 148.884h167.668c4.695 0 8.504-4.695 8.504-8.504v-60.868c0-4.695-3.809-8.504-8.504-8.504h-167.668c-4.695 0-8.504 4.696-8.504 8.504v60.868c0 4.696 3.809 8.504 8.504 8.504z" fill="#333" fill-rule="nonzero" transform="matrix(1 0 0 -1 0 395.092)"/><path d="m1094.964 141.481v-61.969c0-4.695-3.809-8.504-8.504-8.504h-520.948c-4.696 0-8.504 4.696-8.504 8.504v60.868c0 4.696 3.808 8.504 8.504 8.504h352.203l177.483.769z" fill="#333" transform="matrix(1 0 0 -1 0 395.092)"/><circle cx="973.359" cy="109.359" fill="#c33" fill-opacity=".8" r="77.953" stroke="#999" stroke-opacity=".8" stroke-width="1.42" transform="matrix(0 1 -1 0 1099.518 -759.12)"/><g fill="#f0e"><path d="m7545.3 6481h1043.7v45.34h-1043.7z" transform="matrix(.470854 0 0 .142371 -2987.276992 -648.829509)"/><path d="m7545.3 6481h1043.7v45.34h-1043.7z" transform="matrix(.159802 0 0 .142371 -829.315751 -648.829509)"/><path d="m7545.3 6481h1043.7v45.34h-1043.7z" transform="matrix(.314429 0 0 .142371 -2347.005409 -648.829509)"/><path d="m7545.3 6481h1043.7v45.34h-1043.7z" transform="matrix(.126157 0 0 .142371 -26.676589 -623.664933)"/></g></g></svg>