<?xml version="1.0" encoding="UTF-8" standalone="no"?>
<!DOCTYPE svg PUBLIC "-//W3C//DTD SVG 1.1//EN" "http://www.w3.org/Graphics/SVG/1.1/DTD/svg11.dtd">
<svg width="100%" height="100%" viewBox="0 0 4630 1898" version="1.1" xmlns="http://www.w3.org/2000/svg" xmlns:xlink="http://www.w3.org/1999/xlink" xml:space="preserve" xmlns:serif="http://www.serif.com/" style="fill-rule:evenodd;clip-rule:evenodd;stroke-linejoin:round;stroke-miterlimit:2;">
    <g transform="matrix(1,0,0,1,-0.235906,-4410.856059)">
        <g id="CaseWall" transform="matrix(4.166667,0,0,5.354822,0.235906,4410.856059)">
            <rect x="0" y="0" width="1111.181" height="354.331" style="fill:none;"/>
            <g transform="matrix(1,0,0,-0.778115,0,307.426951)">
                <path d="M1065.684,160.681L1065.684,79.512C1065.684,74.817 1061.875,71.008 1057.18,71.008C1057.18,71.008 834.492,68.608 723.147,68.608C716.976,68.608 666.696,69.795 639.465,63.514C611.718,57.114 586.215,33.644 556.665,30.208C509.894,24.769 410.903,24.7 358.836,30.881C346.282,32.371 313.283,53.12 297.81,59.313C271.635,69.789 245.14,67.27 244.263,67.29C131.697,69.864 25.512,71.008 25.512,71.008C20.816,71.008 17.008,75.704 17.008,79.512L17.008,301.18C17.008,305.876 20.816,309.684 25.512,309.684L917.715,309.684C936.567,327.654 962.084,338.692 990.159,338.692C1048.132,338.692 1095.198,291.626 1095.198,233.653C1095.198,205.315 1083.952,179.584 1065.684,160.681ZM1056.885,171.452L1056.885,80.346C1056.885,79.614 1054.993,79.021 1052.66,79.021L730.727,76.877C730.727,76.877 663.105,76.842 633.761,69.541C605.902,62.61 583.435,41.756 554.663,37.874C509.616,31.796 407.727,31.707 363.48,37.874C336.079,41.693 317.665,62.775 289.186,70.076C260.994,77.303 192.609,76.877 192.609,76.877L28.291,79.021C26.724,79.021 25.455,80.588 25.455,81.857L25.455,297.857C25.455,299.424 26.724,300.693 28.291,300.693L28.662,300.693C29.116,301.002 29.665,301.182 30.255,301.182L535.897,301.182C539.333,301.519 547.204,301.391 554.335,301.182L923.269,301.182C940.224,318.849 964.07,329.854 990.465,329.854C1041.869,329.854 1083.602,288.12 1083.602,236.717C1083.602,211.309 1073.406,188.263 1056.885,171.452Z" style="fill:rgb(51,51,51);"/>
            </g>
        </g>
    </g>
</svg>
