<svg xmlns="http://www.w3.org/2000/svg" width="324.4mm" height="108.8mm" viewBox="9.3 12.2 324.4 108.8">
<rect width="100%" height="100%" fill="white"/>
<line x1="328.62" y1="113.05" x2="328.62" y2="20.25" stroke="black" stroke-width="0.15" fill="none"/>
<line x1="17.27" y1="116.05" x2="325.62" y2="116.05" stroke="black" stroke-width="0.15" fill="none"/>
<line x1="14.28" y1="20.25" x2="14.28" y2="113.05" stroke="black" stroke-width="0.15" fill="none"/>
<line x1="325.62" y1="17.25" x2="17.27" y2="17.25" stroke="black" stroke-width="0.15" fill="none"/>
<line x1="266.07" y1="97.99" x2="268.52" y2="84.10" stroke="black" stroke-width="0.15" fill="none"/>
<line x1="279.96" y1="100.44" x2="266.07" y2="97.99" stroke="black" stroke-width="0.15" fill="none"/>
<line x1="282.40" y1="86.55" x2="279.96" y2="100.44" stroke="black" stroke-width="0.15" fill="none"/>
<line x1="268.52" y1="84.10" x2="282.40" y2="86.55" stroke="black" stroke-width="0.15" fill="none"/>
<line x1="288.11" y1="85.49" x2="301.99" y2="87.93" stroke="black" stroke-width="0.15" fill="none"/>
<line x1="301.99" y1="87.93" x2="299.54" y2="101.82" stroke="black" stroke-width="0.15" fill="none"/>
<line x1="299.54" y1="101.82" x2="285.66" y2="99.37" stroke="black" stroke-width="0.15" fill="none"/>
<line x1="285.66" y1="99.37" x2="288.11" y2="85.49" stroke="black" stroke-width="0.15" fill="none"/>
<line x1="306.87" y1="82.18" x2="320.75" y2="84.63" stroke="black" stroke-width="0.15" fill="none"/>
<line x1="320.75" y1="84.63" x2="318.30" y2="98.51" stroke="black" stroke-width="0.15" fill="none"/>
<line x1="318.30" y1="98.51" x2="304.42" y2="96.06" stroke="black" stroke-width="0.15" fill="none"/>
<line x1="304.42" y1="96.06" x2="306.87" y2="82.18" stroke="black" stroke-width="0.15" fill="none"/>
<line x1="43.38" y1="101.50" x2="40.93" y2="87.61" stroke="black" stroke-width="0.15" fill="none"/>
<line x1="57.27" y1="99.05" x2="43.38" y2="101.50" stroke="black" stroke-width="0.15" fill="none"/>
<line x1="54.82" y1="85.16" x2="57.27" y2="99.05" stroke="black" stroke-width="0.15" fill="none"/>
<line x1="40.93" y1="87.61" x2="54.82" y2="85.16" stroke="black" stroke-width="0.15" fill="none"/>
<line x1="24.62" y1="98.19" x2="22.17" y2="84.30" stroke="black" stroke-width="0.15" fill="none"/>
<line x1="38.51" y1="95.74" x2="24.62" y2="98.19" stroke="black" stroke-width="0.15" fill="none"/>
<line x1="36.06" y1="81.86" x2="38.51" y2="95.74" stroke="black" stroke-width="0.15" fill="none"/>
<line x1="22.17" y1="84.30" x2="36.06" y2="81.86" stroke="black" stroke-width="0.15" fill="none"/>
<line x1="62.97" y1="100.12" x2="60.52" y2="86.23" stroke="black" stroke-width="0.15" fill="none"/>
<line x1="76.85" y1="97.67" x2="62.97" y2="100.12" stroke="black" stroke-width="0.15" fill="none"/>
<line x1="74.41" y1="83.78" x2="76.85" y2="97.67" stroke="black" stroke-width="0.15" fill="none"/>
<line x1="60.52" y1="86.23" x2="74.41" y2="83.78" stroke="black" stroke-width="0.15" fill="none"/>
<line x1="223.55" y1="89.62" x2="237.43" y2="92.06" stroke="black" stroke-width="0.15" fill="none"/>
<line x1="237.43" y1="92.06" x2="234.99" y2="105.95" stroke="black" stroke-width="0.15" fill="none"/>
<line x1="234.99" y1="105.95" x2="221.10" y2="103.50" stroke="black" stroke-width="0.15" fill="none"/>
<line x1="221.10" y1="103.50" x2="223.55" y2="89.62" stroke="black" stroke-width="0.15" fill="none"/>
<line x1="243.74" y1="89.36" x2="257.84" y2="89.36" stroke="black" stroke-width="0.15" fill="none"/>
<line x1="257.84" y1="89.36" x2="257.84" y2="103.46" stroke="black" stroke-width="0.15" fill="none"/>
<line x1="257.84" y1="103.46" x2="243.74" y2="103.46" stroke="black" stroke-width="0.15" fill="none"/>
<line x1="243.74" y1="103.46" x2="243.74" y2="89.36" stroke="black" stroke-width="0.15" fill="none"/>
<line x1="204.36" y1="94.81" x2="217.61" y2="99.64" stroke="black" stroke-width="0.15" fill="none"/>
<line x1="217.61" y1="99.64" x2="212.79" y2="112.89" stroke="black" stroke-width="0.15" fill="none"/>
<line x1="212.79" y1="112.89" x2="199.54" y2="108.06" stroke="black" stroke-width="0.15" fill="none"/>
<line x1="199.54" y1="108.06" x2="204.36" y2="94.81" stroke="black" stroke-width="0.15" fill="none"/>
<line x1="226.35" y1="78.40" x2="228.79" y2="64.51" stroke="black" stroke-width="0.15" fill="none"/>
<line x1="240.23" y1="80.84" x2="226.35" y2="78.40" stroke="black" stroke-width="0.15" fill="none"/>
<line x1="242.68" y1="66.96" x2="240.23" y2="80.84" stroke="black" stroke-width="0.15" fill="none"/>
<line x1="228.79" y1="64.51" x2="242.68" y2="66.96" stroke="black" stroke-width="0.15" fill="none"/>
<line x1="264.28" y1="74.13" x2="266.73" y2="60.24" stroke="black" stroke-width="0.15" fill="none"/>
<line x1="278.17" y1="76.57" x2="264.28" y2="74.13" stroke="black" stroke-width="0.15" fill="none"/>
<line x1="280.61" y1="62.69" x2="278.17" y2="76.57" stroke="black" stroke-width="0.15" fill="none"/>
<line x1="266.73" y1="60.24" x2="280.61" y2="62.69" stroke="black" stroke-width="0.15" fill="none"/>
<line x1="283.87" y1="75.51" x2="286.32" y2="61.62" stroke="black" stroke-width="0.15" fill="none"/>
<line x1="297.75" y1="77.96" x2="283.87" y2="75.51" stroke="black" stroke-width="0.15" fill="none"/>
<line x1="300.20" y1="64.07" x2="297.75" y2="77.96" stroke="black" stroke-width="0.15" fill="none"/>
<line x1="286.32" y1="61.62" x2="300.20" y2="64.07" stroke="black" stroke-width="0.15" fill="none"/>
<line x1="244.69" y1="72.74" x2="247.14" y2="58.86" stroke="black" stroke-width="0.15" fill="none"/>
<line x1="258.58" y1="75.19" x2="244.69" y2="72.74" stroke="black" stroke-width="0.15" fill="none"/>
<line x1="261.03" y1="61.31" x2="258.58" y2="75.19" stroke="black" stroke-width="0.15" fill="none"/>
<line x1="247.14" y1="58.86" x2="261.03" y2="61.31" stroke="black" stroke-width="0.15" fill="none"/>
<line x1="208.00" y1="84.05" x2="210.45" y2="70.16" stroke="black" stroke-width="0.15" fill="none"/>
<line x1="221.88" y1="86.50" x2="208.00" y2="84.05" stroke="black" stroke-width="0.15" fill="none"/>
<line x1="224.33" y1="72.61" x2="221.88" y2="86.50" stroke="black" stroke-width="0.15" fill="none"/>
<line x1="210.45" y1="70.16" x2="224.33" y2="72.61" stroke="black" stroke-width="0.15" fill="none"/>
<line x1="302.63" y1="72.20" x2="305.08" y2="58.31" stroke="black" stroke-width="0.15" fill="none"/>
<line x1="316.51" y1="74.65" x2="302.63" y2="72.20" stroke="black" stroke-width="0.15" fill="none"/>
<line x1="318.96" y1="60.76" x2="316.51" y2="74.65" stroke="black" stroke-width="0.15" fill="none"/>
<line x1="305.08" y1="58.31" x2="318.96" y2="60.76" stroke="black" stroke-width="0.15" fill="none"/>
<line x1="263.42" y1="41.48" x2="277.31" y2="43.93" stroke="black" stroke-width="0.15" fill="none"/>
<line x1="277.31" y1="43.93" x2="274.86" y2="57.81" stroke="black" stroke-width="0.15" fill="none"/>
<line x1="274.86" y1="57.81" x2="260.97" y2="55.36" stroke="black" stroke-width="0.15" fill="none"/>
<line x1="260.97" y1="55.36" x2="263.42" y2="41.48" stroke="black" stroke-width="0.15" fill="none"/>
<line x1="283.01" y1="42.86" x2="296.89" y2="45.31" stroke="black" stroke-width="0.15" fill="none"/>
<line x1="296.89" y1="45.31" x2="294.45" y2="59.20" stroke="black" stroke-width="0.15" fill="none"/>
<line x1="294.45" y1="59.20" x2="280.56" y2="56.75" stroke="black" stroke-width="0.15" fill="none"/>
<line x1="280.56" y1="56.75" x2="283.01" y2="42.86" stroke="black" stroke-width="0.15" fill="none"/>
<line x1="225.49" y1="45.75" x2="239.37" y2="48.20" stroke="black" stroke-width="0.15" fill="none"/>
<line x1="239.37" y1="48.20" x2="236.92" y2="62.08" stroke="black" stroke-width="0.15" fill="none"/>
<line x1="236.92" y1="62.08" x2="223.04" y2="59.64" stroke="black" stroke-width="0.15" fill="none"/>
<line x1="223.04" y1="59.64" x2="225.49" y2="45.75" stroke="black" stroke-width="0.15" fill="none"/>
<line x1="243.83" y1="40.10" x2="257.72" y2="42.55" stroke="black" stroke-width="0.15" fill="none"/>
<line x1="257.72" y1="42.55" x2="255.27" y2="56.43" stroke="black" stroke-width="0.15" fill="none"/>
<line x1="255.27" y1="56.43" x2="241.38" y2="53.98" stroke="black" stroke-width="0.15" fill="none"/>
<line x1="241.38" y1="53.98" x2="243.83" y2="40.10" stroke="black" stroke-width="0.15" fill="none"/>
<line x1="207.14" y1="51.40" x2="221.02" y2="53.85" stroke="black" stroke-width="0.15" fill="none"/>
<line x1="221.02" y1="53.85" x2="218.58" y2="67.74" stroke="black" stroke-width="0.15" fill="none"/>
<line x1="218.58" y1="67.74" x2="204.69" y2="65.29" stroke="black" stroke-width="0.15" fill="none"/>
<line x1="204.69" y1="65.29" x2="207.14" y2="51.40" stroke="black" stroke-width="0.15" fill="none"/>
<line x1="301.77" y1="39.55" x2="315.65" y2="42.00" stroke="black" stroke-width="0.15" fill="none"/>
<line x1="315.65" y1="42.00" x2="313.21" y2="55.89" stroke="black" stroke-width="0.15" fill="none"/>
<line x1="313.21" y1="55.89" x2="299.32" y2="53.44" stroke="black" stroke-width="0.15" fill="none"/>
<line x1="299.32" y1="53.44" x2="301.77" y2="39.55" stroke="black" stroke-width="0.15" fill="none"/>
<line x1="125.31" y1="99.31" x2="138.56" y2="94.49" stroke="black" stroke-width="0.15" fill="none"/>
<line x1="138.56" y1="94.49" x2="143.39" y2="107.74" stroke="black" stroke-width="0.15" fill="none"/>
<line x1="143.39" y1="107.74" x2="130.14" y2="112.56" stroke="black" stroke-width="0.15" fill="none"/>
<line x1="130.14" y1="112.56" x2="125.31" y2="99.31" stroke="black" stroke-width="0.15" fill="none"/>
<line x1="107.94" y1="105.63" x2="105.49" y2="91.74" stroke="black" stroke-width="0.15" fill="none"/>
<line x1="121.82" y1="103.18" x2="107.94" y2="105.63" stroke="black" stroke-width="0.15" fill="none"/>
<line x1="119.38" y1="89.29" x2="121.82" y2="103.18" stroke="black" stroke-width="0.15" fill="none"/>
<line x1="105.49" y1="91.74" x2="119.38" y2="89.29" stroke="black" stroke-width="0.15" fill="none"/>
<line x1="85.09" y1="103.13" x2="85.09" y2="89.03" stroke="black" stroke-width="0.15" fill="none"/>
<line x1="99.19" y1="103.13" x2="85.09" y2="103.13" stroke="black" stroke-width="0.15" fill="none"/>
<line x1="99.19" y1="89.03" x2="99.19" y2="103.13" stroke="black" stroke-width="0.15" fill="none"/>
<line x1="85.09" y1="89.03" x2="99.19" y2="89.03" stroke="black" stroke-width="0.15" fill="none"/>
<line x1="100.24" y1="66.64" x2="114.13" y2="64.19" stroke="black" stroke-width="0.15" fill="none"/>
<line x1="114.13" y1="64.19" x2="116.58" y2="78.07" stroke="black" stroke-width="0.15" fill="none"/>
<line x1="116.58" y1="78.07" x2="102.69" y2="80.52" stroke="black" stroke-width="0.15" fill="none"/>
<line x1="102.69" y1="80.52" x2="100.24" y2="66.64" stroke="black" stroke-width="0.15" fill="none"/>
<line x1="81.90" y1="60.98" x2="95.78" y2="58.54" stroke="black" stroke-width="0.15" fill="none"/>
<line x1="95.78" y1="58.54" x2="98.23" y2="72.42" stroke="black" stroke-width="0.15" fill="none"/>
<line x1="98.23" y1="72.42" x2="84.35" y2="74.87" stroke="black" stroke-width="0.15" fill="none"/>
<line x1="84.35" y1="74.87" x2="81.90" y2="60.98" stroke="black" stroke-width="0.15" fill="none"/>
<line x1="42.72" y1="63.75" x2="56.61" y2="61.30" stroke="black" stroke-width="0.15" fill="none"/>
<line x1="56.61" y1="61.30" x2="59.06" y2="75.19" stroke="black" stroke-width="0.15" fill="none"/>
<line x1="59.06" y1="75.19" x2="45.17" y2="77.63" stroke="black" stroke-width="0.15" fill="none"/>
<line x1="45.17" y1="77.63" x2="42.72" y2="63.75" stroke="black" stroke-width="0.15" fill="none"/>
<line x1="23.96" y1="60.44" x2="37.85" y2="57.99" stroke="black" stroke-width="0.15" fill="none"/>
<line x1="37.85" y1="57.99" x2="40.30" y2="71.88" stroke="black" stroke-width="0.15" fill="none"/>
<line x1="40.30" y1="71.88" x2="26.41" y2="74.33" stroke="black" stroke-width="0.15" fill="none"/>
<line x1="26.41" y1="74.33" x2="23.96" y2="60.44" stroke="black" stroke-width="0.15" fill="none"/>
<line x1="62.31" y1="62.37" x2="76.20" y2="59.92" stroke="black" stroke-width="0.15" fill="none"/>
<line x1="76.20" y1="59.92" x2="78.64" y2="73.80" stroke="black" stroke-width="0.15" fill="none"/>
<line x1="78.64" y1="73.80" x2="64.76" y2="76.25" stroke="black" stroke-width="0.15" fill="none"/>
<line x1="64.76" y1="76.25" x2="62.31" y2="62.37" stroke="black" stroke-width="0.15" fill="none"/>
<line x1="118.59" y1="72.29" x2="132.48" y2="69.84" stroke="black" stroke-width="0.15" fill="none"/>
<line x1="132.48" y1="69.84" x2="134.93" y2="83.73" stroke="black" stroke-width="0.15" fill="none"/>
<line x1="134.93" y1="83.73" x2="121.04" y2="86.18" stroke="black" stroke-width="0.15" fill="none"/>
<line x1="121.04" y1="86.18" x2="118.59" y2="72.29" stroke="black" stroke-width="0.15" fill="none"/>
<line x1="29.72" y1="55.57" x2="27.27" y2="41.68" stroke="black" stroke-width="0.15" fill="none"/>
<line x1="43.60" y1="53.12" x2="29.72" y2="55.57" stroke="black" stroke-width="0.15" fill="none"/>
<line x1="41.16" y1="39.23" x2="43.60" y2="53.12" stroke="black" stroke-width="0.15" fill="none"/>
<line x1="27.27" y1="41.68" x2="41.16" y2="39.23" stroke="black" stroke-width="0.15" fill="none"/>
<line x1="48.48" y1="58.87" x2="46.03" y2="44.99" stroke="black" stroke-width="0.15" fill="none"/>
<line x1="62.36" y1="56.43" x2="48.48" y2="58.87" stroke="black" stroke-width="0.15" fill="none"/>
<line x1="59.92" y1="42.54" x2="62.36" y2="56.43" stroke="black" stroke-width="0.15" fill="none"/>
<line x1="46.03" y1="44.99" x2="59.92" y2="42.54" stroke="black" stroke-width="0.15" fill="none"/>
<line x1="87.65" y1="56.11" x2="85.21" y2="42.22" stroke="black" stroke-width="0.15" fill="none"/>
<line x1="101.54" y1="53.66" x2="87.65" y2="56.11" stroke="black" stroke-width="0.15" fill="none"/>
<line x1="99.09" y1="39.78" x2="101.54" y2="53.66" stroke="black" stroke-width="0.15" fill="none"/>
<line x1="85.21" y1="42.22" x2="99.09" y2="39.78" stroke="black" stroke-width="0.15" fill="none"/>
<line x1="68.07" y1="57.49" x2="65.62" y2="43.61" stroke="black" stroke-width="0.15" fill="none"/>
<line x1="81.95" y1="55.04" x2="68.07" y2="57.49" stroke="black" stroke-width="0.15" fill="none"/>
<line x1="79.50" y1="41.16" x2="81.95" y2="55.04" stroke="black" stroke-width="0.15" fill="none"/>
<line x1="65.62" y1="43.61" x2="79.50" y2="41.16" stroke="black" stroke-width="0.15" fill="none"/>
<line x1="106.00" y1="61.76" x2="103.55" y2="47.88" stroke="black" stroke-width="0.15" fill="none"/>
<line x1="119.89" y1="59.31" x2="106.00" y2="61.76" stroke="black" stroke-width="0.15" fill="none"/>
<line x1="117.44" y1="45.43" x2="119.89" y2="59.31" stroke="black" stroke-width="0.15" fill="none"/>
<line x1="103.55" y1="47.88" x2="117.44" y2="45.43" stroke="black" stroke-width="0.15" fill="none"/>
<line x1="124.35" y1="67.42" x2="121.90" y2="53.53" stroke="black" stroke-width="0.15" fill="none"/>
<line x1="138.23" y1="64.97" x2="124.35" y2="67.42" stroke="black" stroke-width="0.15" fill="none"/>
<line x1="135.79" y1="51.08" x2="138.23" y2="64.97" stroke="black" stroke-width="0.15" fill="none"/>
<line x1="121.90" y1="53.53" x2="135.79" y2="51.08" stroke="black" stroke-width="0.15" fill="none"/>
<line x1="296.01" y1="34.68" x2="298.46" y2="20.79" stroke="black" stroke-width="0.15" fill="none"/>
<line x1="309.90" y1="37.13" x2="296.01" y2="34.68" stroke="black" stroke-width="0.15" fill="none"/>
<line x1="312.35" y1="23.24" x2="309.90" y2="37.13" stroke="black" stroke-width="0.15" fill="none"/>
<line x1="298.46" y1="20.79" x2="312.35" y2="23.24" stroke="black" stroke-width="0.15" fill="none"/>
<line x1="238.08" y1="35.22" x2="240.53" y2="21.34" stroke="black" stroke-width="0.15" fill="none"/>
<line x1="251.96" y1="37.67" x2="238.08" y2="35.22" stroke="black" stroke-width="0.15" fill="none"/>
<line x1="254.41" y1="23.78" x2="251.96" y2="37.67" stroke="black" stroke-width="0.15" fill="none"/>
<line x1="240.53" y1="21.34" x2="254.41" y2="23.78" stroke="black" stroke-width="0.15" fill="none"/>
<line x1="277.25" y1="37.99" x2="279.70" y2="24.10" stroke="black" stroke-width="0.15" fill="none"/>
<line x1="291.14" y1="40.43" x2="277.25" y2="37.99" stroke="black" stroke-width="0.15" fill="none"/>
<line x1="293.59" y1="26.55" x2="291.14" y2="40.43" stroke="black" stroke-width="0.15" fill="none"/>
<line x1="279.70" y1="24.10" x2="293.59" y2="26.55" stroke="black" stroke-width="0.15" fill="none"/>
<line x1="257.66" y1="36.60" x2="260.11" y2="22.72" stroke="black" stroke-width="0.15" fill="none"/>
<line x1="271.55" y1="39.05" x2="257.66" y2="36.60" stroke="black" stroke-width="0.15" fill="none"/>
<line x1="274.00" y1="25.17" x2="271.55" y2="39.05" stroke="black" stroke-width="0.15" fill="none"/>
<line x1="260.11" y1="22.72" x2="274.00" y2="25.17" stroke="black" stroke-width="0.15" fill="none"/>
<line x1="201.38" y1="46.53" x2="203.83" y2="32.64" stroke="black" stroke-width="0.15" fill="none"/>
<line x1="215.27" y1="48.98" x2="201.38" y2="46.53" stroke="black" stroke-width="0.15" fill="none"/>
<line x1="217.72" y1="35.09" x2="215.27" y2="48.98" stroke="black" stroke-width="0.15" fill="none"/>
<line x1="203.83" y1="32.64" x2="217.72" y2="35.09" stroke="black" stroke-width="0.15" fill="none"/>
<line x1="219.73" y1="40.88" x2="222.18" y2="26.99" stroke="black" stroke-width="0.15" fill="none"/>
<line x1="233.62" y1="43.32" x2="219.73" y2="40.88" stroke="black" stroke-width="0.15" fill="none"/>
<line x1="236.06" y1="29.44" x2="233.62" y2="43.32" stroke="black" stroke-width="0.15" fill="none"/>
<line x1="222.18" y1="26.99" x2="236.06" y2="29.44" stroke="black" stroke-width="0.15" fill="none"/>
<line x1="125.21" y1="34.77" x2="139.09" y2="32.32" stroke="black" stroke-width="0.15" fill="none"/>
<line x1="139.09" y1="32.32" x2="141.54" y2="46.21" stroke="black" stroke-width="0.15" fill="none"/>
<line x1="141.54" y1="46.21" x2="127.66" y2="48.66" stroke="black" stroke-width="0.15" fill="none"/>
<line x1="127.66" y1="48.66" x2="125.21" y2="34.77" stroke="black" stroke-width="0.15" fill="none"/>
<line x1="106.86" y1="29.12" x2="120.75" y2="26.67" stroke="black" stroke-width="0.15" fill="none"/>
<line x1="120.75" y1="26.67" x2="123.19" y2="40.55" stroke="black" stroke-width="0.15" fill="none"/>
<line x1="123.19" y1="40.55" x2="109.31" y2="43.00" stroke="black" stroke-width="0.15" fill="none"/>
<line x1="109.31" y1="43.00" x2="106.86" y2="29.12" stroke="black" stroke-width="0.15" fill="none"/>
<line x1="88.51" y1="23.46" x2="102.40" y2="21.01" stroke="black" stroke-width="0.15" fill="none"/>
<line x1="102.40" y1="21.01" x2="104.85" y2="34.90" stroke="black" stroke-width="0.15" fill="none"/>
<line x1="104.85" y1="34.90" x2="90.96" y2="37.35" stroke="black" stroke-width="0.15" fill="none"/>
<line x1="90.96" y1="37.35" x2="88.51" y2="23.46" stroke="black" stroke-width="0.15" fill="none"/>
<line x1="68.93" y1="24.85" x2="82.81" y2="22.40" stroke="black" stroke-width="0.15" fill="none"/>
<line x1="82.81" y1="22.40" x2="85.26" y2="36.28" stroke="black" stroke-width="0.15" fill="none"/>
<line x1="85.26" y1="36.28" x2="71.37" y2="38.73" stroke="black" stroke-width="0.15" fill="none"/>
<line x1="71.37" y1="38.73" x2="68.93" y2="24.85" stroke="black" stroke-width="0.15" fill="none"/>
<line x1="30.58" y1="22.92" x2="44.46" y2="20.47" stroke="black" stroke-width="0.15" fill="none"/>
<line x1="44.46" y1="20.47" x2="46.91" y2="34.36" stroke="black" stroke-width="0.15" fill="none"/>
<line x1="46.91" y1="34.36" x2="33.03" y2="36.81" stroke="black" stroke-width="0.15" fill="none"/>
<line x1="33.03" y1="36.81" x2="30.58" y2="22.92" stroke="black" stroke-width="0.15" fill="none"/>
<line x1="49.34" y1="26.23" x2="63.22" y2="23.78" stroke="black" stroke-width="0.15" fill="none"/>
<line x1="63.22" y1="23.78" x2="65.67" y2="37.66" stroke="black" stroke-width="0.15" fill="none"/>
<line x1="65.67" y1="37.66" x2="51.79" y2="40.11" stroke="black" stroke-width="0.15" fill="none"/>
<line x1="51.79" y1="40.11" x2="49.34" y2="26.23" stroke="black" stroke-width="0.15" fill="none"/>
</svg>