<?xml version="1.0" encoding="UTF-8" standalone="no"?>
<!DOCTYPE svg PUBLIC "-//W3C//DTD SVG 1.1//EN" "http://www.w3.org/Graphics/SVG/1.1/DTD/svg11.dtd">
<svg width="100%" height="100%" viewBox="0 0 5517 2448" version="1.1" xmlns="http://www.w3.org/2000/svg" xmlns:xlink="http://www.w3.org/1999/xlink" xml:space="preserve" xmlns:serif="http://www.serif.com/" style="fill-rule:evenodd;clip-rule:evenodd;stroke-linejoin:round;stroke-miterlimit:2;">
    <g transform="matrix(1,0,0,1,-4825.227952,0)">
        <g id="TopPlate" transform="matrix(4.964916,0,0,6.907044,4825.227952,0)">
            <rect x="0" y="0" width="1111.181" height="354.331" style="fill:none;"/>
            <g transform="matrix(0.839222,0,0,-0.603249,86.001784,289.882793)">
                <path d="M771.598,20.83C770.352,19.475 767.432,18.944 765.293,20.447C743.418,35.824 707.894,63.086 689.837,70.944C667.484,80.67 633.579,70.032 633.579,70.032C633.579,70.032 588.242,52.233 564.322,50.665C517.865,47.62 405.049,48.446 359.163,51.763C336.398,53.408 288.27,70.612 265.725,74.167C238.656,78.434 224.681,76.262 192.428,77.368C148.945,78.859 28.11,79.512 28.11,79.512C26.543,79.512 25.274,81.079 25.274,82.348L25.274,298.348C25.274,299.915 26.543,301.184 28.11,301.184L533.95,301.184C533.95,302.751 566.543,301.184 568.11,301.184L839.548,301.184C841.114,301.184 883.567,301.996 883.567,301.996L871.126,287.482C871.126,287.482 854.12,256.588 854.12,233.633C854.12,206.42 868.643,179.973 881.222,167.264C901.259,147.019 924.222,138.464 946.721,138.464L1001.359,138.464C1003.692,138.464 1003.904,136.772 1003.904,136.179L1003.904,80.837C1003.904,80.105 1002.012,79.512 999.679,79.512L897.362,78.697C889.008,78.871 879.711,78.677 871.274,78.677C836.636,78.677 805.59,63.823 786.083,38.224C780.86,31.369 778.229,28.035 771.598,20.83ZM344.966,143.524L344.966,183.208L305.282,183.208L305.282,143.524L344.966,143.524ZM722.966,197.524L722.966,237.208L683.282,237.208L683.282,197.524L722.966,197.524ZM74.934,197.524L74.934,237.208L35.25,237.208L35.25,197.524L74.934,197.524ZM902.114,128.895C900.547,128.895 899.278,127.626 899.278,126.059L899.278,92.61C899.278,91.341 900.547,89.774 902.114,89.774L935.563,89.774C937.129,89.774 938.399,91.044 938.399,92.61L938.399,126.059C938.399,127.329 937.129,128.895 935.563,128.895L902.114,128.895ZM128.966,89.492L128.966,129.176L89.282,129.176L89.282,89.492L128.966,89.492ZM830.934,197.524L830.934,237.208L791.25,237.208L791.25,197.524L830.934,197.524ZM955.944,128.895C954.377,128.895 953.108,127.626 953.108,126.059L953.108,92.61C953.108,91.341 954.377,89.774 955.944,89.774L989.393,89.774C990.959,89.774 992.229,91.044 992.229,92.61L992.229,126.059C992.229,127.329 990.959,128.895 989.393,128.895L955.944,128.895ZM668.966,197.524L668.966,237.208L629.282,237.208L629.282,197.524L668.966,197.524ZM128.966,251.492L128.966,291.176L89.282,291.176L89.282,251.492L128.966,251.492ZM479.95,197.524L479.95,237.208L440.266,237.208L440.266,197.524L479.95,197.524ZM614.966,197.524L614.966,237.208L575.282,237.208L575.282,197.524L614.966,197.524ZM533.95,143.524L533.95,183.208L494.266,183.208L494.266,143.524L533.95,143.524ZM425.95,143.524L425.95,183.208L386.266,183.208L386.266,143.524L425.95,143.524ZM128.966,143.524L128.966,183.208L89.282,183.208L89.282,143.524L128.966,143.524ZM74.934,143.524L74.934,183.208L35.25,183.208L35.25,143.524L74.934,143.524ZM516.801,103.947L516.801,61.427L403.415,61.427L403.415,103.947L516.801,103.947ZM479.95,143.524L479.95,183.208L440.266,183.208L440.266,143.524L479.95,143.524ZM709.219,129.459L709.219,89.774L669.534,89.774L669.534,129.459L709.219,129.459ZM722.966,251.492L722.966,291.176L683.282,291.176L683.282,251.492L722.966,251.492ZM182.934,197.524L182.934,237.208L143.25,237.208L143.25,197.524L182.934,197.524ZM590.292,114.027L599.753,75.486L561.212,66.025L551.751,104.566L590.292,114.027ZM614.966,251.492L614.966,291.176L575.282,291.176L575.282,251.492L614.966,251.492ZM668.966,143.524L668.966,183.208L629.282,183.208L629.282,143.524L668.966,143.524ZM776.934,143.524L776.934,183.208L737.25,183.208L737.25,143.524L776.934,143.524ZM816.085,123.963L834.708,88.92L799.666,70.297L781.042,105.339L816.085,123.963ZM759.417,87.17L790.295,62.243L765.368,31.365L734.49,56.292L759.417,87.17ZM776.934,197.524L776.934,237.208L737.25,237.208L737.25,197.524L776.934,197.524ZM722.966,143.524L722.966,183.208L683.282,183.208L683.282,143.524L722.966,143.524ZM848.114,128.895C846.547,128.895 845.278,127.626 845.278,126.059L845.278,92.61C845.278,91.341 846.547,89.774 848.114,89.774L881.563,89.774C883.129,89.774 884.399,91.044 884.399,92.61L884.399,126.059C884.399,127.329 883.129,128.895 881.563,128.895L848.114,128.895ZM668.966,251.492L668.966,291.176L629.282,291.176L629.282,251.492L668.966,251.492ZM830.934,251.492L830.934,291.176L791.25,291.176L791.25,251.492L830.934,251.492ZM533.95,251.492L533.95,291.176L494.266,291.176L494.266,251.492L533.95,251.492ZM425.95,251.492L425.95,291.176L386.266,291.176L386.266,251.492L425.95,251.492ZM776.934,251.492L776.934,291.176L737.25,291.176L737.25,251.492L776.934,251.492ZM830.934,143.524L830.934,183.208L791.25,183.208L791.25,143.524L830.934,143.524ZM236.966,143.524L236.966,183.208L197.282,183.208L197.282,143.524L236.966,143.524ZM533.95,197.524L533.95,237.208L494.266,237.208L494.266,197.524L533.95,197.524ZM212.645,128.979L212.645,89.294L251.391,89.294L251.391,128.979L212.645,128.979ZM182.934,89.492L182.934,129.176L143.25,129.176L143.25,89.492L182.934,89.492ZM236.966,197.524L236.966,237.208L197.282,237.208L197.282,197.524L236.966,197.524ZM644.927,128.839L654.388,90.298L615.847,80.837L606.386,119.378L644.927,128.839ZM236.966,251.492L236.966,291.176L197.282,291.176L197.282,251.492L236.966,251.492ZM328.588,113.547L319.351,75.006L356.979,65.545L366.217,104.086L328.588,113.547ZM290.966,197.524L290.966,237.208L251.282,237.208L251.282,197.524L290.966,197.524ZM479.95,251.492L479.95,291.176L440.266,291.176L440.266,251.492L479.95,251.492ZM182.934,143.524L182.934,183.208L143.25,183.208L143.25,143.524L182.934,143.524ZM344.966,251.492L344.966,291.176L305.282,291.176L305.282,251.492L344.966,251.492ZM290.966,251.492L290.966,291.176L251.282,291.176L251.282,251.492L290.966,251.492ZM128.966,197.524L128.966,237.208L89.282,237.208L89.282,197.524L128.966,197.524ZM275.359,128.359L266.122,89.818L303.751,80.357L312.988,118.898L275.359,128.359ZM344.966,197.524L344.966,237.208L305.282,237.208L305.282,197.524L344.966,197.524ZM74.934,89.492L74.934,129.176L35.25,129.176L35.25,89.492L74.934,89.492ZM614.966,143.524L614.966,183.208L575.282,183.208L575.282,143.524L614.966,143.524ZM74.934,251.492L74.934,291.176L35.25,291.176L35.25,251.492L74.934,251.492ZM182.934,251.492L182.934,291.176L143.25,291.176L143.25,251.492L182.934,251.492ZM290.966,143.524L290.966,183.208L251.282,183.208L251.282,143.524L290.966,143.524ZM425.95,197.524L425.95,237.208L386.266,237.208L386.266,197.524L425.95,197.524Z" style="fill:rgb(153,153,153);"/>
            </g>
            <g transform="matrix(0,0.673619,-0.937119,0,984.604519,-506.501388)">
                <circle cx="973.359" cy="109.359" r="85.039"/>
            </g>
            <g transform="matrix(-0,0.552981,-0.76929,0,966.250904,-389.076591)">
                <circle cx="973.359" cy="109.359" r="85.039" style="fill:rgb(255,0,130);"/>
            </g>
        </g>
    </g>
</svg>
