<?xml version="1.0" encoding="UTF-8" standalone="no"?>
<!DOCTYPE svg PUBLIC "-//W3C//DTD SVG 1.1//EN" "http://www.w3.org/Graphics/SVG/1.1/DTD/svg11.dtd">
<svg width="100%" height="100%" viewBox="0 0 5517 2448" version="1.1" xmlns="http://www.w3.org/2000/svg" xmlns:xlink="http://www.w3.org/1999/xlink" xml:space="preserve" xmlns:serif="http://www.serif.com/" style="fill-rule:evenodd;clip-rule:evenodd;stroke-linejoin:round;stroke-miterlimit:2;">
    <g transform="matrix(1,0,0,1,-4825.227952,0)">
        <g id="TopPlate" transform="matrix(4.964916,0,0,6.907044,4825.227952,0)">
            <rect x="0" y="0" width="1111.181" height="354.331" style="fill:none;"/>
            <g transform="matrix(0.839222,0,0,-0.603249,86.001784,289.882793)">
                <path d="M544.551,49.719C491.281,47.859 399.439,48.851 359.163,51.763C336.398,53.408 288.27,70.612 265.725,74.167C238.656,78.434 224.681,76.262 192.428,77.368C148.945,78.859 28.11,79.512 28.11,79.512C26.543,79.512 25.274,81.079 25.274,82.348L25.274,298.348C25.274,299.915 26.543,301.184 28.11,301.184L533.95,301.184C533.95,301.779 538.642,301.922 544.551,301.871L544.551,49.719ZM182.934,251.492L182.934,291.176L143.25,291.176L143.25,251.492L182.934,251.492ZM290.966,143.524L290.966,183.208L251.282,183.208L251.282,143.524L290.966,143.524ZM425.95,197.524L425.95,237.208L386.266,237.208L386.266,197.524L425.95,197.524ZM74.934,251.492L74.934,291.176L35.25,291.176L35.25,251.492L74.934,251.492ZM74.934,89.492L74.934,129.176L35.25,129.176L35.25,89.492L74.934,89.492ZM275.359,128.359L266.122,89.818L303.751,80.357L312.988,118.898L275.359,128.359ZM344.966,197.524L344.966,237.208L305.282,237.208L305.282,197.524L344.966,197.524ZM182.934,143.524L182.934,183.208L143.25,183.208L143.25,143.524L182.934,143.524ZM128.966,197.524L128.966,237.208L89.282,237.208L89.282,197.524L128.966,197.524ZM344.966,251.492L344.966,291.176L305.282,291.176L305.282,251.492L344.966,251.492ZM290.966,251.492L290.966,291.176L251.282,291.176L251.282,251.492L290.966,251.492ZM212.645,128.979L212.645,89.294L251.391,89.294L251.391,128.979L212.645,128.979ZM479.95,251.492L479.95,291.176L440.266,291.176L440.266,251.492L479.95,251.492ZM328.588,113.547L319.351,75.006L356.979,65.545L366.217,104.086L328.588,113.547ZM290.966,197.524L290.966,237.208L251.282,237.208L251.282,197.524L290.966,197.524ZM182.934,89.492L182.934,129.176L143.25,129.176L143.25,89.492L182.934,89.492ZM236.966,251.492L236.966,291.176L197.282,291.176L197.282,251.492L236.966,251.492ZM236.966,197.524L236.966,237.208L197.282,237.208L197.282,197.524L236.966,197.524ZM479.95,143.524L479.95,183.208L440.266,183.208L440.266,143.524L479.95,143.524ZM425.95,143.524L425.95,183.208L386.266,183.208L386.266,143.524L425.95,143.524ZM516.801,103.947L516.801,61.427L403.415,61.427L403.415,103.947L516.801,103.947ZM128.966,143.524L128.966,183.208L89.282,183.208L89.282,143.524L128.966,143.524ZM74.934,143.524L74.934,183.208L35.25,183.208L35.25,143.524L74.934,143.524ZM128.966,89.492L128.966,129.176L89.282,129.176L89.282,89.492L128.966,89.492ZM533.95,143.524L533.95,183.208L494.266,183.208L494.266,143.524L533.95,143.524ZM479.95,197.524L479.95,237.208L440.266,237.208L440.266,197.524L479.95,197.524ZM128.966,251.492L128.966,291.176L89.282,291.176L89.282,251.492L128.966,251.492ZM344.966,143.524L344.966,183.208L305.282,183.208L305.282,143.524L344.966,143.524ZM74.934,197.524L74.934,237.208L35.25,237.208L35.25,197.524L74.934,197.524ZM533.95,197.524L533.95,237.208L494.266,237.208L494.266,197.524L533.95,197.524ZM236.966,143.524L236.966,183.208L197.282,183.208L197.282,143.524L236.966,143.524ZM182.934,197.524L182.934,237.208L143.25,237.208L143.25,197.524L182.934,197.524ZM425.95,251.492L425.95,291.176L386.266,291.176L386.266,251.492L425.95,251.492ZM533.95,251.492L533.95,291.176L494.266,291.176L494.266,251.492L533.95,251.492Z" style="fill:rgb(153,153,153);"/>
            </g>
        </g>
    </g>
</svg>
