<?xml version="1.0" encoding="UTF-8" standalone="no"?>
<!DOCTYPE svg PUBLIC "-//W3C//DTD SVG 1.1//EN" "http://www.w3.org/Graphics/SVG/1.1/DTD/svg11.dtd">
<svg width="100%" height="100%" viewBox="0 0 5517 2448" version="1.1" xmlns="http://www.w3.org/2000/svg" xmlns:xlink="http://www.w3.org/1999/xlink" xml:space="preserve" xmlns:serif="http://www.serif.com/" style="fill-rule:evenodd;clip-rule:evenodd;stroke-linejoin:round;stroke-miterlimit:2;">
    <g transform="matrix(1,0,0,1,-4825.227952,-10098.468408)">
        <g id="TopPlate" transform="matrix(4.964916,0,0,6.907044,4825.227952,10098.468408)">
            <rect x="0" y="0" width="1111.181" height="354.331" style="fill:none;"/>
            <g transform="matrix(0.839222,0,0,-0.603249,86.001784,289.882793)">
                <path d="M1003.904,161.339L1003.904,80.837C1003.904,80.105 1002.012,79.512 999.679,79.512L897.362,78.697C889.008,78.871 879.711,78.677 871.274,78.677C836.636,78.677 805.59,63.823 786.083,38.224C780.86,31.369 778.229,28.035 771.598,20.83C770.352,19.475 767.432,18.944 765.293,20.447C743.418,35.824 707.894,63.086 689.837,70.944C667.484,80.67 633.579,70.032 633.579,70.032C633.579,70.032 588.242,52.233 564.322,50.665C517.865,47.62 405.049,48.446 359.163,51.763C336.398,53.408 288.27,70.612 265.725,74.167C238.656,78.434 224.681,76.262 192.428,77.368C148.945,78.859 28.11,79.512 28.11,79.512C26.543,79.512 25.274,81.079 25.274,82.348L25.274,298.348C25.274,299.915 26.543,301.184 28.11,301.184L533.95,301.184C533.95,302.751 566.543,301.184 568.11,301.184L839.548,301.184C840.962,301.184 881.596,301.847 889.457,301.975C870.158,285.335 857.932,260.712 857.932,233.255C857.932,183.192 898.578,142.546 948.641,142.546C969.432,142.546 988.598,149.556 1003.904,161.339Z" style="fill:rgb(153,153,153);"/>
            </g>
        </g>
    </g>
</svg>
