<?xml version="1.0" encoding="UTF-8" standalone="no"?>
<!DOCTYPE svg PUBLIC "-//W3C//DTD SVG 1.1//EN" "http://www.w3.org/Graphics/SVG/1.1/DTD/svg11.dtd">
<svg width="100%" height="100%" viewBox="0 0 5517 2448" version="1.1" xmlns="http://www.w3.org/2000/svg" xmlns:xlink="http://www.w3.org/1999/xlink" xml:space="preserve" xmlns:serif="http://www.serif.com/" style="fill-rule:evenodd;clip-rule:evenodd;stroke-linejoin:round;stroke-miterlimit:2;">
    <g transform="matrix(1,0,0,1,-4825.227952,-2682.186394)">
        <g id="TopPlate" transform="matrix(4.964916,0,0,6.907044,4825.227952,2682.186394)">
            <rect x="0" y="0" width="1111.181" height="354.331" style="fill:none;"/>
            <g transform="matrix(0.839222,0,0,-0.603249,86.001784,289.882793)">
                <path d="M544.551,301.871C554.216,301.787 567.138,301.184 568.11,301.184L839.548,301.184C841.114,301.184 883.567,301.996 883.567,301.996L871.126,287.482C871.126,287.482 854.12,256.588 854.12,233.633C854.12,206.42 868.643,179.973 881.222,167.264C901.259,147.019 924.222,138.464 946.721,138.464L1001.359,138.464C1003.692,138.464 1003.904,136.772 1003.904,136.179L1003.904,80.837C1003.904,80.105 1002.012,79.512 999.679,79.512L897.362,78.697C889.008,78.871 879.711,78.677 871.274,78.677C836.636,78.677 805.59,63.823 786.083,38.224C780.86,31.369 778.229,28.035 771.598,20.83C770.352,19.475 767.432,18.944 765.293,20.447C743.418,35.824 707.894,63.086 689.837,70.944C667.484,80.67 633.579,70.032 633.579,70.032C633.579,70.032 588.242,52.233 564.322,50.665C558.642,50.293 551.971,49.978 544.551,49.719L544.551,301.871ZM614.966,143.524L614.966,183.208L575.282,183.208L575.282,143.524L614.966,143.524ZM644.927,128.839L654.388,90.298L615.847,80.837L606.386,119.378L644.927,128.839ZM614.966,197.524L614.966,237.208L575.282,237.208L575.282,197.524L614.966,197.524ZM668.966,197.524L668.966,237.208L629.282,237.208L629.282,197.524L668.966,197.524ZM830.934,197.524L830.934,237.208L791.25,237.208L791.25,197.524L830.934,197.524ZM955.944,128.895C954.377,128.895 953.108,127.626 953.108,126.059L953.108,92.61C953.108,91.341 954.377,89.774 955.944,89.774L989.393,89.774C990.959,89.774 992.229,91.044 992.229,92.61L992.229,126.059C992.229,127.329 990.959,128.895 989.393,128.895L955.944,128.895ZM902.114,128.895C900.547,128.895 899.278,127.626 899.278,126.059L899.278,92.61C899.278,91.341 900.547,89.774 902.114,89.774L935.563,89.774C937.129,89.774 938.399,91.044 938.399,92.61L938.399,126.059C938.399,127.329 937.129,128.895 935.563,128.895L902.114,128.895ZM722.966,197.524L722.966,237.208L683.282,237.208L683.282,197.524L722.966,197.524ZM830.934,143.524L830.934,183.208L791.25,183.208L791.25,143.524L830.934,143.524ZM759.417,87.17L790.295,62.243L765.368,31.365L734.49,56.292L759.417,87.17ZM722.966,143.524L722.966,183.208L683.282,183.208L683.282,143.524L722.966,143.524ZM816.085,123.963L834.708,88.92L799.666,70.297L781.042,105.339L816.085,123.963ZM776.934,143.524L776.934,183.208L737.25,183.208L737.25,143.524L776.934,143.524ZM776.934,197.524L776.934,237.208L737.25,237.208L737.25,197.524L776.934,197.524ZM668.966,143.524L668.966,183.208L629.282,183.208L629.282,143.524L668.966,143.524ZM614.966,251.492L614.966,291.176L575.282,291.176L575.282,251.492L614.966,251.492ZM709.219,129.459L709.219,89.774L669.534,89.774L669.534,129.459L709.219,129.459ZM722.966,251.492L722.966,291.176L683.282,291.176L683.282,251.492L722.966,251.492ZM590.292,114.027L599.753,75.486L561.212,66.025L551.751,104.566L590.292,114.027ZM830.934,251.492L830.934,291.176L791.25,291.176L791.25,251.492L830.934,251.492ZM848.114,128.895C846.547,128.895 845.278,127.626 845.278,126.059L845.278,92.61C845.278,91.341 846.547,89.774 848.114,89.774L881.563,89.774C883.129,89.774 884.399,91.044 884.399,92.61L884.399,126.059C884.399,127.329 883.129,128.895 881.563,128.895L848.114,128.895ZM668.966,251.492L668.966,291.176L629.282,291.176L629.282,251.492L668.966,251.492ZM776.934,251.492L776.934,291.176L737.25,291.176L737.25,251.492L776.934,251.492Z" style="fill:rgb(153,153,153);"/>
            </g>
        </g>
    </g>
</svg>
